<?xml version="1.0" standalone="no"?>
<!DOCTYPE svg PUBLIC "-//W3C//DTD SVG 20010904//EN"
 "http://www.w3.org/TR/2001/REC-SVG-20010904/DTD/svg10.dtd">
<svg version="1.0" xmlns="http://www.w3.org/2000/svg"
 width="1250.000000pt" height="1250.000000pt" viewBox="0 0 1250.000000 1250.000000"
 preserveAspectRatio="xMidYMid meet">
<metadata>
Created by potrace 1.16, written by Peter Selinger 2001-2019
</metadata>
<g transform="translate(0.000000,1250.000000) scale(0.100000,-0.100000)"
fill="#000000" stroke="none">
<path d="M4956 10084 c-769 -977 -1399 -1782 -1400 -1789 -1 -14 2557 -1767
2582 -1769 10 -1 237 543 769 1840 l754 1841 -636 809 c-350 445 -644 817
-654 826 -16 17 -94 -81 -1415 -1758z"/>
<path d="M7925 8418 c-422 -876 -781 -1619 -796 -1650 l-29 -57 1340 -1040
c737 -573 1344 -1042 1350 -1043 11 -3 1492 1653 1488 1663 -7 16 -2574 3718
-2579 3718 -3 1 -351 -716 -774 -1591z"/>
<path d="M1964 7050 c-406 -456 -739 -833 -739 -838 0 -11 2568 -3721 2576
-3721 9 -1 1590 3280 1587 3294 -2 9 -2236 1753 -2649 2067 l-36 28 -739 -830z"/>
<path d="M5531 4139 c-634 -1549 -753 -1844 -743 -1860 21 -33 1283 -1634
1290 -1636 8 -2 2802 3547 2804 3562 1 9 -2576 1775 -2590 1775 -4 0 -346
-829 -761 -1841z"/>
</g>
</svg>
