<?xml version="1.0" standalone="no"?>
<!DOCTYPE svg PUBLIC "-//W3C//DTD SVG 20010904//EN"
 "http://www.w3.org/TR/2001/REC-SVG-20010904/DTD/svg10.dtd">
<svg version="1.0" xmlns="http://www.w3.org/2000/svg"
 width="1250.000000pt" height="1250.000000pt" viewBox="0 0 1250.000000 1250.000000"
 preserveAspectRatio="xMidYMid meet">
<metadata>
Created by potrace 1.16, written by Peter Selinger 2001-2019
</metadata>
<g transform="translate(0.000000,1250.000000) scale(0.100000,-0.100000)"
fill="#000000" stroke="none">
<path d="M6170 10991 c-135 -81 -305 -262 -632 -671 -86 -107 -179 -220 -206
-250 l-50 -55 -64 33 c-476 250 -687 350 -902 431 -109 41 -276 85 -358 95
l-47 5 -67 -72 c-179 -193 -401 -525 -559 -837 -27 -52 -50 -97 -52 -99 -1 -2
-92 39 -200 91 -322 156 -575 257 -748 299 -78 18 -197 25 -242 13 -38 -10
-78 -140 -110 -349 -22 -150 -22 -500 1 -695 l17 -145 -25 -51 c-66 -137 -97
-348 -103 -720 -9 -487 24 -979 118 -1737 l41 -327 -33 -38 c-18 -20 -109
-122 -203 -225 -94 -104 -172 -193 -174 -198 -2 -5 115 -223 260 -486 204
-369 273 -486 308 -521 139 -135 576 -382 1445 -814 l500 -249 64 3 c59 4 66
7 102 45 21 23 40 56 44 75 4 23 -6 105 -31 234 -49 263 -56 422 -24 577 12
60 30 132 40 160 10 29 126 293 259 587 213 472 242 542 247 600 16 168 -66
330 -188 377 -18 6 -329 67 -690 134 l-658 123 0 383 0 384 26 54 c40 87 130
145 223 145 19 0 461 -108 982 -240 521 -132 955 -240 965 -240 33 0 97 -44
131 -88 36 -48 63 -126 63 -185 0 -21 -70 -404 -156 -851 -147 -765 -156 -816
-151 -901 3 -49 10 -106 16 -126 18 -57 83 -155 129 -193 81 -66 75 -66 774
-66 597 0 631 1 684 19 70 25 119 67 167 144 48 79 58 113 64 222 5 85 -4 136
-151 902 -86 446 -156 829 -156 850 0 59 27 137 63 185 34 44 98 88 130 88 10
0 445 108 966 240 521 132 963 240 983 240 92 0 182 -58 222 -145 l26 -54 0
-384 0 -383 -657 -123 c-362 -67 -673 -128 -691 -134 -122 -47 -204 -209 -188
-377 5 -58 32 -124 237 -575 127 -281 244 -546 261 -590 82 -220 89 -401 28
-735 -44 -239 -44 -271 -3 -321 35 -41 74 -59 130 -59 43 0 103 27 548 248
864 430 1306 679 1445 814 35 35 104 152 308 521 145 263 262 481 260 486 -2
5 -80 94 -174 198 -94 103 -185 205 -203 226 l-33 37 41 328 c93 751 127 1248
118 1736 -6 371 -37 582 -103 723 l-25 52 17 138 c10 87 17 220 17 358 1 271
-14 397 -71 588 -30 103 -35 107 -145 107 -165 0 -456 -103 -900 -318 -108
-52 -199 -93 -200 -91 -2 2 -25 47 -52 99 -158 312 -380 644 -559 837 l-67 72
-47 -5 c-82 -10 -249 -54 -358 -95 -215 -81 -426 -181 -902 -431 l-64 -33 -50
55 c-27 30 -120 143 -206 250 -237 297 -350 427 -464 534 -97 92 -216 176
-249 176 -8 0 -43 -18 -79 -39z"/>
<path d="M5295 3460 c-89 -13 -235 -60 -319 -102 -117 -59 -184 -108 -428
-317 l-218 -186 0 -522 0 -521 88 -32 c48 -17 170 -56 272 -85 733 -211 1469
-275 2190 -189 388 46 891 161 1203 275 l87 32 0 521 0 521 -218 186 c-120
103 -247 207 -282 232 -96 66 -215 123 -337 159 l-108 33 -940 1 c-517 1 -963
-2 -990 -6z"/>
</g>
</svg>
