<?xml version="1.0" standalone="no"?>
<!DOCTYPE svg PUBLIC "-//W3C//DTD SVG 20010904//EN"
 "http://www.w3.org/TR/2001/REC-SVG-20010904/DTD/svg10.dtd">
<svg version="1.0" xmlns="http://www.w3.org/2000/svg"
 width="1250.000000pt" height="1250.000000pt" viewBox="0 0 1250.000000 1250.000000"
 preserveAspectRatio="xMidYMid meet">
<metadata>
Created by potrace 1.16, written by Peter Selinger 2001-2019
</metadata>
<g transform="translate(0.000000,1250.000000) scale(0.100000,-0.100000)"
fill="#000000" stroke="none">
<path d="M1229 10537 c-39 -26 -59 -76 -49 -121 4 -17 536 -947 1183 -2066
874 -1514 1182 -2040 1203 -2053 42 -27 108 -18 144 19 15 16 553 940 1196
2054 1104 1912 1169 2028 1169 2072 0 40 -5 53 -33 80 l-32 33 -2374 3 -2373
2 -34 -23z"/>
<path d="M6495 10550 c-35 -14 -66 -57 -72 -99 -5 -39 35 -110 1167 -2073 645
-1118 1185 -2046 1200 -2061 35 -37 92 -45 139 -20 30 16 177 266 1209 2053
646 1119 1178 2049 1182 2066 10 45 -10 95 -49 121 l-34 23 -2361 -1 c-1299 0
-2370 -4 -2381 -9z"/>
<path d="M6201 9438 c-30 -17 -1593 -2718 -1599 -2765 -3 -24 2 -38 22 -57
l25 -26 1591 0 1591 0 26 26 c20 20 24 32 20 57 -5 28 -1551 2722 -1581 2754
-17 19 -68 25 -95 11z"/>
<path d="M3824 5976 c-71 -71 -167 110 1145 -2161 717 -1241 1188 -2047 1204
-2058 33 -26 100 -26 134 -1 14 11 519 874 1201 2054 1160 2006 1177 2036
1177 2088 0 48 -3 57 -33 83 l-32 29 -2381 0 -2381 0 -34 -34z"/>
</g>
</svg>
