<?xml version="1.0" standalone="no"?>
<!DOCTYPE svg PUBLIC "-//W3C//DTD SVG 20010904//EN"
 "http://www.w3.org/TR/2001/REC-SVG-20010904/DTD/svg10.dtd">
<svg version="1.0" xmlns="http://www.w3.org/2000/svg"
 width="1250.000000pt" height="1250.000000pt" viewBox="0 0 1250.000000 1250.000000"
 preserveAspectRatio="xMidYMid meet">
<metadata>
Created by potrace 1.16, written by Peter Selinger 2001-2019
</metadata>
<g transform="translate(0.000000,1250.000000) scale(0.100000,-0.100000)"
fill="#000000" stroke="none">
<path d="M5789 10995 c-109 -18 -231 -48 -341 -86 l-86 -30 -109 22 c-76 15
-162 23 -291 26 -252 8 -401 -14 -633 -90 -57 -19 -147 -42 -199 -52 -516 -91
-871 -277 -1047 -549 -25 -39 -42 -50 -163 -106 -483 -223 -868 -558 -1068
-928 -93 -173 -172 -434 -172 -572 0 -31 -10 -45 -71 -105 -326 -322 -481
-688 -429 -1013 l11 -64 -46 -46 c-111 -114 -232 -330 -273 -487 -61 -238 -17
-470 116 -616 l51 -56 -11 -74 c-14 -104 -4 -297 21 -391 43 -164 143 -319
270 -421 133 -106 337 -188 504 -204 37 -3 67 -7 67 -9 0 -1 -45 -47 -99 -101
-84 -83 -106 -111 -140 -183 -129 -268 -51 -558 239 -896 227 -264 638 -550
1062 -739 380 -168 747 -260 1092 -272 l169 -6 -6 -191 c-14 -452 -109 -892
-256 -1185 -23 -44 -36 -81 -31 -81 26 0 320 212 490 354 136 113 351 325 452
446 177 211 322 465 421 740 87 239 121 414 115 591 l-3 116 93 17 c322 57
532 246 612 551 l23 83 65 -45 c128 -87 273 -147 430 -178 75 -14 121 -17 230
-12 145 6 225 24 329 71 l55 26 63 -30 c121 -58 217 -74 435 -75 223 0 333 18
495 82 238 94 379 227 484 455 131 286 145 527 42 761 -12 27 -21 50 -21 51 0
2 21 -1 48 -5 121 -20 250 -3 403 53 58 22 70 23 90 12 103 -58 374 -143 555
-175 156 -27 426 -30 561 -5 319 58 555 180 776 403 143 144 251 313 306 480
23 68 51 218 51 270 0 19 11 53 24 76 34 57 71 165 92 267 23 106 25 419 5
555 -86 579 -346 1042 -678 1209 -46 23 -54 31 -64 68 -44 170 -304 436 -644
661 -239 158 -527 276 -676 277 -45 0 -47 1 -84 58 -233 351 -605 591 -958
618 -72 6 -91 11 -105 28 -30 38 -145 131 -242 198 -320 221 -772 349 -1224
347 -94 0 -205 -4 -246 -8 -72 -8 -79 -7 -175 30 -180 70 -286 90 -490 94
-125 3 -206 0 -266 -10z"/>
</g>
</svg>
