<?xml version="1.0" standalone="no"?>
<!DOCTYPE svg PUBLIC "-//W3C//DTD SVG 20010904//EN"
 "http://www.w3.org/TR/2001/REC-SVG-20010904/DTD/svg10.dtd">
<svg version="1.0" xmlns="http://www.w3.org/2000/svg"
 width="1250.000000pt" height="1250.000000pt" viewBox="0 0 1250.000000 1250.000000"
 preserveAspectRatio="xMidYMid meet">
<metadata>
Created by potrace 1.16, written by Peter Selinger 2001-2019
</metadata>
<g transform="translate(0.000000,1250.000000) scale(0.100000,-0.100000)"
fill="#000000" stroke="none">
<path d="M6035 10784 c-33 -2 -161 -18 -285 -35 -875 -120 -1656 -471 -2365
-1063 -16 -14 -27 -27 -25 -30 3 -2 41 13 85 35 469 229 912 354 1424 400 278
25 699 3 1001 -51 496 -89 987 -285 1415 -566 863 -565 1462 -1447 1669 -2456
58 -282 70 -417 70 -768 0 -283 -3 -346 -22 -485 -65 -459 -184 -849 -379
-1239 -539 -1079 -1572 -1854 -2753 -2066 -222 -40 -348 -52 -608 -57 -276 -6
-407 2 -657 38 -393 58 -771 178 -1160 368 -132 65 -124 55 101 -123 396 -314
900 -586 1375 -745 509 -169 1121 -256 1624 -231 667 33 1230 174 1800 449
795 384 1455 989 1922 1759 156 258 329 642 427 950 284 889 284 1875 0 2764
-99 308 -271 692 -428 951 -648 1071 -1677 1820 -2881 2096 -345 79 -550 102
-955 105 -184 2 -362 2 -395 0z"/>
<path d="M4200 9084 c-119 -11 -339 -49 -463 -80 -494 -123 -939 -376 -1305
-742 -444 -442 -709 -967 -808 -1597 -24 -150 -27 -198 -27 -415 0 -217 3
-265 27 -415 99 -630 364 -1155 808 -1597 435 -434 961 -699 1588 -800 127
-20 178 -23 420 -22 247 1 291 3 432 27 613 101 1139 368 1568 797 501 502
778 1121 831 1858 26 350 -42 787 -176 1147 -322 861 -1044 1515 -1933 1751
-234 62 -404 84 -677 88 -132 2 -260 2 -285 0z"/>
</g>
</svg>
