<?xml version="1.0" standalone="no"?>
<!DOCTYPE svg PUBLIC "-//W3C//DTD SVG 20010904//EN"
 "http://www.w3.org/TR/2001/REC-SVG-20010904/DTD/svg10.dtd">
<svg version="1.0" xmlns="http://www.w3.org/2000/svg"
 width="1250.000000pt" height="1250.000000pt" viewBox="0 0 1250.000000 1250.000000"
 preserveAspectRatio="xMidYMid meet">
<metadata>
Created by potrace 1.16, written by Peter Selinger 2001-2019
</metadata>
<g transform="translate(0.000000,1250.000000) scale(0.100000,-0.100000)"
fill="#000000" stroke="none">
<path d="M5722 11183 c-11 -10 -760 -1174 -1663 -2588 -1391 -2175 -1644
-2576 -1647 -2611 -3 -36 30 -113 278 -645 222 -476 282 -612 282 -644 0 -27
-51 -179 -151 -456 -83 -228 -151 -421 -151 -428 0 -8 9 -6 28 7 53 36 158 89
232 117 41 16 80 33 86 39 6 6 352 874 769 1929 417 1054 759 1916 761 1914 2
-1 -112 -350 -253 -775 -140 -425 -253 -776 -250 -779 5 -4 1260 1048 1271
1066 3 4 115 866 250 1915 175 1357 243 1912 236 1925 -9 17 -31 31 -50 31 -4
0 -17 -8 -28 -17z"/>
<path d="M8788 10102 c-9 -4 -1070 -895 -2357 -1980 -2066 -1742 -2342 -1978
-2351 -2010 -9 -31 3 -140 76 -667 47 -346 86 -651 86 -676 0 -25 -5 -57 -12
-70 -7 -13 -151 -205 -319 -427 -294 -387 -307 -403 -334 -398 -220 44 -441
25 -637 -55 -609 -249 -829 -1006 -452 -1556 60 -86 176 -212 187 -201 3 3 -1
51 -10 106 -8 56 -15 132 -15 169 0 83 24 248 46 323 9 30 16 64 15 75 -6 168
-2 234 23 310 26 82 91 204 113 212 7 3 49 -12 93 -33 l81 -37 32 30 c45 42
168 123 254 166 59 30 72 41 78 67 9 40 16 43 81 30 44 -9 80 -8 182 5 189 24
356 9 522 -47 74 -25 86 -26 99 -14 8 9 145 187 305 398 313 411 321 420 418
431 28 4 53 9 56 12 7 7 91 808 86 814 -5 6 47 78 -534 -734 -287 -401 -524
-732 -526 -734 -2 -3 -21 10 -42 27 -20 18 -65 51 -99 75 -35 23 -63 45 -63
50 0 7 2769 3450 2798 3477 19 19 56 70 -617 -869 -309 -431 -560 -786 -558
-788 2 -1 390 189 862 424 l857 428 820 1790 c450 985 822 1804 825 1821 4 25
1 35 -18 48 -26 18 -26 18 -51 8z"/>
<path d="M8060 6729 c-1504 -748 -2743 -1367 -2752 -1376 -10 -9 -23 -32 -28
-52 -6 -20 -39 -324 -75 -676 -52 -502 -70 -648 -84 -675 -12 -24 -137 -133
-407 -353 -214 -175 -395 -320 -402 -323 -6 -4 -47 8 -90 25 -142 56 -217 72
-367 78 -156 6 -248 -4 -367 -42 -225 -71 -412 -212 -545 -411 -114 -172 -173
-368 -173 -577 0 -144 21 -257 72 -386 57 -143 118 -240 213 -337 201 -204
461 -314 746 -314 509 0 915 329 1024 830 23 103 22 299 0 413 -15 76 -16 90
-4 101 47 44 762 618 790 635 19 12 48 21 64 21 17 1 324 -30 683 -67 l654
-67 35 19 c50 29 3823 4810 3823 4846 0 32 -17 49 -50 49 -14 0 -1256 -612
-2760 -1361z m20 -913 c0 -5 -3378 -2910 -3388 -2913 -4 -2 -19 16 -34 40 -15
23 -50 68 -78 99 l-51 57 102 78 c502 386 3445 2642 3447 2642 1 1 2 -1 2 -3z
m-4127 -2852 c35 -13 28 -185 -14 -310 -27 -82 -79 -168 -141 -231 -49 -50
-138 -120 -138 -109 0 3 10 45 21 93 30 122 31 361 2 480 l-20 82 41 4 c49 6
228 -1 249 -9z m-663 -439 c-12 -71 -63 -190 -101 -235 l-20 -25 4 100 c5 113
36 218 90 310 l32 53 3 -66 c2 -37 -2 -98 -8 -137z m1131 -34 c82 -319 -112
-653 -441 -758 -25 -8 -90 -17 -145 -20 -84 -5 -113 -2 -179 16 -75 21 -210
80 -202 89 3 2 45 13 96 24 259 56 510 221 649 427 56 82 113 206 142 305 l23
79 19 -44 c10 -24 27 -77 38 -118z"/>
<path d="M3622 5019 c-278 -840 -326 -995 -313 -1000 9 -4 70 -10 137 -14
l121 -7 20 33 c12 19 44 99 73 179 29 80 59 157 66 171 21 41 63 72 158 114
86 38 88 40 166 143 44 58 80 112 80 121 1 36 -164 1237 -171 1245 -4 5 -156
-439 -337 -985z"/>
<path d="M2390 3654 c-304 -88 -536 -289 -670 -577 -54 -116 -80 -230 -87
-373 -13 -267 63 -503 225 -705 189 -236 451 -368 762 -386 82 -5 255 9 268
21 2 3 -14 31 -35 63 -22 32 -54 83 -71 115 -23 40 -47 66 -84 89 -28 18 -76
54 -106 80 -34 29 -75 52 -111 64 -95 29 -172 77 -252 155 -130 128 -194 276
-193 450 1 149 43 271 134 394 22 30 44 77 55 116 42 154 136 330 239 448 31
35 56 65 56 68 0 10 -50 1 -130 -22z"/>
</g>
</svg>
