<?xml version="1.0" standalone="no"?>
<!DOCTYPE svg PUBLIC "-//W3C//DTD SVG 20010904//EN"
 "http://www.w3.org/TR/2001/REC-SVG-20010904/DTD/svg10.dtd">
<svg version="1.0" xmlns="http://www.w3.org/2000/svg"
 width="1250.000000pt" height="1250.000000pt" viewBox="0 0 1250.000000 1250.000000"
 preserveAspectRatio="xMidYMid meet">
<metadata>
Created by potrace 1.16, written by Peter Selinger 2001-2019
</metadata>
<g transform="translate(0.000000,1250.000000) scale(0.100000,-0.100000)"
fill="#000000" stroke="none">
<path d="M5816 10540 c-275 -678 -433 -1057 -440 -1053 -6 4 -409 317 -894
696 -486 378 -890 691 -897 694 -11 4 -13 -3 -9 -29 15 -95 312 -2233 311
-2235 -2 -1 -2140 296 -2235 311 -26 4 -33 2 -29 -9 3 -7 316 -411 694 -897
379 -485 692 -888 695 -894 5 -7 -378 -167 -1052 -440 -583 -236 -1060 -431
-1060 -434 0 -3 477 -198 1060 -434 673 -273 1057 -433 1052 -440 -3 -6 -316
-409 -695 -894 -378 -486 -691 -890 -694 -897 -4 -11 3 -13 29 -9 95 15 2233
312 2235 311 1 -2 -296 -2140 -311 -2235 -4 -26 -2 -33 9 -29 7 3 411 316 897
694 485 379 888 692 894 696 7 4 165 -375 440 -1053 236 -583 431 -1060 434
-1060 3 0 198 477 434 1060 273 673 433 1057 440 1052 6 -3 409 -316 894 -695
486 -378 890 -691 897 -694 11 -4 13 3 9 29 -15 95 -312 2233 -311 2235 2 1
2140 -296 2235 -311 26 -4 33 -2 29 9 -3 7 -316 411 -694 897 -379 485 -692
888 -695 894 -5 7 379 167 1052 440 583 236 1060 431 1060 434 0 3 -477 198
-1060 434 -674 273 -1057 433 -1052 440 3 6 316 409 695 894 378 486 691 890
694 897 4 11 -3 13 -29 9 -95 -15 -2233 -312 -2235 -311 -1 2 296 2140 311
2235 4 26 2 33 -8 29 -8 -3 -412 -315 -897 -694 -486 -379 -889 -692 -895
-695 -7 -5 -167 379 -440 1052 -236 583 -431 1060 -434 1060 -3 0 -198 -477
-434 -1060z m794 -1681 c576 -82 1090 -339 1500 -749 499 -499 774 -1159 774
-1860 0 -701 -275 -1361 -774 -1860 -499 -499 -1159 -774 -1860 -774 -914 0
-1760 475 -2246 1260 -312 504 -449 1149 -365 1724 86 591 338 1097 751 1510
412 412 929 669 1505 749 83 11 175 23 205 25 110 8 368 -5 510 -25z"/>
<path d="M6145 7914 c-688 -55 -1249 -485 -1471 -1127 -228 -660 -7 -1412 541
-1842 304 -238 648 -357 1035 -357 461 0 881 177 1196 503 307 320 466 714
466 1159 0 318 -82 612 -242 871 -260 419 -680 698 -1160 773 -104 16 -286 26
-365 20z"/>
</g>
</svg>
