<?xml version="1.0" standalone="no"?>
<!DOCTYPE svg PUBLIC "-//W3C//DTD SVG 20010904//EN"
 "http://www.w3.org/TR/2001/REC-SVG-20010904/DTD/svg10.dtd">
<svg version="1.0" xmlns="http://www.w3.org/2000/svg"
 width="1250.000000pt" height="1250.000000pt" viewBox="0 0 1250.000000 1250.000000"
 preserveAspectRatio="xMidYMid meet">

<g transform="translate(0.000000,1250.000000) scale(0.100000,-0.100000)"
fill="#000000" stroke="none">
<path d="M7604 11444 c10 -25 54 -281 70 -404 62 -478 38 -1035 -64 -1503
-150 -686 -409 -1255 -823 -1809 l-80 -108 -53 143 c-164 447 -397 874 -688
1262 -442 589 -1046 1123 -1706 1508 -222 129 -696 363 -720 355 -6 -2 27 -28
72 -58 394 -262 803 -655 1094 -1050 466 -632 763 -1346 880 -2113 9 -60 14
-110 11 -113 -2 -2 -67 22 -143 55 -1003 429 -2079 561 -3139 385 -277 -46
-588 -124 -836 -209 -165 -57 -439 -168 -439 -178 0 -5 7 -6 16 -3 25 10 281
54 404 70 477 62 992 41 1480 -60 680 -141 1270 -408 1832 -827 l108 -80 -143
-53 c-447 -164 -873 -396 -1262 -688 -588 -441 -1123 -1046 -1508 -1706 -129
-222 -363 -696 -355 -720 2 -6 28 27 58 72 262 394 655 803 1050 1094 632 466
1345 763 2113 880 60 9 110 14 113 11 2 -2 -22 -67 -55 -143 -429 -1003 -561
-2077 -385 -3139 46 -276 124 -588 209 -836 57 -165 168 -439 178 -439 5 0 6
7 3 16 -10 25 -54 281 -70 404 -62 476 -41 988 60 1480 139 674 408 1271 827
1832 l80 108 53 -143 c387 -1055 1156 -1983 2196 -2648 209 -134 519 -303 742
-406 219 -100 234 -101 96 -8 -401 272 -797 652 -1086 1045 -466 632 -763
1346 -880 2113 -9 60 -14 110 -11 113 2 2 67 -22 143 -55 1003 -429 2077 -561
3139 -385 290 48 601 127 862 219 184 65 413 158 413 168 0 5 -7 6 -16 3 -25
-10 -281 -54 -404 -70 -477 -62 -992 -41 -1480 60 -680 141 -1270 408 -1832
827 l-108 80 143 53 c888 325 1672 909 2314 1724 153 195 331 456 456 670 129
222 363 696 355 720 -2 6 -28 -27 -58 -72 -262 -394 -655 -803 -1050 -1094
-632 -466 -1346 -763 -2113 -880 -60 -9 -110 -14 -113 -11 -2 2 22 67 55 143
429 1003 561 2077 385 3139 -46 276 -124 588 -209 836 -57 165 -168 439 -178
439 -5 0 -6 -7 -3 -16z m-1406 -3594 c281 -363 424 -789 393 -1170 -4 -52 -7
-96 -6 -97 0 -1 21 14 45 34 25 19 95 68 155 109 61 40 140 100 177 133 156
143 274 337 333 551 34 120 33 119 34 94 2 -39 -29 -237 -50 -318 -90 -362
-238 -634 -468 -861 -39 -38 -71 -73 -71 -76 0 -4 44 -15 98 -26 139 -26 509
-26 632 1 131 28 295 84 404 137 113 55 108 43 -24 -59 -363 -281 -789 -424
-1170 -393 -52 4 -96 7 -97 6 -1 0 14 -21 34 -45 19 -25 68 -94 109 -155 40
-60 100 -140 133 -177 143 -156 337 -274 551 -333 120 -34 119 -33 94 -34 -39
-2 -237 29 -318 50 -362 90 -634 238 -861 468 -38 39 -73 71 -76 71 -4 0 -15
-44 -26 -97 -26 -140 -26 -510 1 -633 28 -131 84 -295 137 -404 55 -113 43
-108 -59 24 -281 363 -424 789 -393 1170 4 52 7 96 6 98 -1 1 -22 -14 -46 -34
-24 -20 -93 -70 -154 -110 -60 -40 -140 -100 -177 -133 -156 -143 -274 -337
-333 -551 -34 -120 -33 -119 -34 -94 -2 37 28 228 49 314 82 349 240 638 469
865 39 38 71 73 71 76 0 4 -44 15 -97 26 -77 14 -146 18 -323 18 -199 0 -237
-3 -330 -23 -134 -30 -271 -78 -389 -136 -108 -52 -102 -39 29 62 363 281 789
424 1170 393 52 -4 96 -7 97 -6 1 0 -14 21 -34 45 -19 25 -68 95 -109 155 -40
61 -100 140 -133 177 -143 156 -337 274 -551 333 -120 34 -119 33 -94 34 39 2
237 -29 318 -50 362 -90 634 -238 861 -468 38 -39 73 -71 76 -71 4 0 15 44 26
98 26 139 26 509 -1 632 -28 131 -84 295 -137 404 -55 113 -43 108 59 -24z"/>
</g>
</svg>
