<?xml version="1.0" standalone="no"?>
<!DOCTYPE svg PUBLIC "-//W3C//DTD SVG 20010904//EN"
 "http://www.w3.org/TR/2001/REC-SVG-20010904/DTD/svg10.dtd">
<svg version="1.0" xmlns="http://www.w3.org/2000/svg"
 width="1250.000000pt" height="1250.000000pt" viewBox="0 0 1250.000000 1250.000000"
 preserveAspectRatio="xMidYMid meet">

<g transform="translate(0.000000,1250.000000) scale(0.100000,-0.100000)"
fill="#000000" stroke="none">
<path d="M6925 11451 c-44 -11 -87 -36 -111 -63 -11 -12 -143 -287 -293 -609
l-273 -585 -205 -12 c-174 -11 -489 -48 -567 -68 -20 -5 -65 53 -411 516 -214
287 -400 529 -414 539 -61 41 -183 46 -252 11 -13 -7 -304 -163 -646 -347
-396 -214 -636 -348 -659 -371 -20 -19 -45 -54 -55 -76 -38 -84 -36 -92 201
-743 l219 -604 -131 -147 c-108 -121 -214 -255 -357 -452 l-18 -24 -639 92
c-351 51 -647 92 -657 92 -10 0 -40 -9 -67 -21 -50 -21 -97 -71 -125 -131 -8
-18 -106 -334 -217 -703 -188 -626 -201 -675 -202 -750 0 -87 19 -140 66 -181
12 -11 287 -143 609 -293 l585 -273 12 -205 c11 -174 48 -489 68 -567 5 -20
-53 -65 -516 -411 -287 -214 -529 -400 -539 -414 -41 -61 -46 -183 -11 -252 7
-13 163 -304 347 -646 214 -396 348 -636 371 -659 19 -20 54 -45 76 -55 84
-38 92 -36 743 201 l604 219 152 -135 c84 -75 223 -188 310 -251 102 -75 157
-122 157 -134 0 -10 -41 -297 -90 -638 -50 -341 -90 -630 -90 -641 0 -74 82
-171 174 -204 22 -9 336 -104 696 -213 612 -184 660 -196 735 -197 87 0 140
19 181 66 11 12 143 287 293 609 l273 585 205 12 c174 11 489 48 566 67 20 5
67 -53 412 -515 213 -287 400 -529 414 -539 61 -41 183 -46 252 -11 13 7 304
163 646 347 396 214 636 348 659 371 20 19 45 54 55 76 38 84 36 92 -201 743
l-219 604 135 152 c75 84 188 223 251 310 77 104 122 157 134 157 10 0 297
-41 637 -90 341 -50 629 -90 641 -90 75 0 171 81 205 174 9 22 104 336 213
696 184 612 196 660 197 735 0 87 -19 140 -66 181 -12 11 -287 143 -609 293
l-585 273 -12 205 c-11 174 -48 489 -67 566 -5 20 53 67 515 412 287 213 529
400 539 414 41 61 46 183 11 252 -7 13 -163 304 -347 646 -214 396 -348 636
-371 659 -19 20 -54 45 -76 55 -84 38 -92 36 -743 -201 l-604 -219 -147 131
c-121 108 -255 214 -452 357 l-25 18 93 639 c51 351 92 647 92 657 0 10 -9 40
-21 67 -24 55 -86 110 -153 134 -22 9 -336 104 -696 212 -655 196 -732 214
-805 195z m-245 -1937 c373 -50 639 -129 981 -290 1381 -651 2139 -2204 1803
-3699 -122 -545 -405 -1083 -783 -1494 -807 -874 -1995 -1249 -3151 -996 -543
120 -1087 404 -1499 784 -874 807 -1253 2008 -995 3156 122 545 405 1083 783
1494 737 798 1802 1187 2861 1045z"/>
<path d="M6015 9030 c-650 -54 -1264 -340 -1731 -805 -243 -242 -409 -475
-552 -775 -131 -276 -198 -495 -244 -807 -18 -123 -22 -191 -21 -403 0 -226 3
-273 26 -412 100 -607 359 -1120 782 -1544 242 -243 475 -409 775 -552 276
-131 495 -198 807 -244 123 -18 191 -22 403 -21 226 0 273 3 412 26 607 100
1120 359 1544 782 243 242 409 475 552 775 131 276 198 495 244 807 18 123 22
191 21 403 0 226 -3 273 -26 412 -100 607 -359 1120 -782 1544 -242 242 -475
408 -775 552 -266 127 -512 201 -800 242 -165 23 -478 33 -635 20z m410 -930
c294 -32 557 -121 802 -271 227 -139 463 -375 602 -602 371 -607 371 -1348 0
-1954 -139 -227 -375 -463 -602 -602 -607 -371 -1348 -371 -1954 0 -227 139
-463 375 -602 602 -371 607 -371 1348 0 1954 139 227 375 463 602 602 348 213
772 313 1152 271z"/>
</g>
</svg>
