<?xml version="1.0" standalone="no"?>
<!DOCTYPE svg PUBLIC "-//W3C//DTD SVG 20010904//EN"
 "http://www.w3.org/TR/2001/REC-SVG-20010904/DTD/svg10.dtd">
<svg version="1.0" xmlns="http://www.w3.org/2000/svg"
 width="288.000000pt" height="288.000000pt" viewBox="0 0 288.000000 288.000000"
 preserveAspectRatio="xMidYMid meet">

<g transform="translate(0.000000,288.000000) scale(0.100000,-0.100000)"
fill="#000000" stroke="none">
<path d="M1155 2054 c-133 -24 -303 -73 -425 -121 -145 -57 -190 -80 -318
-160 l-104 -65 -52 36 c-29 20 -56 36 -59 36 -17 0 -4 -39 23 -72 l30 -36 -57
-51 c-63 -56 -61 -57 47 -40 l70 12 177 -174 c330 -322 596 -513 833 -595 129
-44 430 -43 567 2 66 22 188 84 314 160 l107 64 208 0 c115 0 214 4 220 8 20
13 15 20 -224 343 -137 186 -321 373 -477 489 -87 65 -213 128 -301 151 -106
29 -455 37 -579 13z m104 -179 c-106 -39 -205 -117 -255 -203 l-27 -45 -14 24
c-12 22 -13 20 -7 -26 14 -120 118 -267 258 -364 146 -100 256 -135 416 -129
93 3 113 7 170 34 84 41 142 92 183 162 20 33 40 56 49 56 21 -2 13 62 -18
140 -13 33 -23 61 -21 62 11 12 251 -272 242 -286 -7 -11 -292 -164 -370 -198
-355 -155 -616 -117 -1010 148 -140 95 -445 351 -445 375 0 23 314 147 518
205 150 42 234 58 307 58 l60 1 -36 -14z m291 -81 c140 -31 220 -106 228 -213
5 -72 -13 -109 -71 -152 -43 -32 -106 -63 -113 -56 -2 2 7 30 22 62 14 32 28
79 31 104 7 62 -23 106 -101 145 -51 26 -69 30 -144 31 -60 0 -101 -5 -132
-18 -57 -21 -135 -99 -152 -150 -7 -22 -17 -39 -23 -38 -12 1 -19 93 -10 139
12 67 118 146 219 163 52 9 162 1 246 -17z m-140 -159 c0 -3 -11 -28 -25 -55
-51 -100 -42 -171 27 -224 76 -56 247 -75 323 -35 59 31 113 87 141 147 14 29
29 50 34 47 15 -10 12 -142 -4 -173 -21 -41 -65 -78 -121 -104 -69 -31 -274
-39 -361 -13 -139 40 -230 157 -203 258 12 45 68 111 118 137 35 18 71 26 71
15z m152 -32 c21 -18 24 -82 7 -116 -19 -38 -72 -87 -93 -87 -59 0 -76 84 -28
150 26 37 66 69 86 70 5 0 18 -7 28 -17z"/>
</g>
</svg>
