<?xml version="1.0" standalone="no"?>
<!DOCTYPE svg PUBLIC "-//W3C//DTD SVG 20010904//EN"
 "http://www.w3.org/TR/2001/REC-SVG-20010904/DTD/svg10.dtd">
<svg version="1.0" xmlns="http://www.w3.org/2000/svg"
 width="220.000000pt" height="220.000000pt" viewBox="0 0 220.000000 220.000000"
 preserveAspectRatio="xMidYMid meet">

<g transform="translate(0.000000,220.000000) scale(0.100000,-0.100000)"
fill="#000000" stroke="none">
<path d="M1075 1949 c-16 -44 -107 -411 -150 -607 -5 -22 -5 -22 32 -7 63 27
159 30 231 7 34 -11 62 -19 62 -17 0 14 -70 305 -106 445 -46 174 -59 206 -69
179z"/>
<path d="M56 1355 c16 -144 51 -267 95 -336 16 -26 56 -72 89 -102 34 -31 60
-64 60 -75 0 -10 16 -51 35 -90 45 -88 122 -162 203 -192 74 -29 195 -25 259
8 l42 22 26 -32 c30 -35 108 -187 136 -263 18 -50 18 -50 13 -10 -17 118 -67
343 -97 432 -73 215 -115 248 -421 333 -81 22 -167 50 -189 61 -107 54 -199
149 -238 247 l-19 47 6 -50z m637 -622 c20 -8 37 -20 37 -25 0 -5 -13 -23 -29
-39 -68 -67 -193 -2 -208 110 l-6 41 84 -36 c46 -20 101 -43 122 -51z"/>
<path d="M2095 1340 c-14 -43 -97 -140 -157 -183 -75 -54 -100 -64 -284 -116
-287 -81 -325 -113 -398 -331 -31 -95 -111 -448 -103 -456 2 -2 11 22 21 54
21 66 95 214 129 256 l24 30 54 -24 c82 -37 193 -35 274 5 103 50 195 168 212
271 4 24 16 40 43 58 101 67 177 218 195 390 7 65 3 85 -10 46z m-410 -530
c12 -19 -17 -94 -49 -126 -43 -43 -98 -58 -142 -39 -36 15 -64 59 -48 75 9 9
213 99 226 100 4 0 10 -4 13 -10z"/>
<path d="M993 1306 c-58 -19 -104 -49 -151 -100 -65 -70 -66 -77 -29 -128 38
-54 76 -87 137 -119 64 -34 205 -35 267 -1 54 28 108 76 144 126 l28 38 -29
43 c-87 127 -233 182 -367 141z m178 -95 c33 -33 39 -45 39 -82 0 -50 -27
-101 -62 -120 -13 -7 -41 -12 -64 -12 -116 0 -167 141 -80 220 30 27 44 33 82
33 41 0 51 -5 85 -39z"/>
</g>
</svg>
