<?xml version="1.0" standalone="no"?>
<!DOCTYPE svg PUBLIC "-//W3C//DTD SVG 20010904//EN"
 "http://www.w3.org/TR/2001/REC-SVG-20010904/DTD/svg10.dtd">
<svg version="1.0" xmlns="http://www.w3.org/2000/svg"
 width="220.000000pt" height="220.000000pt" viewBox="0 0 220.000000 220.000000"
 preserveAspectRatio="xMidYMid meet">

<g transform="translate(0.000000,220.000000) scale(0.100000,-0.100000)"
fill="#000000" stroke="none">
<path d="M366 1934 c-11 -30 -6 -150 9 -209 29 -110 60 -163 154 -259 65 -66
98 -109 120 -156 17 -36 31 -70 31 -77 0 -7 -21 11 -47 38 -45 49 -89 78 -143
94 -21 7 -18 0 22 -44 57 -63 70 -102 104 -301 41 -246 98 -389 188 -467 26
-24 162 -203 265 -350 12 -18 32 -35 44 -38 28 -7 613 52 634 64 24 13 274
572 266 596 -3 11 -85 130 -182 265 -185 259 -288 374 -398 449 -91 61 -97 60
-52 -8 23 -34 39 -64 36 -67 -3 -3 -32 12 -64 34 -95 64 -156 91 -388 169
-221 74 -277 99 -327 147 -34 30 -36 16 -8 -49 25 -59 25 -58 -7 -50 -68 16
-166 100 -221 188 -22 35 -31 43 -36 31z m1365 -881 c75 -104 145 -202 156
-218 l21 -31 -110 -239 c-60 -132 -111 -242 -114 -244 -5 -5 -449 -50 -499
-51 l-41 0 -152 214 c-84 118 -152 217 -152 220 0 8 212 470 219 479 7 7 420
53 502 56 35 1 37 -1 170 -186z"/>
<path d="M1276 1159 c-98 -10 -180 -19 -181 -21 -8 -7 -165 -360 -165 -369 0
-6 23 -9 53 -7 45 3 52 6 50 23 -9 70 30 86 73 30 24 -32 31 -36 68 -33 36 3
43 7 59 41 17 37 17 38 -5 67 -20 28 -25 30 -68 24 -35 -5 -49 -2 -59 10 -18
21 -5 55 25 62 28 7 28 8 9 37 -8 12 -12 32 -8 45 8 31 48 29 69 -3 19 -30 30
-32 37 -6 2 10 16 20 30 23 38 7 49 -26 26 -77 -17 -39 -17 -41 1 -70 11 -16
24 -30 30 -29 5 1 25 2 43 3 30 1 36 6 49 40 15 37 14 40 -9 69 -17 23 -22 38
-17 56 7 30 44 36 65 10 11 -14 16 -10 36 31 13 25 21 50 18 55 -7 12 -5 12
-229 -11z"/>
<path d="M1572 1085 c-27 -55 -27 -55 -4 -55 11 0 26 -8 35 -18 26 -28 -1 -60
-54 -64 -37 -3 -43 -7 -56 -40 -14 -34 -13 -38 8 -67 17 -24 30 -31 56 -31 29
0 36 5 55 44 33 69 96 70 85 1 -5 -29 -4 -31 26 -27 24 2 35 -2 45 -18 18 -30
0 -60 -38 -60 -31 0 -37 -9 -19 -27 5 -5 7 -22 3 -37 -10 -41 -52 -35 -85 13
-23 33 -30 37 -61 33 -29 -3 -38 -10 -52 -39 -16 -34 -16 -37 5 -68 21 -29 26
-31 68 -28 39 4 48 1 59 -16 16 -27 1 -58 -28 -63 -20 -3 -19 -5 11 -46 26
-35 34 -41 44 -30 20 22 166 350 161 363 -8 21 -228 325 -235 325 -4 0 -17
-20 -29 -45z"/>
<path d="M1330 841 c-17 -5 -30 -21 -44 -53 l-19 -46 29 -41 c30 -42 48 -48
111 -35 24 5 34 15 50 53 l20 48 -30 41 c-32 44 -55 50 -117 33z"/>
<path d="M1130 654 c-15 -46 -56 -67 -76 -39 -8 10 -11 28 -7 42 5 24 5 24
-43 18 -27 -4 -53 -11 -57 -15 -7 -6 166 -259 219 -320 12 -14 31 -14 186 2
95 9 185 17 201 17 34 1 34 15 0 63 -26 38 -26 38 -45 18 -45 -48 -89 -2 -57
61 17 34 17 36 -3 67 -17 27 -26 32 -58 32 -29 0 -43 -6 -54 -22 -22 -31 -20
-54 8 -91 18 -24 22 -37 15 -54 -10 -27 -56 -32 -65 -8 -9 22 -23 18 -34 -9
-12 -33 -49 -44 -67 -20 -14 18 -13 30 2 67 6 13 2 17 -17 17 -26 0 -48 17
-48 36 0 24 32 44 71 44 35 0 41 4 56 34 15 33 15 35 -6 65 -19 27 -29 31 -66
31 -41 0 -44 -2 -55 -36z"/>
</g>
</svg>
