<?xml version="1.0" standalone="no"?>
<!DOCTYPE svg PUBLIC "-//W3C//DTD SVG 20010904//EN"
 "http://www.w3.org/TR/2001/REC-SVG-20010904/DTD/svg10.dtd">
<svg version="1.0" xmlns="http://www.w3.org/2000/svg"
 width="220.000000pt" height="220.000000pt" viewBox="0 0 220.000000 220.000000"
 preserveAspectRatio="xMidYMid meet">

<g transform="translate(0.000000,220.000000) scale(0.100000,-0.100000)"
fill="#000000" stroke="none">
<path d="M810 1698 c-124 -193 -228 -356 -232 -363 -5 -9 60 -41 225 -112
l232 -99 3 227 c1 125 1 333 0 462 l-3 235 -225 -350z"/>
<path d="M1150 1592 c0 -272 4 -462 9 -462 8 0 452 188 458 194 2 1 -21 39
-50 83 -28 45 -119 186 -201 315 -82 128 -164 255 -183 283 l-33 50 0 -463z"/>
<path d="M740 1918 c-91 -66 -261 -187 -377 -270 -117 -82 -213 -153 -213
-156 0 -13 322 -145 329 -135 3 5 62 97 130 204 69 107 166 258 218 337 51 78
89 142 85 141 -4 0 -81 -54 -172 -121z"/>
<path d="M1423 1808 c79 -123 176 -276 216 -340 40 -65 76 -118 80 -118 13 -1
321 135 321 141 0 7 -745 539 -754 539 -3 0 59 -100 137 -222z"/>
<path d="M169 1353 c11 -20 185 -292 402 -630 81 -126 177 -277 214 -336 37
-59 69 -106 71 -104 3 2 -16 53 -41 113 -25 60 -80 192 -122 294 -42 102 -110
268 -153 370 l-76 185 -145 62 c-79 34 -148 63 -152 63 -4 0 -3 -8 2 -17z"/>
<path d="M1876 1310 c-76 -32 -142 -62 -146 -67 -4 -4 -67 -152 -138 -328 -72
-176 -160 -389 -196 -474 -36 -85 -64 -156 -63 -158 2 -1 37 50 77 115 41 64
164 256 274 427 244 379 347 545 338 544 -4 0 -69 -27 -146 -59z"/>
<path d="M645 1058 c60 -147 100 -242 262 -633 42 -99 88 -209 104 -245 l28
-65 1 453 0 452 -22 10 c-13 5 -113 48 -223 95 -110 47 -203 85 -207 85 -4 0
22 -69 57 -152z"/>
<path d="M1375 1116 l-220 -94 -2 -454 c-1 -249 1 -446 4 -438 3 8 16 38 28
65 13 28 72 172 133 320 61 149 151 366 200 483 50 116 87 212 84 212 -4 0
-106 -43 -227 -94z"/>
</g>
</svg>
