<?xml version="1.0" standalone="no"?>
<!DOCTYPE svg PUBLIC "-//W3C//DTD SVG 20010904//EN"
 "http://www.w3.org/TR/2001/REC-SVG-20010904/DTD/svg10.dtd">
<svg version="1.0" xmlns="http://www.w3.org/2000/svg"
 width="220.000000pt" height="220.000000pt" viewBox="0 0 220.000000 220.000000"
 preserveAspectRatio="xMidYMid meet">

<g transform="translate(0.000000,220.000000) scale(0.100000,-0.100000)"
fill="#000000" stroke="none">
<path d="M659 2110 c10 -25 48 -106 84 -180 36 -74 61 -136 57 -138 -5 -2 -48
1 -97 7 -48 5 -89 8 -91 6 -2 -2 49 -63 112 -136 64 -73 114 -134 112 -136 -2
-2 -29 3 -60 12 -31 9 -61 15 -66 13 -6 -2 53 -57 130 -122 77 -66 140 -121
140 -123 0 -2 -27 -1 -59 3 -55 6 -60 5 -71 -17 -7 -13 -14 -25 -15 -27 -2 -2
-54 17 -116 42 -62 26 -117 46 -122 46 -5 0 -6 -13 -2 -30 4 -16 3 -30 -2 -30
-4 0 -75 13 -158 30 -82 16 -150 28 -152 27 -2 -2 327 -158 369 -175 4 -2 8
11 8 28 0 31 1 32 38 25 20 -3 71 -14 112 -23 l74 -18 -48 -18 -48 -19 7 -46
c14 -89 20 -81 -100 -127 -60 -23 -111 -41 -113 -39 -1 1 9 33 22 70 14 36 22
65 16 63 -17 -6 -558 -323 -556 -326 2 -1 81 18 177 43 96 25 181 45 190 45
15 0 15 -6 3 -72 -8 -39 -12 -74 -10 -76 3 -2 60 37 127 87 68 50 125 89 127
86 2 -2 -3 -25 -12 -51 -9 -26 -15 -49 -13 -50 2 -2 58 55 125 126 67 72 122
125 122 119 0 -5 -5 -31 -12 -56 -10 -40 -9 -47 5 -55 10 -5 17 -13 17 -17 0
-5 -31 -62 -70 -127 l-70 -119 35 -3 c19 -2 35 -6 35 -10 0 -4 -16 -64 -34
-135 -19 -70 -33 -127 -31 -127 5 0 195 316 195 324 0 3 -13 6 -30 6 -16 0
-30 3 -30 7 0 5 17 57 37 118 l37 110 7 -43 c5 -23 11 -47 14 -52 3 -6 31 -10
61 -10 l54 0 1 -162 c0 -178 -2 -176 49 -54 11 27 23 47 25 44 3 -3 25 -90 48
-193 l43 -189 48 87 c25 47 50 88 54 91 5 3 60 -78 122 -179 63 -101 116 -182
118 -181 2 2 -35 123 -82 267 -47 145 -95 297 -107 337 -12 40 -23 71 -25 69
-2 -2 -19 -39 -38 -82 l-34 -78 -82 163 -82 163 46 -27 c24 -14 49 -26 53 -26
5 0 35 24 67 54 l58 53 51 -19 c29 -11 54 -22 56 -24 3 -2 -8 -18 -24 -34 -19
-20 -24 -30 -14 -30 8 0 99 -14 203 -30 104 -17 191 -29 192 -27 2 2 -57 30
-131 62 -121 54 -133 61 -120 75 20 22 19 40 -2 40 -41 0 -242 43 -237 51 3 5
-9 9 -25 9 -41 0 -39 12 4 33 44 21 50 36 37 89 -6 23 -9 44 -7 46 7 7 188 73
191 69 2 -2 -3 -27 -12 -56 -8 -29 -14 -57 -12 -62 2 -5 82 39 178 99 96 59
212 129 258 156 46 27 82 50 80 51 -2 2 -79 -19 -173 -46 -93 -27 -175 -48
-181 -47 -8 2 -7 22 3 68 7 36 12 71 11 79 -2 8 -51 -25 -123 -83 -65 -52
-120 -94 -122 -92 -2 1 6 29 17 62 l20 59 -120 -125 c-66 -69 -119 -116 -116
-105 19 78 18 92 -7 111 -14 10 -33 24 -43 30 -16 10 -16 15 10 87 l28 76 33
-25 33 -25 6 28 c16 82 57 365 54 373 -2 6 -27 -43 -56 -108 -70 -155 -64
-148 -95 -127 -31 20 -28 25 -53 -128 -11 -68 -22 -111 -31 -114 -8 -3 -13
-23 -14 -52 l-1 -46 -24 53 c-18 41 -28 52 -42 48 -71 -21 -64 -27 -120 100
-29 64 -51 118 -50 119 2 1 36 -2 77 -7 41 -5 77 -7 81 -6 3 2 -83 109 -192
238 -110 129 -208 246 -219 260 -19 25 -19 25 0 -20z"/>
</g>
</svg>
