<?xml version="1.0" standalone="no"?>
<!DOCTYPE svg PUBLIC "-//W3C//DTD SVG 20010904//EN"
 "http://www.w3.org/TR/2001/REC-SVG-20010904/DTD/svg10.dtd">
<svg version="1.0" xmlns="http://www.w3.org/2000/svg"
 width="220.000000pt" height="220.000000pt" viewBox="0 0 220.000000 220.000000"
 preserveAspectRatio="xMidYMid meet">

<g transform="translate(0.000000,220.000000) scale(0.100000,-0.100000)"
fill="#000000" stroke="none">
<path d="M1073 1934 c-40 -61 -62 -114 -79 -181 -13 -57 -11 -63 23 -63 32 0
113 -21 113 -29 0 -4 -35 -12 -79 -19 -101 -16 -223 -57 -338 -116 -51 -25
-103 -46 -116 -46 -43 0 -123 29 -167 61 l-43 31 6 -46 c4 -25 20 -75 37 -112
36 -79 36 -85 9 -110 -12 -10 -50 -63 -86 -116 -74 -111 -86 -118 -217 -127
l-80 -6 34 -38 c19 -22 57 -52 86 -68 l52 -30 4 -92 c4 -101 33 -180 82 -226
l25 -23 -15 48 c-22 73 -18 234 5 234 4 0 13 -27 19 -60 14 -67 64 -170 114
-232 17 -23 62 -61 99 -84 77 -50 109 -94 109 -150 l1 -39 29 34 c16 18 39 54
52 80 l24 46 95 16 c121 21 193 43 304 90 50 22 95 39 100 39 6 0 27 -25 49
-54 21 -30 54 -69 73 -88 35 -32 35 -32 30 -8 -16 70 -18 143 -7 190 11 47 19
56 104 124 50 40 100 83 110 95 33 37 115 25 169 -27 l27 -26 0 40 c0 21 -11
70 -24 108 l-24 69 46 75 c58 95 92 196 99 289 l6 74 46 23 c25 13 63 26 84
30 21 4 35 11 32 16 -9 14 -132 50 -171 50 -28 0 -38 7 -63 44 -36 52 -116
107 -189 131 -46 15 -56 23 -73 59 -21 45 -75 116 -88 116 -5 0 -11 -20 -13
-45 -10 -81 -23 -91 -130 -99 -83 -6 -151 -17 -200 -32 -21 -6 -36 38 -52 149
l-11 81 -32 -50z m532 -299 c107 -30 192 -112 221 -213 23 -79 15 -89 -28 -36
l-37 46 -6 -29 c-14 -60 -28 -100 -51 -139 l-24 -42 -62 26 c-35 14 -85 27
-111 30 l-49 5 35 -46 c37 -48 72 -138 64 -161 -7 -17 -146 -129 -216 -174
-76 -49 -202 -112 -223 -112 -39 0 -119 92 -138 160 l-7 25 -13 -30 c-7 -16
-15 -74 -18 -127 -5 -110 5 -100 -115 -119 -109 -17 -222 -7 -291 24 -31 14
-56 32 -56 40 0 8 27 43 60 78 33 35 60 66 60 68 0 4 -122 -6 -167 -15 l-32
-6 5 38 c10 69 34 131 76 196 46 72 187 216 265 271 l52 36 37 -50 c32 -43 96
-99 115 -99 3 0 2 24 -3 53 -8 53 -4 107 13 163 8 25 21 37 67 57 118 53 218
80 367 101 46 6 155 -4 210 -19z"/>
</g>
</svg>
