<?xml version="1.0" standalone="no"?>
<!DOCTYPE svg PUBLIC "-//W3C//DTD SVG 20010904//EN"
 "http://www.w3.org/TR/2001/REC-SVG-20010904/DTD/svg10.dtd">
<svg version="1.0" xmlns="http://www.w3.org/2000/svg"
 width="220.000000pt" height="220.000000pt" viewBox="0 0 220.000000 220.000000"
 preserveAspectRatio="xMidYMid meet">

<g transform="translate(0.000000,220.000000) scale(0.100000,-0.100000)"
fill="#000000" stroke="none">
<path d="M1873 1719 c-28 -118 -139 -328 -271 -513 -76 -107 -253 -289 -352
-362 -44 -33 -85 -71 -91 -87 -13 -30 -10 -36 75 -221 l45 -97 33 24 c18 14
52 34 75 46 l43 21 -27 56 -28 55 61 57 c63 59 87 95 109 166 l12 41 12 -45
13 -44 24 39 c63 101 134 260 154 345 l13 55 18 -39 17 -39 21 66 c33 107 60
265 67 394 7 128 -3 166 -23 82z"/>
<path d="M324 1610 c5 -140 22 -255 58 -375 l21 -70 14 43 15 43 34 -103 c36
-108 141 -319 162 -326 7 -2 12 6 12 20 0 52 17 47 34 -9 15 -48 31 -70 88
-125 l69 -67 -19 -38 c-36 -71 -36 -80 -1 -92 46 -16 153 -95 187 -138 34 -44
82 -135 82 -157 0 -36 23 -21 78 51 32 43 61 83 65 89 3 6 -36 105 -88 220
l-94 209 -69 52 c-248 185 -510 533 -623 829 l-30 79 5 -135z"/>
</g>
</svg>
