<?xml version="1.0" standalone="no"?>
<!DOCTYPE svg PUBLIC "-//W3C//DTD SVG 20010904//EN"
 "http://www.w3.org/TR/2001/REC-SVG-20010904/DTD/svg10.dtd">
<svg version="1.0" xmlns="http://www.w3.org/2000/svg"
 width="1024.000000pt" height="1024.000000pt" viewBox="0 0 1024.000000 1024.000000"
 preserveAspectRatio="xMidYMid meet">

<g transform="translate(0.000000,1024.000000) scale(0.100000,-0.100000)"
fill="#000000" stroke="none">
<path d="M4485 6408 c-346 -462 -631 -845 -633 -849 -2 -5 555 -9 1268 -9 713
0 1270 4 1268 9 -5 14 -1263 1690 -1268 1690 -3 0 -288 -378 -635 -841z"/>
<path d="M3852 4681 c5 -14 1263 -1690 1268 -1690 5 0 1263 1676 1268 1690 2
5 -555 9 -1268 9 -713 0 -1270 -4 -1268 -9z"/>
</g>
</svg>
