<?xml version="1.0" standalone="no"?>
<!DOCTYPE svg PUBLIC "-//W3C//DTD SVG 20010904//EN"
 "http://www.w3.org/TR/2001/REC-SVG-20010904/DTD/svg10.dtd">
<svg version="1.0" xmlns="http://www.w3.org/2000/svg"
 width="375.000000pt" height="375.000000pt" viewBox="0 0 375.000000 375.000000"
 preserveAspectRatio="xMidYMid meet">

<g transform="translate(0.000000,375.000000) scale(0.100000,-0.100000)"
fill="#000000" stroke="none">
<path d="M1799 3370 c-65 -34 -64 -31 -51 -233 80 -1256 124 -1905 128 -1892
4 13 36 467 94 1335 l48 725 -26 28 c-56 59 -125 73 -193 37z"/>
<path d="M1520 3259 c-216 -52 -398 -174 -570 -384 -219 -267 -422 -768 -505
-1245 -19 -108 -55 -403 -50 -408 10 -10 276 145 368 215 116 88 462 390 532
464 133 140 251 311 348 505 55 109 72 188 58 271 -28 170 -103 598 -104 599
-1 1 -36 -7 -77 -17z"/>
<path d="M2160 3260 c-18 -34 -112 -623 -108 -680 7 -95 117 -318 241 -487 68
-92 335 -354 493 -484 185 -152 526 -389 559 -389 17 0 4 98 -54 407 -84 447
-133 616 -256 868 -119 245 -296 478 -456 601 -103 79 -242 144 -368 173 -35
8 -43 6 -51 -9z"/>
<path d="M2006 2299 c-17 -104 -38 -349 -34 -393 7 -72 65 -223 163 -421 176
-357 402 -647 625 -804 l75 -52 12 53 c30 134 58 515 48 651 l-7 88 -89 60
c-138 93 -274 206 -394 330 -150 154 -243 276 -372 488 l-21 35 -6 -35z"/>
<path d="M1683 2238 c-187 -305 -455 -581 -758 -778 l-63 -41 -7 -87 c-7 -89
8 -391 26 -517 13 -98 31 -185 37 -185 2 0 41 26 84 57 297 214 604 672 762
1136 l27 79 -22 209 c-12 115 -25 209 -29 209 -4 0 -30 -37 -57 -82z"/>
<path d="M1755 1493 c-97 -189 -251 -405 -396 -557 -38 -40 -69 -78 -69 -83 0
-19 138 -220 190 -276 29 -32 79 -78 110 -102 56 -43 187 -115 209 -115 8 0
11 181 11 615 0 338 -1 615 -2 615 -2 0 -25 -44 -53 -97z"/>
<path d="M1940 975 c0 -344 4 -615 9 -615 17 0 107 43 159 77 106 67 221 193
317 347 l47 76 -75 79 c-146 153 -287 349 -396 554 -29 53 -55 97 -57 97 -2 0
-4 -277 -4 -615z"/>
</g>
</svg>
