<?xml version="1.0" standalone="no"?>
<!DOCTYPE svg PUBLIC "-//W3C//DTD SVG 20010904//EN"
 "http://www.w3.org/TR/2001/REC-SVG-20010904/DTD/svg10.dtd">
<svg version="1.0" xmlns="http://www.w3.org/2000/svg"
 width="512.000000pt" height="512.000000pt" viewBox="0 0 512.000000 512.000000"
 preserveAspectRatio="xMidYMid meet">
<metadata>
Created by potrace 1.16, written by Peter Selinger 2001-2019
</metadata>
<g transform="translate(0.000000,512.000000) scale(0.100000,-0.100000)"
fill="#000000" stroke="none">
<path d="M1960 4933 c0 -4 89 -215 197 -469 l197 -462 67 -16 c88 -21 253 -20
339 2 l64 17 148 400 c81 220 159 430 173 468 l25 67 -605 0 c-333 0 -605 -3
-605 -7z"/>
<path d="M1659 4693 c50 -134 67 -175 172 -405 200 -440 235 -631 150 -813
-43 -93 -100 -158 -410 -465 -158 -157 -314 -319 -348 -360 -239 -297 -328
-557 -303 -887 83 -1088 1158 -1799 2189 -1447 539 184 956 651 1080 1209 84
380 34 692 -158 987 -101 156 -155 216 -507 563 -375 371 -374 370 -382 534
-10 211 53 430 264 914 57 132 104 241 104 243 0 2 -49 4 -108 4 l-108 0 -166
-452 c-96 -261 -171 -481 -177 -519 -16 -95 -14 -265 4 -332 37 -144 121 -247
444 -551 419 -394 568 -607 622 -894 15 -80 6 -320 -16 -422 -129 -596 -588
-1045 -1180 -1156 -144 -27 -404 -25 -537 4 -302 66 -530 191 -744 406 -179
181 -284 349 -358 579 -50 154 -69 271 -69 432 0 166 18 249 87 390 81 168
147 247 481 580 335 333 415 425 469 538 71 150 84 343 37 535 -12 48 -92 249
-187 473 l-167 389 -103 0 -103 0 28 -77z"/>
<path d="M2355 2744 c-287 -29 -483 -76 -630 -151 -138 -70 -183 -125 -170
-212 16 -115 75 -236 157 -320 l33 -35 -60 33 c-92 51 -179 116 -219 163 l-36
43 -20 -25 c-32 -41 -77 -161 -96 -251 -13 -65 -15 -112 -11 -209 22 -456 288
-864 697 -1070 456 -229 994 -165 1388 165 204 171 348 398 418 660 38 146 46
375 15 495 -21 85 -87 240 -102 240 -4 0 -23 -18 -41 -41 -41 -52 -135 -122
-213 -161 l-60 -30 31 33 c78 85 126 183 144 294 8 48 7 71 -1 88 -61 118
-300 221 -629 272 -101 16 -503 28 -595 19z"/>
</g>
</svg>
