<?xml version="1.0" standalone="no"?>
<!DOCTYPE svg PUBLIC "-//W3C//DTD SVG 20010904//EN"
 "http://www.w3.org/TR/2001/REC-SVG-20010904/DTD/svg10.dtd">
<svg version="1.0" xmlns="http://www.w3.org/2000/svg"
 width="512.000000pt" height="512.000000pt" viewBox="0 0 512.000000 512.000000"
 preserveAspectRatio="xMidYMid meet">
<metadata>
Created by potrace 1.16, written by Peter Selinger 2001-2019
</metadata>
<g transform="translate(0.000000,512.000000) scale(0.100000,-0.100000)"
fill="#000000" stroke="none">
<path d="M2400 4755 c0 -63 -3 -115 -7 -115 -32 -1 -226 -33 -303 -50 -269
-60 -554 -192 -788 -367 -99 -74 -277 -246 -359 -348 -239 -294 -400 -664
-448 -1031 -8 -63 -15 -117 -15 -120 0 -2 -52 -4 -115 -4 l-115 0 0 -160 0
-160 114 0 115 0 6 -47 c38 -297 99 -502 217 -736 69 -136 148 -260 235 -367
72 -89 264 -277 348 -341 288 -220 643 -368 991 -414 63 -8 117 -15 120 -15 2
0 4 -52 4 -115 l0 -115 165 0 165 0 0 115 0 114 33 5 c17 3 70 10 117 16 325
44 707 211 980 429 96 76 263 244 335 336 231 296 379 642 429 1004 9 62 16
116 16 121 0 6 50 10 120 10 l120 0 0 160 0 160 -120 0 c-70 0 -120 4 -120 10
0 5 -7 59 -16 121 -93 673 -518 1265 -1124 1569 -211 106 -401 166 -635 201
-71 10 -133 19 -137 19 -5 0 -8 52 -8 115 l0 115 -160 0 -160 0 0 -115z m0
-715 l0 -270 165 0 165 0 0 268 0 269 63 -8 c99 -13 244 -49 352 -86 624 -217
1077 -783 1159 -1445 l6 -48 -270 0 -270 0 0 -165 0 -165 269 0 269 0 -5 -42
c-79 -666 -552 -1245 -1187 -1453 -101 -33 -251 -67 -343 -78 l-43 -5 0 269 0
269 -165 0 -165 0 0 -269 0 -269 -42 5 c-594 70 -1103 433 -1376 979 -74 149
-141 369 -160 532 l-8 72 268 0 268 0 0 160 0 160 -269 0 -270 0 5 38 c54 391
190 693 443 980 263 299 679 513 1096 565 17 2 33 5 38 6 4 0 7 -120 7 -269z"/>
<path d="M2400 2835 l0 -115 -115 0 -115 0 0 -160 0 -160 115 0 115 0 0 -115
0 -115 160 0 160 0 0 117 0 116 115 -7 115 -6 0 165 0 165 -112 0 -113 0 3
115 4 115 -166 0 -166 0 0 -115z"/>
</g>
</svg>
