<?xml version="1.0" standalone="no"?>
<!DOCTYPE svg PUBLIC "-//W3C//DTD SVG 20010904//EN"
 "http://www.w3.org/TR/2001/REC-SVG-20010904/DTD/svg10.dtd">
<svg version="1.0" xmlns="http://www.w3.org/2000/svg"
 width="600.000000pt" height="600.000000pt" viewBox="0 0 600.000000 600.000000"
 preserveAspectRatio="xMidYMid meet">
<metadata>
Created by potrace 1.16, written by Peter Selinger 2001-2019
</metadata>
<g transform="translate(0.000000,600.000000) scale(0.100000,-0.100000)"
fill="#000000" stroke="none">
<path d="M3064 5550 c-105 -22 -196 -96 -240 -196 -21 -48 -27 -54 -61 -60
-21 -3 -81 -14 -133 -24 l-95 -18 -45 48 c-63 67 -118 92 -213 98 -98 6 -165
-16 -404 -134 -204 -101 -264 -149 -308 -245 -25 -57 -27 -70 -23 -150 l5 -88
-101 -91 c-77 -70 -106 -90 -121 -85 -117 34 -201 27 -293 -25 -81 -47 -234
-256 -334 -456 -49 -98 -52 -111 -52 -177 0 -86 23 -145 82 -209 l39 -43 -36
-128 -37 -128 -66 -23 c-110 -37 -183 -109 -213 -210 -21 -70 -30 -333 -16
-475 12 -132 37 -196 96 -253 40 -39 111 -78 142 -78 56 -1 62 -8 103 -137
l40 -126 -36 -40 c-20 -22 -48 -64 -61 -94 -22 -48 -25 -65 -21 -137 4 -72 9
-91 42 -152 62 -114 183 -289 251 -362 101 -109 216 -145 341 -106 32 10 64
18 69 18 6 -1 56 -38 112 -83 99 -80 102 -83 95 -114 -24 -106 10 -218 85
-288 54 -50 238 -140 408 -200 101 -36 132 -42 200 -43 107 0 186 34 254 111
l47 55 133 -16 c74 -8 134 -17 135 -18 1 -2 11 -24 23 -49 31 -68 77 -114 141
-146 52 -26 66 -28 162 -27 162 2 461 59 552 105 55 27 124 93 150 144 12 22
24 67 27 100 l6 60 126 63 126 63 47 -30 c90 -57 214 -66 306 -22 79 37 221
151 346 275 149 149 168 185 169 306 0 75 -3 91 -28 136 l-28 51 73 115 73
115 75 5 c93 6 154 32 213 90 51 51 81 112 130 258 54 163 90 334 84 403 -10
109 -74 202 -169 244 l-38 17 0 135 1 136 59 37 c95 59 140 144 140 263 0 102
-83 392 -150 526 -31 61 -93 123 -149 147 -20 9 -76 18 -125 21 l-90 6 -73
106 -73 107 27 58 c47 100 38 210 -24 305 -30 45 -197 194 -306 273 -125 89
-169 109 -260 114 -87 5 -141 -10 -215 -60 l-43 -29 -82 34 c-45 19 -100 41
-122 50 -38 14 -40 17 -52 76 -17 82 -39 127 -85 172 -71 69 -155 95 -383 118
-160 16 -287 20 -331 11z m221 -160 c149 -12 301 -38 337 -56 26 -13 68 -63
68 -81 0 -4 -21 -8 -46 -8 -61 -1 -94 -35 -94 -100 0 -36 5 -48 30 -68 l29
-25 -30 -13 c-26 -10 -53 -9 -157 5 -70 9 -177 20 -239 25 -80 5 -119 13 -139
26 l-28 18 37 18 c43 23 57 45 57 94 0 46 -36 85 -79 85 -16 0 -32 4 -35 9 -8
13 38 51 81 66 46 17 57 17 208 5z m-968 -167 l35 -16 -30 -13 c-40 -16 -62
-51 -62 -97 0 -44 35 -87 72 -87 78 -1 33 -52 -92 -105 -47 -20 -140 -65 -208
-101 -84 -44 -134 -64 -158 -64 -32 0 -34 1 -20 16 35 34 32 100 -6 142 -24
24 -58 28 -107 11 -18 -6 -34 -9 -36 -7 -12 12 20 80 49 106 37 33 328 183
410 212 65 23 109 24 153 3z m538 -159 c24 -45 87 -101 139 -124 49 -22 500
-74 561 -65 57 8 136 47 183 89 22 20 44 36 49 36 5 0 60 -22 123 -48 l115
-49 7 -69 c15 -138 50 -189 203 -304 49 -37 119 -93 154 -124 102 -89 135
-101 270 -101 l114 0 70 -104 c63 -95 68 -106 56 -125 -53 -84 -63 -111 -67
-186 -4 -71 -1 -89 41 -216 25 -77 55 -172 67 -213 36 -124 91 -189 197 -232
l53 -21 0 -137 0 -136 -45 -18 c-56 -23 -128 -87 -159 -140 -14 -23 -38 -96
-55 -162 -17 -66 -44 -160 -61 -209 -47 -140 -39 -230 29 -330 l30 -44 -72
-113 -72 -113 -95 -1 c-119 0 -179 -25 -277 -117 -37 -35 -114 -103 -171 -152
-57 -48 -114 -105 -128 -126 -34 -52 -54 -121 -54 -191 0 -67 12 -56 -156
-134 l-93 -43 -38 30 c-101 81 -189 95 -369 58 -55 -12 -144 -27 -199 -36 -55
-8 -121 -21 -147 -30 -55 -18 -138 -89 -169 -144 -12 -22 -27 -41 -33 -43 -12
-4 -242 19 -262 27 -7 3 -15 20 -19 38 -18 80 -79 163 -150 201 -16 9 -82 37
-145 61 -63 25 -152 61 -198 81 -79 35 -88 37 -170 33 -70 -2 -98 -8 -141 -30
-41 -20 -59 -24 -73 -17 -20 11 -198 157 -198 163 0 2 7 23 15 46 21 61 19
165 -5 218 -11 23 -39 68 -63 100 -25 31 -78 109 -119 172 -42 63 -88 127
-104 142 -37 34 -107 65 -164 73 -91 13 -83 4 -125 139 l-38 125 51 46 c30 27
63 70 79 103 l28 57 0 265 c0 261 0 266 -25 315 -13 28 -50 75 -82 105 l-57
55 38 125 37 124 62 13 c126 25 194 78 272 214 24 41 72 117 108 168 36 52 73
113 83 135 23 50 25 163 5 230 l-14 46 99 90 c54 50 102 90 106 90 5 0 32 -9
62 -21 65 -24 176 -27 236 -6 23 8 79 35 125 60 47 25 129 64 183 88 147 64
212 129 248 247 7 23 18 47 25 52 13 11 188 47 239 49 25 1 34 -5 50 -35z
m1637 -100 c138 -94 296 -233 324 -286 8 -15 14 -46 14 -68 l0 -42 -34 21
c-91 57 -193 -16 -157 -112 8 -21 8 -27 -4 -27 -30 0 -65 21 -131 80 -38 34
-110 93 -161 131 -88 67 -143 120 -143 140 0 5 16 9 35 9 49 0 82 18 100 55
22 48 19 70 -15 109 -35 39 -30 44 42 45 41 1 57 -6 130 -55z m-3287 -511
c-28 -66 -28 -71 -15 -103 18 -43 51 -63 97 -58 21 3 46 8 56 12 13 6 17 3 17
-13 0 -29 -19 -65 -85 -156 -30 -43 -80 -122 -111 -176 -47 -83 -94 -139 -117
-139 -2 0 -7 19 -10 41 -8 59 -36 84 -93 84 -40 0 -50 -4 -76 -35 -28 -34 -30
-34 -44 -16 -22 30 -17 91 12 149 33 65 228 359 254 382 19 17 84 44 109 45 9
0 11 -6 6 -17z m4053 -431 c14 -9 38 -44 53 -77 35 -77 102 -291 119 -377 12
-61 12 -71 -5 -108 -26 -57 -42 -69 -51 -36 -9 39 -50 66 -98 66 -52 0 -81
-20 -97 -67 l-12 -37 -27 30 c-18 21 -34 59 -49 118 -12 48 -38 133 -57 189
-33 92 -55 207 -40 207 3 0 20 -9 38 -20 42 -25 74 -25 115 0 37 22 48 54 38
106 -6 36 -6 36 20 30 15 -4 39 -14 53 -24z m-4594 -812 c9 -56 36 -80 90 -80
33 0 49 6 70 26 14 15 26 31 26 35 0 17 19 9 30 -12 14 -25 20 -472 7 -511
-11 -34 -14 -34 -48 -2 -18 18 -42 28 -72 31 -39 5 -49 2 -70 -19 -14 -14 -27
-42 -31 -66 -3 -23 -10 -42 -14 -42 -12 1 -49 34 -66 60 -34 55 -44 408 -14
524 9 37 56 96 76 96 5 0 12 -18 16 -40z m4552 -529 c29 -23 83 -28 115 -11
10 6 28 29 39 51 12 22 25 37 30 34 21 -13 42 -70 42 -109 -1 -46 -69 -299
-108 -406 -27 -72 -86 -140 -122 -140 -14 0 -16 8 -14 48 3 44 1 51 -28 75
-41 35 -88 36 -128 2 -57 -48 -56 2 2 184 24 75 51 171 60 214 12 51 26 88 44
109 l26 31 8 -31 c5 -17 20 -40 34 -51z m-4115 -674 c14 -12 48 -60 76 -107
29 -47 83 -128 122 -179 62 -83 92 -143 78 -157 -2 -3 -16 0 -31 6 -48 18 -76
12 -112 -24 -37 -37 -42 -62 -19 -107 27 -51 1 -63 -70 -30 -43 19 -129 125
-233 283 -76 118 -95 161 -87 206 10 64 20 70 50 34 23 -27 34 -32 70 -32 62
0 105 37 105 91 0 46 15 50 51 16z m3553 -397 c-6 -46 -4 -51 24 -80 37 -36
86 -40 125 -10 36 29 47 25 47 -18 0 -25 -10 -54 -28 -83 -56 -87 -339 -329
-409 -348 -32 -9 -93 -5 -93 6 0 2 11 19 25 37 35 46 33 89 -5 128 -28 27 -36
30 -75 25 -25 -2 -45 -3 -45 0 0 24 49 78 143 156 61 52 135 118 162 147 39
41 109 88 133 90 1 0 0 -22 -4 -50z m-2605 -489 c58 -27 149 -64 201 -82 63
-22 107 -44 130 -66 35 -32 35 -32 10 -33 -36 0 -88 -35 -95 -63 -14 -54 -2
-91 38 -117 36 -22 37 -25 20 -37 -10 -8 -34 -18 -54 -24 -31 -10 -50 -6 -160
30 -157 52 -360 151 -383 185 -9 15 -19 40 -23 58 -6 28 -4 31 13 23 10 -5 36
-10 56 -13 52 -6 98 39 98 95 0 22 -7 48 -15 59 -22 29 -18 34 22 34 23 0 76
-18 142 -49z m1567 -135 c18 -14 18 -15 1 -21 -28 -11 -50 -63 -43 -101 10
-48 50 -76 103 -72 24 2 43 1 43 -2 0 -15 -43 -71 -65 -86 -38 -25 -190 -61
-358 -85 -120 -18 -155 -20 -185 -10 -73 22 -106 70 -49 71 59 1 95 80 66 144
-7 14 -27 31 -47 39 l-34 14 27 21 c15 12 41 24 59 26 17 3 81 12 141 21 61 8
144 24 185 34 93 23 131 25 156 7z"/>
<path d="M2908 4709 c-154 -16 -342 -97 -504 -218 -222 -165 -394 -433 -479
-744 -57 -210 -54 -325 13 -520 103 -296 124 -539 72 -808 -11 -57 -42 -183
-70 -279 l-50 -175 53 -45 c102 -88 375 -340 529 -489 87 -83 161 -151 164
-151 8 0 -5 185 -22 320 -8 63 -38 221 -65 350 -63 299 -87 447 -96 584 l-6
110 -66 71 c-68 73 -126 170 -155 260 -14 45 -56 270 -56 303 0 9 17 4 53 -16
28 -16 168 -93 310 -171 141 -79 262 -151 267 -162 6 -10 21 -121 35 -245 21
-199 27 -231 47 -259 81 -112 114 -154 118 -154 4 0 36 41 117 153 20 27 26
62 47 259 15 140 30 236 38 249 13 19 618 361 626 354 5 -6 -37 -251 -54 -306
-26 -90 -85 -191 -154 -263 l-64 -69 -12 -138 c-15 -165 -29 -251 -94 -560
-57 -274 -76 -401 -86 -560 l-7 -115 61 55 c33 30 154 143 269 252 114 108
256 238 314 288 l107 93 -24 86 c-106 373 -130 515 -121 705 7 149 33 278 93
466 76 238 73 366 -17 625 -115 336 -317 589 -592 742 -185 103 -353 141 -539
122z"/>
</g>
</svg>
