<?xml version="1.0" standalone="no"?>
<!DOCTYPE svg PUBLIC "-//W3C//DTD SVG 20010904//EN"
 "http://www.w3.org/TR/2001/REC-SVG-20010904/DTD/svg10.dtd">
<svg version="1.0" xmlns="http://www.w3.org/2000/svg"
 width="512.000000pt" height="512.000000pt" viewBox="0 0 512.000000 512.000000"
 preserveAspectRatio="xMidYMid meet">
<metadata>
Created by potrace 1.16, written by Peter Selinger 2001-2019
</metadata>
<g transform="translate(0.000000,512.000000) scale(0.100000,-0.100000)"
fill="#000000" stroke="none">
<path d="M655 4889 c-38 -5 -72 -14 -75 -19 -3 -6 -35 -144 -69 -308 -35 -163
-66 -300 -70 -305 -4 -4 -43 75 -87 177 -43 101 -82 182 -86 180 -15 -9 -31
-160 -30 -289 2 -289 75 -560 243 -900 239 -486 664 -1019 1197 -1504 l114
-103 45 43 c99 96 429 465 601 671 13 15 8 25 -45 90 -108 132 -297 390 -419
573 -341 507 -570 990 -659 1391 -30 137 -45 166 -102 210 -41 31 -169 81
-180 70 -5 -5 15 -43 69 -133 11 -18 18 -33 15 -33 -2 0 -67 45 -143 100 -155
112 -149 110 -319 89z"/>
<path d="M4275 4874 c-28 -122 -60 -226 -91 -292 -21 -42 -39 -70 -40 -62 -2
8 -10 60 -18 116 -16 110 -50 212 -72 221 -18 7 -107 -29 -157 -64 -50 -35
-61 -57 -92 -199 -144 -642 -607 -1432 -1350 -2299 -235 -275 -394 -445 -725
-776 -455 -456 -789 -756 -1248 -1122 -117 -94 -211 -171 -209 -173 6 -7 183
27 322 62 841 209 1916 814 2745 1544 143 126 440 410 440 420 0 5 -38 6 -85
3 -47 -3 -85 -4 -85 -1 0 3 126 103 280 223 279 216 280 217 366 333 317 428
514 827 594 1202 31 143 39 439 16 550 -21 97 -67 191 -114 230 -67 55 -204
94 -376 106 l-95 7 -6 -29z"/>
<path d="M3205 1498 c-110 -90 -453 -348 -472 -355 -7 -3 -13 -9 -13 -14 0
-16 300 -199 546 -332 l141 -76 249 -31 c137 -16 266 -33 287 -36 l38 -6 -33
-25 c-18 -14 -59 -38 -91 -53 -69 -33 -76 -27 103 -98 289 -115 561 -193 858
-246 17 -3 32 -2 32 2 -1 4 -40 36 -87 72 -343 258 -865 713 -1239 1082 -110
109 -205 198 -210 198 -5 0 -54 -37 -109 -82z"/>
</g>
</svg>
