<?xml version="1.0" standalone="no"?>
<!DOCTYPE svg PUBLIC "-//W3C//DTD SVG 20010904//EN"
 "http://www.w3.org/TR/2001/REC-SVG-20010904/DTD/svg10.dtd">
<svg version="1.0" xmlns="http://www.w3.org/2000/svg"
 width="600.000000pt" height="600.000000pt" viewBox="0 0 600.000000 600.000000"
 preserveAspectRatio="xMidYMid meet">
<metadata>
Created by potrace 1.16, written by Peter Selinger 2001-2019
</metadata>
<g transform="translate(0.000000,600.000000) scale(0.100000,-0.100000)"
fill="#000000" stroke="none">
<path d="M2479 5395 c-4 -3 -129 -6 -278 -6 l-271 0 -61 -122 c-152 -302 -287
-447 -418 -447 -130 1 -241 118 -377 398 -36 73 -69 130 -74 127 -12 -7 -76
-163 -99 -242 -52 -174 -66 -416 -36 -603 116 -711 820 -1292 1755 -1449 120
-20 398 -46 406 -38 3 2 -39 42 -93 88 -210 178 -413 392 -512 537 -58 86
-117 207 -136 282 -23 87 -16 224 14 300 l22 55 227 153 c125 84 235 159 245
166 16 13 16 17 1 77 -28 111 -5 219 66 310 65 80 229 131 433 132 l117 0 -21
24 c-39 40 -167 123 -255 164 -146 69 -250 90 -464 96 -102 3 -188 2 -191 -2z"/>
<path d="M3790 5048 c-190 -193 -439 -447 -554 -565 l-208 -213 73 -112 c41
-61 77 -116 81 -122 5 -7 42 24 100 81 l93 93 415 -415 414 -414 -169 -170
-168 -170 79 -120 c43 -66 83 -119 88 -118 4 2 312 311 682 687 l674 685 -97
97 c-54 54 -102 98 -108 97 -5 0 -46 -42 -90 -94 -44 -51 -82 -94 -85 -94 -3
-1 -197 191 -432 427 l-426 427 95 84 95 84 -98 98 c-54 55 -101 99 -104 99
-3 -1 -160 -159 -350 -352z m809 -1263 l-190 -190 -410 413 c-225 227 -409
417 -409 422 0 4 82 92 182 195 l182 186 418 -418 418 -418 -191 -190z"/>
<path d="M2646 4294 c-70 -48 -130 -93 -133 -100 -5 -14 -4 -16 129 -175 49
-57 179 -237 289 -399 262 -384 1360 -1999 1748 -2572 167 -247 309 -448 315
-448 16 0 108 115 135 168 14 27 21 60 21 94 0 52 -3 58 -133 248 -661 967
-1320 1933 -1539 2255 -145 215 -316 464 -379 555 -122 176 -217 322 -265 407
-16 29 -36 53 -44 53 -9 0 -73 -39 -144 -86z"/>
<path d="M1790 3019 c-52 -54 -339 -345 -637 -646 l-541 -549 95 -102 c52 -56
100 -102 106 -102 7 0 50 47 97 105 47 58 87 105 91 105 3 0 198 -190 433
-422 l429 -422 -97 -91 c-53 -49 -96 -95 -96 -100 0 -6 43 -53 95 -105 l95
-95 129 130 c897 907 1622 1647 1619 1654 -8 22 -154 230 -161 231 -4 0 -59
-53 -122 -117 l-114 -118 -263 262 -263 262 -120 21 c-205 37 -435 104 -607
176 -32 13 -61 24 -65 23 -4 -1 -51 -46 -103 -100z m790 -437 l415 -409 -67
-74 c-37 -41 -118 -127 -180 -192 l-113 -118 -417 418 -417 418 175 183 c97
100 179 182 183 182 3 0 193 -184 421 -408z m-342 -1195 l-182 -188 -413 413
c-227 227 -413 417 -413 421 0 4 80 91 177 193 l177 185 417 -417 418 -418
-181 -189z"/>
</g>
</svg>
