<?xml version="1.0" standalone="no"?>
<!DOCTYPE svg PUBLIC "-//W3C//DTD SVG 20010904//EN"
 "http://www.w3.org/TR/2001/REC-SVG-20010904/DTD/svg10.dtd">
<svg version="1.0" xmlns="http://www.w3.org/2000/svg"
 width="512.000000pt" height="512.000000pt" viewBox="0 0 512.000000 512.000000"
 preserveAspectRatio="xMidYMid meet">
<metadata>
Created by potrace 1.16, written by Peter Selinger 2001-2019
</metadata>
<g transform="translate(0.000000,512.000000) scale(0.100000,-0.100000)"
fill="#000000" stroke="none">
<path d="M2716 4854 c-597 -108 -1136 -681 -1173 -1245 -21 -333 138 -622 456
-827 136 -87 472 -225 495 -202 12 12 15 9 -69 60 -362 220 -548 549 -505 893
54 433 423 848 891 1000 127 42 266 61 398 54 256 -12 464 -101 684 -290 31
-27 57 -46 57 -42 0 13 -80 122 -143 197 -177 205 -411 349 -652 399 -109 23
-321 24 -439 3z"/>
<path d="M1655 4613 c-72 -10 -261 -56 -321 -79 -266 -100 -472 -274 -598
-505 -280 -513 -158 -1288 268 -1697 98 -94 153 -132 259 -182 132 -62 192
-74 357 -74 119 -1 160 3 227 22 210 56 432 187 623 366 80 75 62 89 -42 30
-86 -49 -207 -98 -309 -126 -69 -18 -109 -22 -224 -22 -83 0 -158 5 -185 12
-330 94 -568 340 -691 715 -150 460 -42 961 272 1262 121 115 237 186 404 244
49 18 91 34 94 36 5 6 -90 4 -134 -2z"/>
<path d="M3365 4099 c-404 -28 -711 -232 -836 -554 -53 -135 -72 -249 -71
-425 1 -207 48 -481 84 -488 13 -3 16 19 21 155 5 171 24 264 77 394 167 405
607 602 1114 498 176 -36 336 -103 492 -208 243 -162 411 -392 480 -656 23
-86 27 -121 27 -250 0 -99 -5 -175 -15 -225 -9 -41 -14 -77 -12 -79 7 -7 61
121 92 219 81 252 84 533 10 755 -177 534 -813 910 -1463 864z"/>
<path d="M3402 3100 c-253 -35 -532 -189 -756 -419 -48 -49 -56 -61 -43 -67
10 -4 46 11 94 39 103 61 199 103 303 134 116 34 304 43 414 19 371 -83 652
-404 757 -865 26 -115 36 -342 19 -463 -35 -262 -138 -471 -319 -648 -106
-103 -203 -168 -342 -226 -131 -55 -131 -55 -59 -49 295 27 603 170 787 368
206 221 305 498 305 847 -2 403 -150 785 -407 1046 -180 183 -371 274 -601
287 -49 3 -117 2 -152 -3z"/>
<path d="M360 2814 c-133 -303 -159 -647 -68 -919 162 -485 692 -837 1298
-862 701 -29 1134 413 1071 1092 -18 191 -62 385 -86 385 -12 0 -15 -22 -15
-119 0 -587 -364 -961 -934 -961 -212 0 -414 48 -608 146 -261 131 -479 352
-577 588 -59 142 -76 233 -76 411 0 95 6 184 14 218 7 32 10 61 8 64 -3 2 -15
-17 -27 -43z"/>
<path d="M2713 2481 c255 -155 414 -347 477 -573 175 -629 -488 -1378 -1220
-1378 -253 0 -481 88 -700 271 -34 28 -63 49 -66 46 -10 -9 137 -185 222 -267
115 -111 198 -169 325 -229 173 -81 243 -96 454 -96 154 0 193 3 269 23 508
128 950 559 1086 1057 34 122 39 341 12 456 -39 162 -110 286 -234 405 -138
134 -326 237 -563 309 -165 50 -176 45 -62 -24z"/>
</g>
</svg>
