<?xml version="1.0" standalone="no"?>
<!DOCTYPE svg PUBLIC "-//W3C//DTD SVG 20010904//EN"
 "http://www.w3.org/TR/2001/REC-SVG-20010904/DTD/svg10.dtd">
<svg version="1.0" xmlns="http://www.w3.org/2000/svg"
 width="600.000000pt" height="600.000000pt" viewBox="0 0 600.000000 600.000000"
 preserveAspectRatio="xMidYMid meet">
<metadata>
Created by potrace 1.16, written by Peter Selinger 2001-2019
</metadata>
<g transform="translate(0.000000,600.000000) scale(0.100000,-0.100000)"
fill="#000000" stroke="none">
<path d="M3155 5541 c-61 -15 -118 -66 -131 -116 -5 -20 -16 -26 -62 -35 -32
-6 -78 -17 -104 -24 -44 -13 -48 -12 -65 6 -47 52 -148 65 -209 28 -32 -20
-74 -90 -74 -123 0 -10 -22 -28 -57 -46 -32 -17 -75 -41 -97 -54 -36 -22 -41
-23 -78 -10 -46 16 -92 10 -136 -17 -46 -28 -65 -73 -60 -137 4 -39 1 -57 -10
-66 -8 -6 -47 -48 -86 -92 -68 -77 -72 -80 -116 -81 -92 -2 -150 -59 -150
-146 0 -26 5 -58 11 -71 10 -21 4 -34 -45 -111 -53 -81 -57 -86 -91 -86 -114
0 -188 -115 -136 -213 l20 -39 -62 -127 c-60 -123 -63 -129 -97 -134 -22 -4
-49 -20 -70 -42 -32 -33 -35 -42 -35 -93 0 -43 6 -65 22 -88 l22 -30 -29 -95
c-16 -52 -34 -113 -40 -136 -7 -28 -16 -43 -26 -43 -26 0 -70 -31 -88 -60 -9
-16 -16 -50 -16 -79 0 -44 5 -56 34 -88 l33 -38 -15 -111 c-15 -106 -16 -111
-43 -121 -40 -16 -69 -68 -69 -127 0 -45 4 -53 43 -91 43 -41 44 -43 50 -122
6 -78 5 -82 -18 -97 -40 -26 -58 -72 -53 -133 5 -62 31 -96 93 -124 37 -16 42
-23 63 -91 l22 -73 -20 -40 c-56 -109 17 -229 135 -224 43 2 57 -2 94 -29 23
-17 63 -41 87 -52 25 -12 44 -29 44 -38 0 -38 43 -103 84 -127 49 -29 130 -34
174 -11 37 19 78 65 89 100 7 24 20 32 74 51 35 12 89 33 119 46 54 25 55 25
85 7 38 -23 125 -24 172 -1 19 9 46 33 60 54 22 34 25 47 21 104 -4 63 -3 66
29 97 l33 31 -22 36 c-12 20 -23 38 -25 41 -2 2 -20 -13 -39 -34 -25 -27 -40
-36 -52 -31 -79 33 -150 24 -207 -26 -40 -35 -58 -84 -53 -141 4 -40 3 -41
-42 -60 -78 -35 -150 -57 -150 -48 0 18 -65 83 -97 96 -69 29 -167 5 -212 -52
-22 -28 -22 -28 -54 -11 -18 10 -46 28 -61 41 -26 20 -27 25 -16 46 17 31 8
111 -16 143 -25 33 -48 47 -103 61 -45 11 -46 12 -67 76 l-21 65 22 17 c33 26
48 71 43 128 -6 57 -33 94 -84 116 -33 14 -44 44 -44 130 0 34 4 43 25 52 37
17 65 70 65 121 0 49 -30 106 -60 116 -23 7 -23 7 -9 116 12 92 22 119 44 119
25 0 75 51 86 91 15 49 1 105 -36 141 l-25 25 29 104 c44 154 44 156 85 163
95 18 140 153 74 223 l-21 23 58 119 58 119 47 4 c110 11 168 111 125 215
l-15 36 52 84 53 83 49 0 c114 0 173 101 132 225 -5 16 10 38 69 102 l76 82
62 -5 c49 -4 69 -1 97 14 47 25 83 94 75 144 -5 35 -3 39 35 63 22 14 60 35
84 46 l43 22 22 -22 c46 -46 142 -56 199 -21 39 24 72 75 72 112 0 25 5 27 68
41 139 31 128 32 150 -5 21 -34 69 -68 95 -68 15 0 27 28 27 65 0 36 48 124
94 173 43 46 45 50 28 64 -15 14 -87 40 -102 37 -3 -1 -18 -4 -35 -8z"/>
<path d="M3438 5487 c-134 -38 -208 -142 -208 -291 0 -81 19 -131 71 -191 32
-36 124 -89 139 -80 4 3 10 28 14 56 l7 52 23 -22 c31 -29 36 -26 25 11 -35
125 27 288 137 358 26 16 52 31 58 33 18 6 -10 33 -58 56 -55 27 -148 35 -208
18z"/>
<path d="M3765 5371 c-129 -34 -205 -132 -205 -266 0 -80 20 -131 68 -183 26
-28 30 -37 22 -53 -16 -29 -61 -24 -105 11 -21 17 -40 28 -43 25 -3 -2 -13
-54 -23 -115 -28 -167 -67 -224 -172 -250 -63 -16 -117 -1 -187 52 -34 25 -55
36 -60 29 -3 -6 -14 -62 -24 -125 l-18 -113 51 -156 c83 -252 95 -342 56 -418
-19 -36 -81 -89 -108 -91 -88 -5 -149 27 -332 177 -77 63 -143 115 -147 115
-5 0 -8 -7 -8 -15 0 -30 -30 -75 -55 -81 -26 -6 -105 16 -168 48 -22 11 -41
17 -45 14 -3 -3 14 -47 38 -97 46 -97 46 -118 2 -129 -21 -5 -20 -7 18 -65 84
-124 90 -168 30 -227 -22 -22 -40 -42 -40 -43 0 -1 60 -51 133 -111 276 -226
315 -263 347 -327 38 -75 39 -125 5 -165 -14 -16 -36 -32 -50 -34 -32 -7 -107
7 -218 39 -80 22 -92 24 -138 12 -46 -12 -56 -11 -132 14 -45 15 -85 27 -89
27 -16 0 -7 -75 12 -115 11 -23 36 -60 55 -83 44 -51 77 -122 64 -138 -6 -8
18 -19 84 -39 112 -33 182 -68 265 -130 57 -43 62 -50 62 -85 0 -60 -38 -64
-213 -21 -64 15 -117 25 -117 20 0 -4 21 -43 46 -86 26 -43 105 -181 176 -308
71 -126 142 -244 159 -260 16 -17 29 -37 29 -45 0 -21 -119 -242 -205 -380
-77 -125 -273 -420 -385 -580 -33 -47 -59 -92 -59 -100 0 -30 36 -60 71 -60
43 0 124 38 172 81 106 92 486 740 675 1149 289 622 539 1512 645 2295 11 78
24 130 45 175 17 36 30 58 30 50 2 -59 -22 -445 -35 -580 -49 -515 -256 -1351
-465 -1879 -27 -68 -49 -127 -49 -131 0 -4 37 4 83 17 45 13 141 33 212 44
195 30 183 23 136 74 -22 24 -45 61 -52 84 -11 37 -10 43 7 62 35 40 94 57
257 74 181 18 259 21 302 11 29 -6 32 -4 44 30 27 74 135 165 265 224 35 15
66 33 70 38 4 7 -20 13 -61 16 -104 10 -118 16 -117 54 l2 32 -132 -1 c-135 0
-196 10 -287 49 -53 23 -78 66 -60 100 18 33 57 55 216 119 192 78 280 105
457 142 156 32 178 39 178 51 0 5 -18 30 -40 55 -22 25 -43 57 -46 71 -11 45
26 104 138 218 99 102 115 126 85 126 -7 0 -18 4 -25 9 -11 7 -4 25 31 87 64
114 109 205 103 211 -2 3 -51 -13 -108 -35 -134 -52 -161 -57 -182 -37 -9 9
-16 23 -16 30 0 31 -23 22 -100 -38 -89 -71 -259 -171 -365 -217 -154 -65
-245 -18 -186 98 26 51 189 238 355 410 l140 143 -17 29 c-24 40 -22 55 23
136 28 51 40 85 40 113 0 22 11 70 25 107 14 36 25 70 25 75 0 13 -31 -2 -85
-42 -62 -45 -83 -52 -115 -35 -22 13 -27 11 -64 -20 -65 -56 -122 -78 -206
-82 -63 -2 -81 1 -115 20 -52 30 -85 93 -85 165 0 55 39 260 67 350 9 29 14
55 11 59 -3 3 -29 -4 -57 -17 -41 -17 -54 -19 -66 -9 -22 19 -19 23 30 44 26
10 62 37 84 63 150 170 43 432 -182 448 -29 2 -65 1 -82 -4z"/>
<path d="M3131 5021 c-61 -61 -74 -165 -27 -235 13 -21 13 -26 1 -36 -22 -19
-18 -34 16 -59 30 -22 31 -22 51 -4 16 14 33 17 78 15 97 -6 168 43 177 120 5
43 4 43 -33 57 -60 21 -120 69 -161 128 -20 29 -42 53 -50 53 -7 0 -31 -18
-52 -39z"/>
<path d="M2820 4464 c-69 -30 -110 -93 -110 -168 0 -58 14 -93 51 -132 l30
-31 -27 -88 -27 -88 34 -28 c19 -16 36 -29 39 -29 4 0 20 47 38 105 l32 105
36 0 c41 0 97 26 91 43 -62 169 -77 226 -68 270 4 26 6 49 3 52 -11 10 -88 4
-122 -11z"/>
<path d="M2477 3120 c-34 -40 -50 -94 -44 -142 3 -22 8 -42 11 -45 10 -10 196
-62 246 -69 45 -6 50 -5 50 12 -1 57 -77 149 -212 253 l-26 21 -25 -30z"/>
</g>
</svg>
