<?xml version="1.0" standalone="no"?>
<!DOCTYPE svg PUBLIC "-//W3C//DTD SVG 20010904//EN"
 "http://www.w3.org/TR/2001/REC-SVG-20010904/DTD/svg10.dtd">
<svg version="1.0" xmlns="http://www.w3.org/2000/svg"
 width="600.000000pt" height="600.000000pt" viewBox="0 0 600.000000 600.000000"
 preserveAspectRatio="xMidYMid meet">
<metadata>
Created by potrace 1.16, written by Peter Selinger 2001-2019
</metadata>
<g transform="translate(0.000000,600.000000) scale(0.100000,-0.100000)"
fill="#000000" stroke="none">
<path d="M3707 5456 c-21 -8 -47 -22 -58 -32 -23 -21 -69 -161 -69 -210 0 -35
-37 -118 -71 -163 -11 -13 -19 -37 -19 -53 0 -16 -6 -41 -14 -57 -8 -15 -25
-66 -39 -113 -17 -60 -39 -108 -74 -161 -32 -47 -55 -95 -62 -126 -6 -28 -24
-75 -40 -103 -17 -29 -41 -91 -54 -138 -35 -119 -57 -172 -72 -167 -6 3 -42 8
-79 12 l-68 8 5 41 c3 22 11 80 18 128 9 68 9 106 0 178 -12 81 -11 93 3 109
9 10 16 21 16 25 0 4 11 24 25 44 20 29 25 49 25 96 0 56 -2 61 -40 97 -29 28
-53 40 -96 49 -100 21 -156 -3 -219 -94 -35 -51 -40 -65 -40 -115 0 -43 7 -67
28 -103 25 -44 27 -53 27 -171 0 -68 -3 -165 -6 -215 l-7 -90 -62 -16 c-34 -8
-69 -18 -78 -22 -20 -7 -70 76 -93 154 -9 29 -34 85 -56 123 -22 39 -49 105
-60 147 -11 42 -37 115 -59 161 -31 67 -39 95 -39 142 0 46 -7 71 -35 125 -20
37 -46 82 -59 99 -17 22 -22 36 -15 46 16 25 10 108 -11 149 -29 56 -62 75
-134 75 -75 0 -111 -17 -149 -71 -56 -80 -40 -188 39 -265 19 -18 34 -41 34
-50 0 -10 10 -39 21 -66 35 -79 87 -240 95 -291 13 -87 148 -389 235 -528 21
-33 39 -65 39 -70 -1 -5 -20 -23 -44 -41 l-43 -31 -40 26 c-22 15 -117 104
-211 199 -168 167 -172 172 -172 213 0 54 -24 104 -58 120 -15 7 -52 14 -82
17 -49 4 -59 2 -92 -24 -65 -49 -102 -164 -78 -238 13 -38 71 -95 98 -95 10 0
65 -48 122 -106 58 -58 134 -128 170 -156 36 -28 88 -74 117 -101 l51 -49 -28
-60 c-16 -33 -31 -62 -34 -65 -5 -6 -85 38 -125 69 -13 10 -42 23 -65 29 -54
14 -140 55 -196 94 -25 18 -129 70 -232 116 -159 72 -188 88 -193 109 -8 34
-71 99 -113 117 -31 13 -43 12 -107 -2 -86 -19 -118 -45 -134 -110 -16 -62
-14 -90 9 -134 29 -57 74 -91 121 -91 62 0 430 -164 521 -232 110 -83 195
-136 231 -143 18 -4 48 -17 67 -29 19 -12 61 -33 93 -45 31 -13 57 -27 57 -31
0 -35 -83 -49 -325 -53 -92 -2 -134 1 -179 15 -32 10 -72 18 -87 18 -16 0 -37
8 -47 18 -61 61 -135 70 -209 27 -23 -14 -43 -28 -43 -32 0 -9 66 -100 139
-190 54 -68 69 -81 87 -77 13 3 55 0 96 -7 40 -7 172 -15 293 -18 l220 -6 12
-36 c6 -20 14 -51 18 -70 6 -32 4 -35 -42 -61 -26 -14 -66 -30 -87 -34 -45 -8
-186 -71 -186 -82 0 -9 204 -146 243 -163 25 -11 36 -9 109 27 60 29 82 36 86
26 2 -7 15 -25 27 -40 l24 -27 -36 -37 -37 -38 66 -29 c177 -80 434 -148 608
-161 207 -14 535 15 683 60 l68 21 -38 69 -38 70 19 32 c11 18 30 52 43 74 30
54 65 235 65 344 0 47 -9 134 -20 193 -17 90 -28 121 -67 186 -85 145 -182
214 -368 260 -80 19 -97 20 -175 10 -48 -6 -109 -21 -137 -33 -72 -33 -205
-142 -205 -169 0 -12 -11 -44 -25 -72 -23 -46 -24 -57 -18 -150 7 -124 29
-187 91 -260 62 -74 95 -93 199 -116 137 -30 174 -26 336 33 15 6 35 24 43 40
21 41 31 198 14 238 -15 35 -100 115 -147 138 -29 14 -36 14 -77 -2 -100 -38
-116 -127 -26 -149 52 -13 90 -45 90 -76 0 -37 -10 -44 -97 -70 -92 -27 -101
-27 -156 10 -72 47 -101 125 -78 203 5 17 14 49 20 72 6 22 24 59 40 82 39 54
101 72 242 72 93 0 109 -3 159 -27 70 -35 147 -109 155 -148 3 -16 13 -43 21
-60 24 -45 34 -126 24 -192 -5 -32 -14 -89 -20 -127 -13 -89 -32 -127 -88
-179 -25 -23 -57 -54 -71 -68 -34 -35 -101 -68 -160 -79 -25 -5 -71 -14 -101
-21 -52 -10 -61 -9 -178 30 -151 50 -176 63 -229 114 -24 22 -54 46 -67 51
-36 16 -113 113 -120 151 -4 18 -15 44 -25 56 -10 13 -26 47 -35 76 -15 46
-16 68 -7 175 25 300 39 338 170 469 81 81 110 103 181 137 100 47 261 90 374
98 197 15 353 -44 498 -189 81 -80 159 -180 191 -243 24 -47 38 -134 44 -269
4 -109 2 -130 -22 -220 -15 -54 -33 -113 -40 -129 -32 -74 -55 -167 -55 -217
0 -47 4 -59 28 -82 l28 -27 41 34 40 35 88 -50 c49 -27 94 -49 102 -49 16 0
218 100 275 136 50 32 42 44 -55 74 -89 28 -267 101 -267 109 0 3 11 35 24 71
l24 65 53 -1 c215 -6 321 -26 436 -80 l74 -35 47 40 c26 22 85 78 132 125 84
86 85 87 70 113 -29 52 -61 61 -250 72 -96 6 -200 15 -230 21 -30 5 -108 9
-172 8 -64 -2 -119 -1 -121 2 -3 3 -7 45 -8 95 l-4 89 65 24 c36 13 88 27 115
32 44 6 222 78 250 100 6 4 26 10 46 14 20 3 88 29 151 56 64 28 128 50 143
50 14 0 34 4 43 9 11 6 43 3 88 -6 66 -15 75 -14 127 2 110 35 150 79 151 167
0 86 -70 154 -171 166 -53 6 -178 -27 -281 -74 -42 -19 -104 -39 -138 -43 -34
-5 -83 -19 -109 -30 -26 -11 -101 -37 -167 -57 -67 -20 -184 -62 -261 -95 -77
-32 -141 -59 -143 -59 -1 0 -20 33 -43 74 l-40 74 90 89 c50 48 109 113 132
143 23 30 74 92 114 136 60 66 80 82 109 87 55 9 81 41 110 131 39 125 21 195
-55 216 -43 11 -111 1 -161 -25 -28 -14 -91 -99 -104 -140 -4 -11 -47 -51 -97
-90 -49 -38 -118 -101 -152 -140 -34 -38 -86 -95 -115 -126 l-53 -57 -65 44
c-36 24 -69 44 -74 44 -5 0 0 19 10 43 10 23 21 66 24 95 2 29 13 65 22 80 10
15 19 43 20 62 2 49 48 145 95 198 21 25 39 55 39 68 0 13 11 44 25 70 14 26
25 55 25 64 0 10 11 42 25 71 13 30 31 86 39 125 20 93 43 141 72 148 13 4 44
34 70 68 65 83 70 136 25 232 -22 45 -41 71 -61 81 -36 18 -112 19 -163 1z"/>
<path d="M771 3228 c-39 -197 -40 -557 -2 -768 85 -480 293 -882 631 -1220
364 -364 825 -588 1340 -650 128 -15 420 -12 562 6 491 63 941 287 1298 644
431 431 660 987 660 1601 0 143 -21 374 -39 421 -6 16 -20 0 -73 -84 -186
-288 -433 -540 -723 -737 -729 -494 -1655 -576 -2466 -216 -441 196 -842 540
-1103 948 -38 59 -70 107 -72 107 -1 0 -7 -24 -13 -52z"/>
</g>
</svg>
