<?xml version="1.0" standalone="no"?>
<!DOCTYPE svg PUBLIC "-//W3C//DTD SVG 20010904//EN"
 "http://www.w3.org/TR/2001/REC-SVG-20010904/DTD/svg10.dtd">
<svg version="1.0" xmlns="http://www.w3.org/2000/svg"
 width="1875.000000pt" height="1875.000000pt" viewBox="0 0 1875.000000 1875.000000"
 preserveAspectRatio="xMidYMid meet">
<metadata>
Created by potrace 1.16, written by Peter Selinger 2001-2019
</metadata>
<g transform="translate(0.000000,1875.000000) scale(0.100000,-0.100000)"
fill="#000000" stroke="none">
<path d="M8544 17205 c-76 -78 -213 -260 -285 -375 -105 -169 -158 -305 -203
-524 -30 -143 -52 -206 -71 -206 -17 0 -139 80 -277 182 -247 183 -290 206
-349 189 -53 -16 -120 -95 -158 -185 -111 -267 -143 -719 -67 -936 88 -250
180 -492 212 -557 57 -115 177 -289 320 -467 253 -311 307 -384 461 -613 l155
-232 39 -522 c21 -288 37 -524 35 -527 -9 -9 -182 202 -782 953 -61 77 -144
176 -183 219 -114 125 -387 492 -430 578 -18 36 -333 345 -475 467 -279 239
-418 318 -702 397 -269 75 -384 119 -523 201 -282 167 -422 203 -824 210 -354
7 -626 -21 -792 -81 -79 -29 -105 -50 -105 -86 0 -104 304 -372 634 -559 142
-80 259 -173 495 -394 106 -99 219 -189 334 -266 90 -61 373 -204 562 -284
281 -120 1273 -610 1645 -812 554 -302 929 -555 1056 -712 59 -72 83 -145 104
-313 17 -134 37 -450 29 -450 -2 0 -42 7 -89 15 -47 8 -109 15 -138 15 -56 0
-62 -6 -76 -72 -17 -77 -101 11 -180 188 -206 460 -547 967 -857 1275 -153
152 -265 216 -330 188 -56 -23 -134 -156 -177 -304 -12 -38 -41 -162 -66 -275
-49 -219 -101 -428 -110 -437 -2 -3 -114 -29 -248 -58 -461 -100 -656 -160
-903 -279 -314 -151 -646 -389 -892 -638 -141 -142 -231 -251 -269 -326 -33
-64 -24 -94 34 -120 32 -15 73 -17 297 -17 277 1 407 11 600 50 188 37 286 53
485 75 372 42 617 108 900 240 85 40 188 87 229 106 l74 33 17 -22 c9 -12 86
-128 170 -257 298 -459 408 -598 689 -880 257 -256 384 -390 479 -504 81 -97
156 -207 167 -245 7 -23 6 -24 -41 -18 -27 3 -83 16 -124 28 -102 30 -400 38
-570 16 -322 -42 -601 -136 -795 -267 -157 -106 -253 -228 -390 -491 -164
-318 -213 -534 -146 -643 58 -93 218 -62 526 100 148 77 253 123 415 179 179
61 259 95 487 201 110 52 214 97 231 100 23 5 36 0 66 -26 20 -18 36 -38 36
-46 0 -9 -52 -39 -127 -74 -210 -100 -255 -153 -256 -304 -1 -99 25 -168 85
-222 63 -56 119 -77 224 -82 103 -5 155 7 278 63 42 19 81 35 86 35 23 0 88
-327 97 -490 6 -103 5 -106 -21 -137 -17 -20 -46 -38 -79 -49 -202 -66 -274
-161 -247 -328 6 -37 8 -76 5 -86 -7 -22 -42 -34 -142 -50 -149 -24 -275 -120
-308 -235 -21 -72 -9 -118 61 -217 30 -43 54 -81 54 -86 0 -5 -21 -27 -47 -48
-111 -91 -181 -203 -190 -304 -7 -75 0 -101 40 -146 41 -47 90 -69 224 -99 59
-13 114 -32 122 -40 15 -15 14 -18 -6 -34 -12 -10 -68 -37 -125 -60 -57 -23
-125 -58 -153 -79 -92 -70 -134 -173 -115 -288 25 -151 140 -209 397 -197 152
8 157 6 184 -67 29 -81 75 -131 151 -165 56 -26 74 -29 158 -29 75 1 112 6
175 27 44 15 88 27 97 27 28 0 30 -37 58 -850 11 -316 27 -737 35 -935 13
-308 45 -1251 45 -1323 0 -22 2 -23 48 -16 64 9 231 50 239 58 4 4 10 507 15
1119 7 1067 14 1337 37 1360 16 16 13 43 -4 57 -8 7 -22 36 -30 64 -35 121
-86 560 -105 911 -30 548 -36 588 -85 615 -52 28 -85 126 -85 254 0 97 0 97
186 107 219 10 303 38 381 122 62 67 76 131 48 224 -14 48 -52 105 -145 216
-22 27 -40 52 -40 57 0 4 19 10 42 13 111 15 287 144 336 248 31 63 28 104
-15 217 -63 163 -136 212 -320 212 -142 0 -253 -38 -409 -140 -42 -27 -80 -47
-85 -44 -5 3 -9 111 -9 240 0 232 -5 274 -34 274 -46 0 -101 143 -63 167 6 4
100 8 207 9 214 2 273 13 330 60 39 33 48 51 60 115 22 114 -30 262 -119 341
-89 78 -200 121 -370 143 -182 24 -188 29 -179 153 5 74 30 132 84 198 43 52
43 64 0 64 -19 0 -37 4 -40 9 -4 5 11 31 32 58 47 58 211 213 226 213 15 -1
32 -26 143 -208 234 -385 406 -606 698 -897 431 -431 947 -785 1506 -1033 368
-164 621 -233 747 -202 82 19 87 30 87 184 0 146 -12 218 -62 386 -93 311
-267 645 -523 1007 -116 163 -176 260 -168 268 11 11 440 -120 668 -204 74
-27 171 -63 215 -79 162 -61 1028 -290 1235 -327 110 -20 467 -32 520 -18 20
5 36 17 38 27 5 25 -59 103 -205 250 -205 207 -332 310 -506 410 -138 79 -236
129 -652 331 -71 35 -186 101 -255 146 -146 97 -278 162 -382 188 -214 55
-1206 173 -1603 191 -215 10 -299 21 -348 47 -40 20 -30 42 30 62 29 10 76 34
105 53 174 116 439 402 505 546 34 72 27 96 -34 116 -180 57 -632 68 -882 21
-183 -35 -335 -106 -534 -249 -129 -93 -215 -136 -283 -143 -61 -6 -104 13
-104 48 0 95 362 552 778 982 190 196 357 382 436 487 149 196 249 291 322
306 28 5 36 1 79 -50 27 -31 94 -121 150 -201 111 -159 275 -357 336 -406 59
-47 191 -209 284 -350 206 -314 573 -659 990 -931 275 -180 533 -270 595 -208
30 30 66 108 81 175 23 100 15 327 -15 465 -136 625 -178 785 -246 940 -48
110 -83 164 -115 178 -45 20 -244 290 -230 311 3 6 15 11 27 11 37 0 238 -48
478 -115 288 -80 546 -139 704 -160 216 -30 316 -64 651 -222 244 -116 470
-211 596 -251 182 -58 529 -84 537 -40 7 38 -168 365 -313 583 -280 422 -802
825 -1235 951 -51 15 -132 29 -204 34 -66 6 -121 12 -124 15 -27 27 112 68
788 234 585 144 852 228 920 291 54 50 42 65 -125 148 -204 102 -515 221 -710
273 -145 39 -342 75 -489 90 -153 15 -635 6 -841 -16 -196 -20 -524 -62 -650
-81 -289 -45 -716 -173 -1099 -328 -100 -41 -191 -77 -203 -80 -21 -7 -19 3
32 151 65 187 90 297 105 453 13 131 7 220 -21 370 -40 208 -63 226 -226 177
-29 -9 -53 -12 -53 -7 0 16 80 70 181 120 287 145 611 377 909 651 187 172
350 313 472 407 216 167 351 340 497 636 134 272 231 540 231 639 0 41 -3 48
-30 62 -47 24 -148 44 -283 56 -214 18 -341 -5 -698 -127 -648 -220 -943 -383
-1224 -672 -193 -199 -237 -260 -625 -857 -78 -121 -166 -249 -195 -285 -86
-107 -154 -215 -200 -318 -150 -339 -624 -1323 -691 -1434 -58 -97 -102 -151
-137 -170 -32 -18 -87 -24 -87 -10 0 26 63 225 235 737 252 751 275 842 312
1205 22 219 25 784 5 930 -50 371 -157 676 -335 957 -127 200 -276 377 -349
414 -21 10 -56 19 -80 19 -39 0 -47 -5 -104 -65z m441 -4662 c-36 -103 -163
-375 -204 -438 l-33 -50 6 66 c11 138 126 420 198 485 58 52 68 34 33 -63z
m-260 -895 c-29 -229 -69 -423 -85 -413 -31 19 21 362 76 513 9 24 18 41 21
38 3 -3 -2 -65 -12 -138z m-515 -465 c28 -25 61 -68 77 -100 41 -85 44 -243
10 -448 -34 -197 -47 -372 -47 -634 0 -138 -4 -210 -10 -200 -5 9 -21 103 -35
210 -54 403 -155 1055 -190 1217 -8 40 -15 75 -15 78 0 14 167 -84 210 -123z
m424 -1329 c28 -52 27 -138 -2 -231 -26 -85 -119 -283 -133 -283 -13 0 -11 70
6 185 28 186 78 379 97 373 7 -3 21 -22 32 -44z"/>
</g>
</svg>
