<?xml version="1.0" standalone="no"?>
<!DOCTYPE svg PUBLIC "-//W3C//DTD SVG 20010904//EN"
 "http://www.w3.org/TR/2001/REC-SVG-20010904/DTD/svg10.dtd">
<svg version="1.0" xmlns="http://www.w3.org/2000/svg"
 width="120.000000pt" height="120.000000pt" viewBox="0 0 120.000000 120.000000"
 preserveAspectRatio="xMidYMid meet">
<metadata>
Created by potrace 1.16, written by Peter Selinger 2001-2019
</metadata>
<g transform="translate(0.000000,120.000000) scale(0.100000,-0.100000)"
fill="#000000" stroke="none">
<path d="M795 1046 c-70 -31 -123 -128 -110 -205 5 -33 2 -40 -40 -81 -25 -24
-45 -49 -45 -55 0 -13 102 -115 116 -115 5 0 29 20 53 44 42 42 44 43 105 43
73 -1 113 18 159 76 25 30 32 49 35 97 7 101 1 103 -76 27 l-68 -67 -52 53
-52 53 65 64 c35 35 62 67 59 72 -8 13 -116 9 -149 -6z"/>
<path d="M231 984 c-17 -14 -31 -32 -31 -41 0 -27 60 -102 108 -134 26 -18
113 -98 195 -178 115 -114 146 -149 141 -164 -5 -15 23 -49 127 -153 84 -84
143 -136 160 -139 31 -7 83 16 93 40 19 49 8 67 -131 207 -88 89 -144 138
-155 136 -25 -4 -250 211 -320 306 -34 47 -78 92 -107 112 l-50 34 -30 -26z"/>
<path d="M446 561 c-48 -48 -51 -50 -103 -48 -49 2 -57 -1 -79 -26 -17 -20
-23 -35 -18 -50 5 -15 0 -26 -19 -41 -52 -44 -117 -230 -88 -259 4 -4 47 38
95 93 48 55 92 98 97 94 7 -4 1 -17 -13 -33 -66 -71 -148 -168 -148 -174 0 -3
13 -8 29 -12 23 -5 44 4 116 49 48 30 93 66 99 78 7 13 21 23 31 23 11 1 33 9
48 20 25 16 28 23 26 66 -3 46 -1 50 50 100 l53 52 -58 58 c-32 33 -61 59 -64
59 -3 0 -28 -22 -54 -49z"/>
</g>
</svg>
