<?xml version="1.0" standalone="no"?>
<!DOCTYPE svg PUBLIC "-//W3C//DTD SVG 20010904//EN"
 "http://www.w3.org/TR/2001/REC-SVG-20010904/DTD/svg10.dtd">
<svg version="1.0" xmlns="http://www.w3.org/2000/svg"
 width="375.000000pt" height="375.000000pt" viewBox="0 0 375.000000 375.000000"
 preserveAspectRatio="xMidYMid meet">
<metadata>
Created by potrace 1.16, written by Peter Selinger 2001-2019
</metadata>
<g transform="translate(0.000000,375.000000) scale(0.100000,-0.100000)"
fill="#000000" stroke="none">
<path d="M1150 3412 c-131 -137 -203 -345 -204 -592 0 -151 20 -250 73 -365
66 -141 167 -227 343 -296 48 -19 88 -37 88 -40 0 -13 -91 -29 -167 -29 -228
0 -457 185 -503 406 -5 27 -14 98 -19 157 -5 60 -12 112 -16 115 -10 11 -42
-36 -93 -137 l-47 -94 1 -121 c1 -135 19 -202 85 -312 80 -132 264 -250 488
-312 l105 -29 -55 -13 c-70 -17 -139 -16 -218 5 -68 17 -206 84 -281 134 -66
45 -74 42 -67 -28 7 -85 63 -197 126 -252 109 -98 218 -139 422 -161 l107 -11
157 52 c148 49 159 52 203 41 26 -6 54 -12 62 -13 20 -3 74 108 90 184 17 78
8 209 -19 279 -11 30 -48 100 -82 155 -33 55 -65 108 -70 117 -11 21 258 -107
356 -170 240 -153 482 -413 590 -636 71 -145 97 -262 99 -433 0 -79 3 -143 5
-143 2 0 29 8 59 17 44 14 66 30 115 83 62 67 144 184 166 237 11 28 9 43 -23
142 -46 141 -47 200 -6 312 16 45 43 106 61 137 54 96 60 149 66 560 6 405 1
463 -44 540 -37 65 -217 247 -266 270 -57 26 -235 72 -280 72 -32 0 -37 -3
-37 -22 1 -34 30 -94 121 -245 84 -139 129 -241 129 -294 0 -34 -31 -100 -68
-144 -31 -37 -101 -90 -212 -160 -83 -52 -86 -53 -133 -44 -50 9 -90 41 -310
249 -137 130 -210 261 -266 482 -28 111 -61 307 -61 367 0 81 -73 25 -134
-102 -83 -172 -115 -382 -81 -531 20 -93 62 -195 116 -284 22 -36 37 -67 35
-69 -11 -11 -119 31 -174 67 -155 104 -234 240 -267 458 -23 153 -16 313 21
485 10 45 -15 33 -86 -41z"/>
<path d="M1823 2083 c3 -10 18 -47 32 -82 91 -218 38 -428 -175 -696 -124
-155 -170 -278 -170 -454 0 -317 204 -552 500 -578 216 -19 425 99 543 307 90
158 113 456 52 664 -89 306 -407 666 -734 831 -47 23 -53 25 -48 8z m111 -700
c19 -117 -1 -232 -61 -345 -41 -79 -78 -114 -129 -124 -50 -9 -69 12 -68 76 1
66 49 160 123 242 58 63 111 147 111 174 0 30 18 12 24 -23z"/>
</g>
</svg>
