<?xml version="1.0" standalone="no"?>
<!DOCTYPE svg PUBLIC "-//W3C//DTD SVG 20010904//EN"
 "http://www.w3.org/TR/2001/REC-SVG-20010904/DTD/svg10.dtd">
<svg version="1.0" xmlns="http://www.w3.org/2000/svg"
 width="1875.000000pt" height="1875.000000pt" viewBox="0 0 1875.000000 1875.000000"
 preserveAspectRatio="xMidYMid meet">
<metadata>
Created by potrace 1.16, written by Peter Selinger 2001-2019
</metadata>
<g transform="translate(0.000000,1875.000000) scale(0.100000,-0.100000)"
fill="#000000" stroke="none">
<path d="M16845 15743 c-629 -78 -1397 -375 -2010 -778 -206 -135 -448 -335
-405 -335 8 0 168 36 355 79 187 43 341 78 343 76 3 -2 -396 -475 -557 -660
-131 -151 -345 -386 -604 -664 -120 -128 -216 -235 -213 -238 6 -6 98 24 256
82 587 219 1071 504 1491 880 185 166 282 276 704 800 260 323 494 529 799
702 l111 63 -120 -2 c-66 0 -133 -3 -150 -5z"/>
<path d="M14029 15107 c-31 -23 -117 -96 -190 -162 -502 -451 -1110 -834
-1877 -1181 -932 -423 -1546 -575 -3032 -749 -585 -69 -935 -131 -1410 -250
-330 -83 -755 -215 -1039 -324 -57 -21 -99 -36 -95 -31 19 16 285 190 394 257
177 107 303 179 580 328 246 133 425 240 450 271 7 7 10 14 7 14 -31 0 -379
-33 -437 -41 -98 -14 -434 -89 -630 -140 -1389 -365 -2452 -980 -2931 -1698
-71 -107 -198 -346 -188 -355 3 -3 68 19 145 50 667 265 1435 346 2084 218
316 -62 653 -179 965 -335 993 -498 1706 -1433 1899 -2489 38 -213 50 -340 50
-550 1 -547 -181 -1056 -554 -1550 -31 -41 -60 -80 -64 -87 -10 -17 111 -76
218 -107 253 -74 522 -48 771 74 342 167 581 432 655 726 10 40 11 41 63 48
28 3 73 6 99 6 63 0 260 26 383 51 655 131 1320 513 2063 1187 64 58 306 293
537 522 766 759 1168 1138 1350 1275 51 39 188 128 304 199 116 71 211 132
211 136 0 25 -293 16 -509 -16 -412 -61 -950 -213 -1363 -385 -65 -27 -120
-49 -123 -49 -3 0 39 73 94 163 157 260 223 374 501 872 349 625 490 869 558
964 216 301 521 554 917 761 153 80 200 111 183 121 -7 4 -44 11 -83 17 -301
46 -724 0 -1280 -139 -487 -122 -1158 -355 -1681 -585 -187 -82 -194 -85 -194
-80 0 2 96 91 213 197 507 459 691 643 944 939 217 254 558 700 696 910 175
266 300 553 376 858 39 157 44 182 34 182 -4 0 -33 -20 -64 -43z"/>
<path d="M11350 14713 c-273 -30 -655 -126 -1004 -253 -733 -267 -1328 -638
-1544 -963 -57 -86 -61 -97 -34 -97 37 0 719 121 905 161 730 155 1151 380
1455 776 64 83 156 175 287 288 44 38 87 75 95 82 12 11 3 13 -55 11 -39 0
-86 -3 -105 -5z"/>
<path d="M4745 10964 c-16 -2 -79 -9 -140 -15 -438 -43 -894 -176 -1280 -372
-595 -302 -1055 -776 -1374 -1414 -126 -253 -158 -349 -256 -782 -45 -200 -55
-261 -55 -336 l0 -92 86 -7 c371 -28 777 -236 960 -492 24 -33 62 -99 85 -147
33 -70 42 -101 48 -169 24 -272 -66 -525 -261 -733 -134 -143 -333 -236 -597
-276 -45 -7 -81 -16 -81 -19 0 -4 22 -97 49 -206 135 -545 349 -1244 558
-1824 80 -223 301 -788 327 -838 11 -21 30 9 263 415 139 241 256 438 262 438
5 0 194 -246 420 -547 378 -504 412 -547 433 -539 22 8 24 24 87 582 35 316
65 576 67 577 1 2 223 -197 493 -442 434 -395 494 -446 516 -440 l25 6 0 659
c0 362 2 659 5 659 3 0 85 -49 182 -109 98 -59 378 -230 622 -380 244 -149
446 -269 448 -267 6 6 -38 157 -122 416 -160 495 -251 887 -300 1295 -22 181
-31 561 -16 710 18 186 91 686 103 709 16 31 39 45 71 46 45 0 268 -59 311
-83 69 -38 81 -65 80 -170 -1 -51 -9 -157 -18 -237 -12 -101 -19 -263 -23
-530 -5 -377 -5 -387 17 -467 12 -46 25 -83 29 -83 4 0 70 55 146 123 106 93
187 179 348 367 591 694 774 966 891 1322 85 255 115 496 97 752 -38 519 -205
1009 -492 1447 -431 657 -1079 1132 -1864 1368 -308 92 -510 122 -855 126
-146 2 -278 1 -295 -1z m560 -2284 c255 -80 423 -270 502 -565 25 -93 27 -114
27 -315 1 -184 -2 -231 -22 -326 -109 -541 -419 -893 -867 -985 -86 -18 -274
-15 -378 5 -527 102 -922 521 -877 930 17 143 121 398 230 562 70 105 261 294
380 376 247 170 531 310 682 338 84 15 243 5 323 -20z m-1877 -2585 c12 -9 64
-66 116 -128 52 -62 149 -173 216 -247 262 -288 378 -424 489 -569 66 -87 70
-96 58 -115 -13 -19 -28 -22 -133 -28 -176 -11 -318 -24 -739 -68 -437 -46
-406 -44 -429 -27 -24 18 -23 68 4 234 29 181 72 349 145 568 89 269 122 351
152 375 31 24 89 26 121 5z"/>
<path d="M13495 7579 c-250 -25 -622 -104 -908 -193 -301 -94 -455 -168 -874
-417 -523 -312 -858 -500 -1436 -808 -147 -79 -269 -147 -272 -151 -18 -30
640 -34 880 -6 509 59 956 191 1399 413 171 85 286 152 569 330 467 293 523
327 661 398 280 145 578 243 824 271 34 3 62 10 62 14 0 12 -130 76 -200 98
-125 40 -228 54 -425 57 -104 2 -230 -1 -280 -6z"/>
</g>
</svg>
