<?xml version="1.0" standalone="no"?>
<!DOCTYPE svg PUBLIC "-//W3C//DTD SVG 20010904//EN"
 "http://www.w3.org/TR/2001/REC-SVG-20010904/DTD/svg10.dtd">
<svg version="1.0" xmlns="http://www.w3.org/2000/svg"
 width="1600.000000pt" height="1600.000000pt" viewBox="0 0 1600.000000 1600.000000"
 preserveAspectRatio="xMidYMid meet">
<metadata>
Created by potrace 1.16, written by Peter Selinger 2001-2019
</metadata>
<g transform="translate(0.000000,1600.000000) scale(0.100000,-0.100000)"
fill="#000000" stroke="none">
<path d="M10630 12123 c-743 -41 -1449 -163 -2190 -377 -2342 -674 -4525
-2162 -5229 -3564 -102 -203 -160 -360 -207 -557 -34 -147 -44 -423 -21 -560
46 -261 156 -465 362 -670 346 -346 907 -586 1545 -660 371 -43 737 -41 1590
9 228 14 474 27 545 30 l130 5 -75 -36 c-215 -103 -564 -222 -885 -302 -850
-211 -1753 -254 -2542 -121 -700 118 -1226 360 -1598 734 -227 229 -358 470
-426 786 -20 92 -23 134 -23 335 0 196 3 249 23 358 44 247 127 543 229 815
18 45 28 82 23 82 -5 0 -55 -63 -112 -140 -283 -381 -465 -772 -535 -1155 -15
-79 -19 -148 -19 -330 1 -201 4 -243 23 -335 35 -158 75 -270 152 -425 253
-505 699 -855 1395 -1095 632 -218 1498 -306 2300 -235 1635 145 3142 554
4490 1220 416 206 905 484 905 515 0 8 -53 51 -116 95 -172 119 -224 184 -244
308 -24 151 69 327 206 388 93 42 109 42 619 0 319 -26 496 -37 528 -32 36 6
59 18 90 47 125 116 200 192 213 217 11 20 29 174 60 499 24 258 49 489 55
512 25 95 106 187 207 234 48 23 71 27 147 27 76 0 99 -4 145 -26 70 -32 121
-77 162 -140 17 -27 35 -49 40 -49 14 0 149 288 202 428 164 435 165 802 3
1136 -148 304 -380 519 -762 706 -244 120 -470 197 -735 250 -449 91 -901 100
-1885 41 -275 -17 -540 -31 -590 -31 l-90 0 55 26 c182 86 525 207 785 278
940 255 2034 296 2881 106 591 -132 1031 -350 1360 -675 255 -252 402 -539
455 -890 15 -101 15 -382 0 -500 -32 -243 -114 -560 -221 -850 -28 -76 -48
-141 -45 -144 4 -3 9 -1 13 5 4 5 42 53 85 107 280 349 487 761 571 1137 35
160 46 261 46 431 0 429 -151 789 -460 1100 -182 182 -378 317 -651 448 -526
251 -1324 432 -2116 481 -153 9 -719 11 -863 3z m-740 -2103 c619 -77 1029
-393 1090 -842 8 -58 8 -99 0 -152 -82 -529 -474 -1053 -1095 -1461 -60 -39
-117 -76 -125 -80 -8 -5 41 53 110 129 261 289 410 474 498 618 234 382 224
671 -33 917 -62 60 -67 63 -103 57 -70 -13 -86 -33 -94 -122 -23 -245 -142
-520 -341 -784 -94 -125 -353 -383 -497 -494 -506 -391 -1144 -683 -1860 -852
-481 -114 -1048 -159 -1370 -110 -378 57 -675 186 -883 385 -172 164 -257 354
-243 542 37 515 421 1071 1021 1478 164 112 223 147 199 120 -499 -553 -649
-760 -734 -1009 -31 -91 -39 -273 -15 -356 28 -98 75 -174 161 -261 66 -68 86
-83 111 -83 42 0 95 38 104 75 4 17 19 86 34 155 55 257 145 474 272 653 79
111 319 350 483 481 716 570 1705 941 2683 1006 157 10 507 4 627 -10z"/>
<path d="M3876 11722 c-99 -191 -201 -388 -228 -439 l-49 -92 -441 220 c-242
121 -442 218 -445 216 -2 -3 112 -186 254 -408 143 -222 262 -409 266 -416 5
-7 -142 -109 -410 -285 -268 -175 -410 -274 -398 -276 11 -1 236 9 500 22 264
14 480 24 481 23 3 -3 54 -917 54 -954 0 -18 4 -33 8 -33 4 0 109 196 232 435
124 239 228 435 233 435 4 0 84 -38 177 -85 93 -47 175 -85 180 -85 9 0 182
133 229 176 12 10 -5 42 -103 194 -65 100 -119 187 -121 193 -2 7 89 73 203
147 464 303 614 404 602 408 -7 3 -228 -6 -491 -18 -264 -13 -482 -21 -484
-18 -3 3 -17 223 -32 489 -14 266 -29 487 -32 491 -4 4 -87 -149 -185 -340z"/>
<path d="M12236 8339 c-4 -24 -38 -383 -76 -798 -39 -415 -72 -757 -75 -759
-2 -2 -360 26 -795 63 -436 36 -794 64 -797 61 -6 -6 -35 15 693 -498 l612
-432 -53 -75 c-397 -569 -863 -1247 -857 -1249 5 -1 316 140 693 314 376 174
703 324 725 334 l42 18 337 -716 c186 -395 342 -721 346 -726 12 -14 15 13 88
822 38 420 71 766 73 768 3 2 350 -25 773 -61 423 -36 783 -65 799 -65 26 0
28 2 16 14 -8 8 -294 211 -635 451 -341 241 -628 446 -639 456 -18 17 -4 37
433 669 249 359 450 656 449 660 -2 5 -327 -142 -723 -326 -396 -183 -723
-333 -726 -334 -3 0 -158 323 -344 718 -185 394 -341 721 -345 726 -5 4 -11
-11 -14 -35z"/>
</g>
</svg>
