<?xml version="1.0" standalone="no"?>
<!DOCTYPE svg PUBLIC "-//W3C//DTD SVG 20010904//EN"
 "http://www.w3.org/TR/2001/REC-SVG-20010904/DTD/svg10.dtd">
<svg version="1.0" xmlns="http://www.w3.org/2000/svg"
 width="600.000000pt" height="600.000000pt" viewBox="0 0 600.000000 600.000000"
 preserveAspectRatio="xMidYMid meet">

<g transform="translate(0.000000,600.000000) scale(0.100000,-0.100000)"
fill="#000000" stroke="none">
<path d="M3362 5478 c-8 -8 -12 -48 -12 -113 0 -120 11 -146 56 -130 47 17 52
51 24 160 -24 96 -38 113 -68 83z"/>
<path d="M3658 5315 c-43 -42 -78 -84 -78 -94 0 -27 24 -43 62 -39 29 3 39 12
86 88 29 46 51 91 50 100 -7 36 -44 19 -120 -55z"/>
<path d="M3340 5103 c-60 -20 -99 -49 -106 -78 -4 -15 7 -48 31 -99 23 -46 35
-84 32 -96 -4 -17 -2 -20 16 -15 30 9 75 59 83 92 4 15 2 46 -4 70 -17 60 -15
103 5 125 21 23 6 23 -57 1z"/>
<path d="M3460 5099 c-35 -14 -38 -24 -28 -82 6 -29 8 -71 5 -95 l-5 -43 24
22 c26 24 49 88 60 162 6 42 4 47 -12 46 -11 0 -30 -5 -44 -10z"/>
<path d="M3676 5049 c-21 -16 -26 -28 -24 -53 4 -42 28 -43 148 -9 88 26 95
30 98 56 l3 27 -99 0 c-86 0 -103 -3 -126 -21z"/>
<path d="M3155 5031 c-46 -28 -85 -79 -85 -111 0 -22 13 -40 59 -80 33 -28 65
-65 72 -82 l13 -31 28 32 c42 47 39 103 -9 167 -22 28 -39 64 -43 86 l-5 38
-30 -19z"/>
<path d="M2993 4904 c-54 -77 -66 -133 -36 -166 9 -10 46 -27 83 -38 39 -12
76 -30 90 -45 29 -31 34 -31 48 0 30 66 9 110 -78 168 -48 31 -68 51 -76 76
l-11 34 -20 -29z"/>
<path d="M3560 4832 c-30 -24 -20 -55 23 -75 18 -8 58 -27 89 -42 62 -28 101
-30 106 -4 4 22 -141 139 -172 139 -13 0 -34 -8 -46 -18z"/>
<path d="M2871 4703 c-16 -55 -13 -115 5 -141 14 -20 23 -22 112 -22 66 0 106
-5 126 -15 15 -8 30 -15 32 -15 12 0 2 84 -12 106 -20 29 -63 54 -96 54 -42 0
-100 21 -125 46 -13 13 -26 24 -28 24 -2 0 -9 -17 -14 -37z"/>
<path d="M2840 4498 c0 -28 31 -56 76 -67 50 -13 199 2 210 21 3 5 -2 18 -12
29 -16 17 -29 19 -128 17 -61 -2 -119 1 -128 6 -13 6 -18 4 -18 -6z"/>
<path d="M2807 4330 c-239 -28 -267 -52 -267 -236 0 -95 0 -96 23 -90 201 54
563 62 792 18 55 -11 102 -18 104 -17 2 2 3 49 3 104 -1 155 -26 185 -166 208
-106 17 -390 24 -489 13z"/>
<path d="M2820 3947 c-3 -3 -34 -8 -70 -12 -152 -15 -363 -78 -538 -161 -545
-257 -911 -759 -986 -1353 -7 -52 -8 -336 -2 -371 2 -14 7 -52 11 -84 10 -84
67 -285 109 -386 134 -317 366 -594 656 -783 403 -262 910 -357 1385 -257 623
130 1132 579 1325 1169 58 179 73 276 74 496 1 230 -4 277 -44 434 -77 296
-215 541 -430 764 -206 215 -444 364 -730 457 -189 62 -305 81 -545 87 -115 3
-212 3 -215 0z m-301 -862 c112 -30 159 -61 317 -217 83 -82 158 -148 169
-148 10 0 85 66 169 149 159 156 205 188 313 216 73 19 143 19 216 0 105 -27
155 -61 283 -189 132 -132 170 -193 194 -310 22 -107 -7 -238 -74 -338 -20
-29 -268 -286 -553 -570 -454 -454 -522 -518 -548 -518 -27 0 -96 66 -567 538
-572 573 -570 571 -604 705 -27 102 -15 197 36 304 36 74 57 102 149 192 176
176 328 232 500 186z"/>
</g>
</svg>
