<?xml version="1.0" standalone="no"?>
<!DOCTYPE svg PUBLIC "-//W3C//DTD SVG 20010904//EN"
 "http://www.w3.org/TR/2001/REC-SVG-20010904/DTD/svg10.dtd">
<svg version="1.0" xmlns="http://www.w3.org/2000/svg"
 width="600.000000pt" height="600.000000pt" viewBox="0 0 600.000000 600.000000"
 preserveAspectRatio="xMidYMid meet">

<g transform="translate(0.000000,600.000000) scale(0.100000,-0.100000)"
fill="#000000" stroke="none">
<path d="M2711 5418 c-45 -55 -81 -101 -79 -103 1 -1 43 -26 91 -55 294 -172
607 -468 794 -750 88 -132 79 -128 -93 42 -202 200 -275 264 -414 362 -154
110 -429 246 -498 246 -10 0 -62 -55 -122 -127 -57 -71 -206 -252 -331 -403
-124 -151 -271 -331 -327 -400 l-100 -125 71 -75 c40 -41 176 -183 302 -315
219 -228 651 -681 665 -698 4 -5 70 36 146 91 578 411 957 612 1188 629 39 3
74 8 78 12 12 11 -37 209 -87 346 -84 234 -223 499 -365 699 -208 293 -503
556 -775 694 l-60 30 -84 -100z"/>
<path d="M1484 4004 c-148 -99 -259 -297 -280 -501 l-6 -52 104 -82 c56 -45
167 -125 245 -177 l143 -94 667 -677 c367 -372 798 -809 958 -971 281 -285
626 -643 810 -840 49 -52 97 -101 107 -108 29 -21 89 -22 128 -2 42 22 143
122 205 205 101 134 201 382 226 556 11 78 11 90 -4 113 -10 14 -29 29 -43 32
-14 4 -101 -1 -193 -10 -261 -25 -314 -20 -429 38 -65 33 -54 22 -833 816
-347 355 -683 697 -746 760 -63 63 -315 319 -561 568 -245 248 -449 452 -453
452 -3 0 -24 -12 -45 -26z"/>
</g>
</svg>
