<?xml version="1.0" standalone="no"?>
<!DOCTYPE svg PUBLIC "-//W3C//DTD SVG 20010904//EN"
 "http://www.w3.org/TR/2001/REC-SVG-20010904/DTD/svg10.dtd">
<svg version="1.0" xmlns="http://www.w3.org/2000/svg"
 width="600.000000pt" height="600.000000pt" viewBox="0 0 600.000000 600.000000"
 preserveAspectRatio="xMidYMid meet">

<g transform="translate(0.000000,600.000000) scale(0.100000,-0.100000)"
fill="#000000" stroke="none">
<path d="M2450 5433 c-36 -24 -46 -41 -71 -108 -29 -80 -32 -82 -90 -90 -49
-7 -49 -7 -93 42 -43 47 -45 48 -102 48 l-59 0 -189 -145 c-104 -79 -197 -158
-207 -175 -25 -40 -24 -89 3 -136 l22 -39 -21 -22 c-20 -20 -25 -20 -82 -8
-76 16 -120 8 -155 -29 -24 -25 -36 -63 -86 -266 -31 -130 -55 -248 -52 -263
9 -51 48 -90 107 -108 l55 -15 0 -55 c0 -50 -2 -55 -27 -65 -62 -25 -77 -35
-95 -64 -22 -37 -23 -90 0 -178 l17 -68 64 76 c35 42 105 118 157 170 87 89
91 95 68 101 -35 9 -33 48 5 64 60 24 71 47 127 276 30 119 54 235 54 258 l0
42 40 -4 c61 -6 80 2 179 78 50 38 133 102 183 141 101 77 128 109 128 152 0
30 15 35 41 11 35 -31 441 -174 496 -174 24 0 50 8 64 19 35 27 49 16 49 -38
0 -38 10 -64 51 -136 28 -50 54 -94 58 -98 5 -4 42 -7 84 -5 l77 3 -35 58
c-19 32 -35 60 -35 63 0 2 13 4 29 4 20 0 37 9 55 31 30 35 32 53 12 92 -8 15
-10 27 -5 27 11 0 42 -47 124 -192 l60 -106 45 -5 c25 -3 60 -9 79 -13 32 -7
34 -6 29 17 -2 14 -58 116 -122 228 -86 148 -127 208 -150 222 -46 28 -100 24
-164 -12 l-54 -30 -45 37 c-36 29 -43 41 -38 58 26 76 10 149 -38 180 -43 28
-446 166 -484 166 -21 0 -50 -8 -63 -17z m268 -189 l99 -35 -28 -29 c-36 -35
-39 -88 -9 -115 11 -10 18 -20 16 -23 -3 -2 -52 13 -111 34 l-105 38 30 24
c25 19 30 31 30 64 0 25 -7 49 -17 60 -21 24 -20 24 95 -18z m-682 -172 c5
-26 63 -56 88 -46 37 14 9 -16 -72 -76 -48 -36 -89 -66 -92 -68 -3 -1 -4 15
-2 36 5 47 -20 81 -66 90 l-32 7 82 63 c78 60 83 62 86 40 1 -13 5 -33 8 -46z
m-412 -618 c-16 -60 -29 -110 -30 -112 -1 -2 -13 8 -27 22 -50 50 -135 23
-138 -43 -1 -18 -3 -21 -6 -8 -3 10 8 70 23 132 l28 115 21 -20 c32 -30 95
-27 125 5 13 14 25 23 27 21 2 -2 -8 -53 -23 -112z"/>
<path d="M3318 4664 c-45 -24 -35 -40 29 -47 32 -3 58 -5 60 -4 1 2 -7 17 -17
35 -22 36 -32 38 -72 16z"/>
<path d="M2950 4520 c-315 -39 -625 -142 -874 -290 -334 -200 -641 -511 -859
-872 -113 -189 -287 -552 -287 -601 0 -26 15 -21 92 33 39 28 72 49 74 47 1
-1 -13 -58 -32 -127 -47 -172 -82 -343 -91 -442 -15 -170 -6 -191 45 -111 17
26 47 64 66 82 l36 35 0 -160 c0 -237 21 -433 47 -441 6 -2 32 39 57 92 26 53
51 93 56 90 5 -3 23 -30 40 -60 38 -66 121 -175 209 -273 76 -86 238 -225 254
-219 7 2 28 35 47 74 85 171 202 265 383 309 83 21 84 28 18 126 -193 288
-292 666 -261 990 48 496 337 986 740 1253 253 167 524 267 918 339 74 13 136
26 138 29 9 8 -188 66 -281 83 -107 19 -426 27 -535 14z"/>
<path d="M3506 4275 c-59 -13 -142 -34 -183 -46 l-75 -23 6 -120 c17 -349 23
-380 80 -416 19 -11 47 -20 64 -20 30 0 42 -14 42 -48 0 -9 -18 -27 -41 -40
-48 -28 -79 -75 -79 -121 0 -42 196 -431 239 -475 36 -35 103 -46 148 -23 28
15 31 15 50 -5 l21 -20 -24 -36 c-28 -41 -33 -115 -9 -150 35 -49 354 -330
388 -341 46 -15 104 -1 137 34 28 30 37 31 68 7 22 -17 23 -22 14 -55 -13 -46
0 -96 30 -124 13 -11 114 -68 226 -127 177 -92 210 -106 252 -106 38 0 55 6
80 26 43 37 130 212 130 262 0 73 -25 94 -255 213 -179 93 -217 109 -257 109
-39 0 -54 -6 -83 -31 -29 -26 -38 -29 -50 -19 -8 7 -12 17 -8 23 9 15 4 86 -8
108 -5 10 -90 92 -188 183 -190 175 -216 190 -281 168 -35 -13 -35 -13 -15 24
28 53 18 82 -99 309 -120 232 -138 255 -201 255 -29 0 -29 1 12 19 52 24 75
59 76 114 2 75 -14 370 -23 430 -15 98 -16 98 -184 62z m67 -350 c4 -67 2 -81
-5 -55 -18 68 -87 92 -142 49 l-26 -20 0 48 c0 26 -3 73 -7 103 l-6 54 28 -22
c37 -29 80 -28 110 3 14 13 26 30 26 37 3 23 16 -104 22 -197z m125 -583 l51
-99 -44 1 c-53 1 -75 -17 -85 -71 l-6 -38 -47 92 c-26 51 -47 94 -47 96 0 3
11 2 25 -1 13 -2 35 -2 47 1 31 8 62 61 54 93 -4 13 -5 24 -3 24 3 0 27 -44
55 -98z m390 -514 c37 -35 86 -80 110 -100 23 -21 42 -40 42 -43 0 -3 -13 -5
-29 -5 -43 0 -74 -43 -68 -92 l5 -38 -24 19 c-35 28 -144 129 -144 134 0 3 11
8 25 11 49 12 64 80 29 132 -44 65 -31 60 54 -18z m810 -511 c18 -14 15 -58
-8 -94 -36 -59 -48 -59 -165 -1 -58 29 -105 56 -105 60 0 5 11 8 23 8 47 0 74
59 53 118 -7 22 1 19 91 -29 54 -29 104 -57 111 -62z"/>
<path d="M2086 2947 c-21 -108 -32 -247 -19 -247 5 0 20 11 33 25 26 28 31 29
81 15 32 -9 35 -13 36 -46 1 -39 24 -76 64 -106 22 -16 136 -34 334 -52 28 -2
80 -8 116 -11 74 -8 112 5 147 50 16 20 25 23 42 17 17 -6 23 -17 24 -49 1
-22 10 -52 19 -67 20 -29 333 -292 380 -318 17 -10 46 -18 63 -18 40 0 53 -27
24 -47 -28 -20 -50 -66 -50 -105 0 -33 147 -439 174 -481 15 -22 14 -22 -29
-22 -76 -1 -91 -20 -172 -220 -40 -98 -82 -206 -94 -241 l-21 -62 -32 13 c-85
36 -422 145 -446 145 -15 0 -44 -11 -64 -25 -20 -14 -38 -25 -40 -25 -2 0 -58
32 -124 70 -130 76 -171 85 -213 51 -18 -14 -23 -28 -23 -61 0 -52 1 -53 168
-149 69 -40 126 -77 126 -83 0 -6 -5 -27 -11 -47 -14 -49 7 -109 48 -137 47
-31 444 -164 492 -164 65 0 100 39 140 155 45 130 54 135 178 88 106 -41 148
-39 193 5 28 29 200 449 200 490 0 41 -28 90 -64 114 -27 18 -34 28 -30 43 9
27 24 45 39 45 30 0 145 60 160 84 37 56 31 88 -54 315 -45 118 -88 225 -96
238 -25 38 -72 56 -127 50 l-49 -6 -21 44 -22 45 22 27 c46 58 55 75 59 116 3
30 -1 51 -16 73 -25 41 -361 316 -403 330 -52 18 -96 6 -138 -37 l-38 -39 -66
20 -66 21 0 56 c0 51 -3 58 -37 93 -43 42 -31 40 -327 70 -153 16 -206 18
-232 10 -31 -11 -64 -42 -90 -85 -10 -18 -11 -18 -30 3 -10 12 -35 41 -54 66
-19 25 -38 45 -41 45 -4 1 -14 -37 -23 -82z m449 -92 c65 -8 124 -15 129 -15
5 0 -2 -13 -17 -28 -33 -34 -35 -79 -6 -116 11 -14 17 -26 12 -26 -14 0 -175
20 -211 26 l-33 5 21 26 c25 33 26 73 0 106 -18 22 -25 37 -17 37 1 0 56 -7
122 -15z m813 -311 c64 -53 118 -99 120 -103 1 -4 -13 -5 -32 -3 -43 5 -86
-32 -86 -74 0 -36 -10 -31 -135 73 l-107 88 35 3 c45 4 86 48 82 86 -2 14 -1
26 2 26 2 0 57 -43 121 -96z m389 -666 c12 -35 24 -70 28 -79 4 -12 -1 -14
-29 -11 -45 5 -75 -12 -92 -55 -9 -19 -17 -33 -19 -31 -2 2 -18 41 -34 86 -28
74 -29 81 -12 72 48 -25 121 8 121 56 0 41 14 27 37 -38z m-202 -672 c26 -28
81 -36 103 -14 19 19 14 -3 -21 -89 l-32 -81 -17 29 c-24 41 -61 56 -101 41
-17 -6 -32 -10 -34 -9 -1 2 14 46 35 97 24 60 38 87 40 73 2 -12 14 -33 27
-47z m-573 -292 c56 -20 104 -37 106 -39 2 -1 -11 -16 -28 -33 -34 -35 -39
-74 -13 -112 13 -18 13 -22 2 -18 -8 2 -71 24 -141 49 -71 24 -128 47 -128 51
0 5 13 8 29 8 43 0 74 43 68 93 -3 20 -4 37 -2 37 2 0 50 -16 107 -36z"/>
<path d="M2165 1576 c-108 -34 -195 -110 -242 -211 -24 -52 -28 -72 -28 -155
0 -83 4 -103 28 -155 35 -76 105 -148 182 -188 56 -30 66 -32 165 -31 87 0
113 4 155 23 99 44 98 47 -12 112 -82 49 -106 58 -146 59 -101 0 -177 78 -177
180 0 50 15 88 48 123 40 42 75 57 133 57 89 0 154 -54 183 -151 2 -9 44 -39
93 -67 105 -61 108 -59 100 62 -8 122 -51 203 -149 282 -80 64 -233 92 -333
60z"/>
</g>
</svg>
