<?xml version="1.0" standalone="no"?>
<!DOCTYPE svg PUBLIC "-//W3C//DTD SVG 20010904//EN"
 "http://www.w3.org/TR/2001/REC-SVG-20010904/DTD/svg10.dtd">
<svg version="1.0" xmlns="http://www.w3.org/2000/svg"
 width="600.000000pt" height="600.000000pt" viewBox="0 0 600.000000 600.000000"
 preserveAspectRatio="xMidYMid meet">

<g transform="translate(0.000000,600.000000) scale(0.100000,-0.100000)"
fill="#000000" stroke="none">
<path d="M1010 5437 c-116 -35 -196 -83 -280 -167 -126 -125 -190 -279 -190
-455 0 -188 57 -322 190 -455 136 -137 262 -189 454 -190 186 0 335 60 461
185 125 125 185 274 185 461 0 175 -54 313 -171 439 -76 81 -148 128 -252 167
-71 27 -98 31 -202 35 -103 3 -131 0 -195 -20z m413 -180 c96 -44 199 -156
238 -258 30 -79 11 -78 -40 3 -26 40 -65 88 -86 107 -53 46 -152 89 -244 107
-82 16 -99 29 -73 57 24 27 129 19 205 -16z"/>
<path d="M2220 4994 c-126 -167 -232 -413 -256 -595 -4 -27 -9 -49 -13 -49 -3
0 -22 16 -41 35 -19 19 -37 35 -41 35 -4 0 -18 -17 -30 -37 -33 -55 -155 -178
-211 -214 -26 -17 -48 -35 -48 -39 0 -5 16 -25 35 -46 19 -20 34 -38 33 -39
-2 -1 -37 -8 -78 -15 -186 -32 -395 -125 -567 -253 -51 -38 -64 -59 -44 -71 5
-3 53 5 107 19 55 14 140 32 189 41 185 32 356 48 297 27 -22 -8 -162 -112
-223 -165 -60 -53 -76 -88 -39 -88 11 0 52 13 92 29 125 49 513 151 577 151 6
0 11 -20 11 -45 0 -50 20 -108 41 -121 8 -5 48 -13 89 -19 l75 -10 6 -50 c3
-28 9 -58 14 -68 11 -26 53 -43 110 -46 28 -2 51 -4 52 -5 2 -2 7 -24 12 -50
11 -62 28 -77 92 -87 49 -8 58 -14 183 -136 773 -756 2594 -2521 2610 -2530
30 -17 101 -16 137 2 16 9 39 30 49 48 23 36 26 110 7 143 -7 12 -606 632
-1332 1378 -1124 1156 -1321 1363 -1328 1394 -21 93 -32 105 -108 117 -35 5
-35 6 -38 57 -2 51 -21 100 -42 114 -7 4 -37 10 -68 13 l-56 6 -10 75 c-6 41
-14 81 -19 89 -13 21 -72 41 -121 41 l-46 0 6 43 c21 137 104 446 151 559 69
165 -18 116 -170 -96 -30 -42 -56 -81 -59 -88 -21 -59 -5 111 27 299 9 51 28
136 41 189 14 53 22 101 19 105 -12 20 -34 6 -74 -47z"/>
</g>
</svg>
