<?xml version="1.0" standalone="no"?>
<!DOCTYPE svg PUBLIC "-//W3C//DTD SVG 20010904//EN"
 "http://www.w3.org/TR/2001/REC-SVG-20010904/DTD/svg10.dtd">
<svg version="1.0" xmlns="http://www.w3.org/2000/svg"
 width="1250.000000pt" height="1250.000000pt" viewBox="0 0 1250.000000 1250.000000"
 preserveAspectRatio="xMidYMid meet">

<g transform="translate(0.000000,1250.000000) scale(0.100000,-0.100000)"
fill="#000000" stroke="none">
<path d="M6328 8654 c-1261 -1296 -2295 -2360 -2296 -2366 -2 -5 -1 -20 2 -33
l6 -25 1318 -2 c1228 -3 1317 -4 1320 -20 2 -9 -513 -1064 -1143 -2343 -687
-1396 -1145 -2336 -1143 -2349 2 -16 10 -21 35 -21 30 0 227 207 2708 2845
1472 1565 2681 2855 2688 2868 26 54 91 47 -1435 149 -1121 75 -1416 98 -1428
109 -13 13 90 223 860 1763 930 1862 893 1781 825 1781 -17 0 -588 -581 -2317
-2356z"/>
<path d="M3480 7178 c-26 -60 -1019 -3429 -1014 -3441 3 -8 13 -17 23 -20 9
-2 241 34 515 82 358 61 502 82 513 75 12 -8 72 -272 230 -1020 228 -1079 223
-1062 275 -1022 14 11 29 204 107 1398 50 762 91 1408 91 1436 0 38 -4 54 -15
58 -9 3 -223 -26 -476 -66 -337 -52 -463 -68 -471 -60 -8 8 31 352 145 1294
111 912 153 1286 145 1295 -17 21 -57 16 -68 -9z"/>
<path d="M8602 4440 c-750 -357 -1370 -654 -1378 -661 -34 -28 -9 -53 296
-286 176 -135 306 -241 308 -252 2 -15 -262 -190 -1267 -842 -935 -606 -1273
-830 -1277 -847 -7 -24 10 -52 32 -52 11 0 3845 1664 3895 1691 11 5 19 21 19
35 0 22 -45 55 -355 260 -195 129 -355 241 -355 248 0 8 339 301 753 652 413
350 756 643 760 650 13 23 -11 54 -41 53 -15 0 -640 -293 -1390 -649z"/>
</g>
</svg>
