<?xml version="1.0" standalone="no"?>
<!DOCTYPE svg PUBLIC "-//W3C//DTD SVG 20010904//EN"
 "http://www.w3.org/TR/2001/REC-SVG-20010904/DTD/svg10.dtd">
<svg version="1.0" xmlns="http://www.w3.org/2000/svg"
 width="1250.000000pt" height="1250.000000pt" viewBox="0 0 1250.000000 1250.000000"
 preserveAspectRatio="xMidYMid meet">

<g transform="translate(0.000000,1250.000000) scale(0.100000,-0.100000)"
fill="#000000" stroke="none">
<path d="M6221 11086 c-28 -34 -435 -2763 -635 -4261 -224 -1668 -361 -2933
-411 -3775 -18 -295 -23 -733 -11 -881 l8 -97 69 -25 c105 -39 169 -87 362
-274 98 -95 208 -195 245 -223 262 -198 542 -198 804 0 37 28 147 128 245 223
193 187 257 235 362 274 l69 25 8 97 c12 148 7 586 -11 881 -63 1062 -262
2765 -595 5100 -198 1392 -432 2913 -451 2936 -6 8 -19 14 -29 14 -10 0 -23
-6 -29 -14z"/>
<path d="M910 9465 c-9 -11 -8 -30 5 -87 39 -170 47 -253 52 -573 3 -214 0
-441 -11 -685 -43 -1001 -25 -1349 88 -1679 71 -206 252 -432 498 -624 171
-133 299 -214 893 -562 543 -319 799 -541 929 -810 107 -219 159 -456 187
-840 13 -191 7 -728 -12 -1035 -13 -212 -18 -831 -6 -872 6 -23 18 -31 65 -45
80 -25 264 -24 351 2 56 16 65 22 78 54 34 81 119 152 266 221 109 51 213 87
341 116 59 14 80 24 86 39 5 11 13 110 19 220 21 370 101 1261 186 2067 19
180 35 349 35 375 0 66 -53 317 -90 433 -40 122 -117 283 -168 351 -22 30 -80
93 -129 140 -340 330 -721 549 -1651 950 -328 141 -653 301 -762 374 -224 151
-248 201 -425 885 -200 776 -398 1206 -708 1536 -61 66 -92 79 -117 49z"/>
<path d="M11478 9423 c-310 -327 -512 -763 -713 -1543 -177 -684 -201 -734
-425 -885 -109 -73 -434 -233 -762 -374 -696 -300 -1061 -488 -1348 -696 -171
-123 -355 -291 -432 -394 -87 -116 -176 -341 -223 -563 -40 -192 -41 -220 -1
-593 85 -805 166 -1696 187 -2070 6 -110 14 -209 19 -220 6 -15 27 -25 86 -39
128 -29 232 -65 341 -116 147 -69 232 -140 266 -221 13 -32 22 -38 78 -54 87
-26 271 -27 351 -2 47 14 59 22 65 45 12 41 7 660 -6 872 -19 307 -25 844 -12
1035 28 384 80 621 187 840 130 269 387 492 929 810 738 433 927 562 1118 764
264 280 347 519 378 1081 12 228 9 415 -17 1020 -11 244 -14 471 -11 685 5
320 13 403 52 573 13 57 14 76 5 87 -24 29 -55 17 -112 -42z"/>
</g>
</svg>
