<?xml version="1.0" standalone="no"?>
<!DOCTYPE svg PUBLIC "-//W3C//DTD SVG 20010904//EN"
 "http://www.w3.org/TR/2001/REC-SVG-20010904/DTD/svg10.dtd">
<svg version="1.0" xmlns="http://www.w3.org/2000/svg"
 width="1250.000000pt" height="1250.000000pt" viewBox="0 0 1250.000000 1250.000000"
 preserveAspectRatio="xMidYMid meet">
<metadata>
Created by potrace 1.16, written by Peter Selinger 2001-2019
</metadata>
<g transform="translate(0.000000,1250.000000) scale(0.100000,-0.100000)"
fill="#000000" stroke="none">
<path d="M3582 11015 c-71 -31 -194 -174 -308 -361 -214 -353 -334 -708 -335
-993 0 -192 20 -255 135 -430 74 -114 147 -203 260 -319 185 -191 347 -294
461 -295 101 -1 283 73 434 177 157 107 322 305 358 426 67 230 -173 836 -531
1339 -142 200 -370 449 -423 463 -11 3 -34 0 -51 -7z"/>
<path d="M8880 11022 c-50 -17 -235 -210 -366 -384 -346 -457 -628 -1094 -600
-1360 24 -235 390 -567 715 -649 76 -19 84 -19 142 -4 110 28 219 102 373 253
168 165 305 345 375 493 51 106 65 211 51 374 -19 212 -86 428 -215 690 -167
342 -389 616 -475 587z"/>
<path d="M6145 10065 c-203 -105 -710 -531 -968 -812 -239 -261 -357 -412
-357 -458 0 -12 25 -67 56 -121 109 -192 333 -611 429 -804 181 -361 281 -607
292 -716 7 -67 -2 -72 -107 -56 -273 39 -856 300 -1365 610 -806 491 -1485
1119 -1920 1775 -21 31 -41 57 -44 57 -4 0 -43 -29 -86 -64 -211 -169 -405
-481 -490 -786 -46 -167 -58 -275 -52 -479 8 -243 19 -290 109 -455 149 -273
335 -608 445 -804 63 -112 112 -206 110 -209 -8 -7 -141 35 -267 84 -355 140
-626 327 -807 558 -17 22 -34 38 -36 35 -15 -15 -39 -299 -44 -525 -6 -289 18
-823 42 -941 3 -12 36 -68 73 -125 312 -472 757 -809 1217 -921 66 -16 239
-47 267 -48 4 0 -90 -66 -209 -146 -497 -335 -779 -556 -828 -649 l-20 -37 25
-20 c62 -50 300 -154 545 -236 268 -90 604 -169 890 -208 141 -20 564 -26 702
-11 l73 8 -35 -61 c-54 -96 -125 -194 -249 -345 -64 -77 -116 -148 -116 -158
0 -54 854 -386 995 -387 15 0 36 -27 85 -112 107 -184 313 -510 402 -635 111
-158 226 -279 245 -260 2 3 -7 67 -21 144 -66 369 -70 546 -16 758 l19 75 -24
62 c-73 194 -188 437 -438 927 -117 228 -242 477 -278 554 -37 76 -69 140 -71
143 -3 2 -58 15 -124 28 -470 96 -754 213 -913 377 -125 129 -106 241 70 419
141 143 387 318 432 306 37 -9 143 -112 334 -325 206 -229 402 -431 417 -430
6 0 43 39 81 86 100 123 438 461 585 584 421 355 774 551 1016 567 255 16 636
-186 1102 -584 157 -134 416 -392 541 -539 52 -60 99 -112 104 -114 14 -5 158
141 400 408 202 223 334 351 362 351 19 0 134 -73 238 -151 207 -155 337 -321
337 -428 0 -135 -236 -312 -555 -416 -114 -38 -328 -92 -476 -120 l-85 -17
-102 -206 c-55 -114 -193 -387 -304 -607 -203 -399 -295 -594 -369 -777 l-39
-97 20 -78 c55 -220 50 -411 -21 -787 -11 -59 -18 -110 -15 -113 3 -3 20 4 38
15 84 53 278 328 540 765 73 121 136 220 142 222 6 1 47 10 91 20 243 53 915
324 915 369 0 9 -29 52 -65 96 -36 44 -93 115 -128 157 -63 79 -131 179 -182
267 l-29 49 37 -7 c82 -15 334 -23 488 -15 357 19 749 98 1154 233 278 94 536
211 552 252 23 61 -270 301 -824 675 l-232 156 87 12 c365 51 717 223 1009
494 162 150 328 349 424 508 45 76 45 76 57 215 42 484 42 909 1 1242 -6 50
-14 92 -18 92 -4 0 -23 -21 -43 -47 -55 -72 -184 -196 -272 -262 -201 -151
-467 -279 -756 -365 l-52 -15 25 42 c73 124 408 730 570 1028 69 127 82 198
82 454 0 252 -15 343 -91 560 -49 138 -168 352 -263 470 -56 70 -154 167 -216
212 l-60 45 -15 -23 c-456 -694 -1138 -1326 -1975 -1831 -536 -323 -1144 -587
-1365 -591 l-75 -2 1 55 c3 152 247 676 661 1418 62 112 113 214 113 227 0 44
-139 220 -384 485 -240 260 -712 661 -911 775 -103 58 -145 60 -240 10z"/>
<path d="M6180 5225 c-8 -2 -49 -9 -90 -15 -296 -48 -662 -266 -999 -594 -157
-154 -251 -270 -251 -309 0 -56 140 -364 256 -563 l25 -42 92 24 c179 45 443
95 542 101 l99 6 -32 -41 c-86 -108 -280 -230 -487 -307 -55 -20 -101 -38
-103 -40 -13 -12 188 -509 218 -539 6 -6 40 3 87 22 441 174 919 183 1359 27
71 -26 137 -49 146 -52 19 -6 35 23 120 217 49 110 118 298 118 320 0 4 -35
20 -77 35 -193 67 -367 170 -478 281 l-69 69 58 3 c72 4 312 -36 519 -87 126
-31 159 -35 168 -25 22 27 236 461 252 513 27 86 23 102 -41 183 -70 87 -266
281 -375 372 -256 211 -517 355 -747 412 -85 21 -271 39 -310 29z"/>
<path d="M6135 2694 c-105 -11 -238 -36 -319 -59 -85 -24 -238 -94 -263 -118
-40 -41 -59 -345 -28 -462 9 -32 17 -61 19 -63 2 -1 38 22 80 52 180 129 311
127 398 -6 92 -140 89 -310 -6 -397 -14 -14 -26 -30 -26 -37 0 -6 29 -34 65
-62 55 -43 76 -52 133 -62 48 -8 86 -8 131 -1 68 11 89 22 164 84 l47 39 -34
38 c-60 67 -71 96 -71 190 0 72 4 94 28 145 91 196 230 215 447 62 72 -51 70
-52 91 33 27 107 6 400 -31 445 -20 24 -173 93 -263 119 -48 14 -127 32 -175
41 -89 15 -315 26 -387 19z"/>
</g>
</svg>
