<?xml version="1.0" standalone="no"?>
<!DOCTYPE svg PUBLIC "-//W3C//DTD SVG 20010904//EN"
 "http://www.w3.org/TR/2001/REC-SVG-20010904/DTD/svg10.dtd">
<svg version="1.0" xmlns="http://www.w3.org/2000/svg"
 width="1250.000000pt" height="1250.000000pt" viewBox="0 0 1250.000000 1250.000000"
 preserveAspectRatio="xMidYMid meet">
<metadata>
Created by potrace 1.16, written by Peter Selinger 2001-2019
</metadata>
<g transform="translate(0.000000,1250.000000) scale(0.100000,-0.100000)"
fill="#000000" stroke="none">
<path d="M5965 11819 c-533 -21 -1014 -182 -1402 -470 -115 -85 -313 -280
-399 -394 -188 -246 -293 -462 -429 -875 -38 -113 -86 -248 -108 -300 -35 -83
-41 -107 -45 -190 -5 -118 6 -193 64 -430 25 -102 48 -212 51 -245 5 -55 3
-63 -21 -92 -15 -17 -80 -72 -145 -122 -139 -106 -191 -161 -191 -204 0 -39
19 -71 219 -367 90 -135 182 -282 203 -326 44 -94 45 -108 23 -319 -23 -235
-29 -401 -15 -505 11 -88 35 -204 47 -223 2 -4 26 12 52 35 27 24 108 97 182
163 74 67 229 199 344 294 216 179 305 259 305 274 0 5 -22 42 -49 82 -63 95
-75 131 -69 219 11 156 230 602 306 623 46 13 173 5 282 -17 206 -43 489 -140
584 -200 44 -28 47 -33 41 -63 -3 -17 -23 -66 -43 -107 -54 -108 -221 -273
-587 -576 -952 -788 -1571 -1356 -1646 -1511 l-20 -42 29 -73 c16 -40 139
-307 272 -593 497 -1066 701 -1538 818 -1895 53 -161 72 -241 72 -312 0 -131
-102 -563 -236 -996 l-35 -112 77 -103 c179 -237 359 -433 433 -471 41 -22 68
-16 106 24 58 60 38 155 -110 520 -89 220 -115 297 -115 342 0 16 16 60 35 99
32 63 190 304 297 452 l42 58 -58 352 c-32 197 -66 370 -76 394 -10 23 -52 97
-93 165 -41 68 -90 164 -110 213 -89 228 -697 1901 -697 1918 0 6 152 112 336
235 l336 223 16 -22 c81 -116 220 -257 309 -312 23 -15 46 -35 51 -44 42 -82
7 -274 -123 -673 -35 -107 -71 -221 -80 -253 l-16 -57 54 -128 c30 -70 144
-321 252 -557 313 -683 442 -979 479 -1103 17 -59 25 -22 -120 -556 -122 -448
-207 -793 -230 -927 -15 -87 -16 -113 -6 -145 15 -51 77 -132 202 -266 131
-139 164 -189 179 -269 17 -84 67 -242 96 -299 42 -83 87 -104 137 -62 51 43
70 99 70 210 0 163 -60 328 -195 541 -81 127 -108 194 -109 275 -1 78 13 124
138 454 177 465 230 654 240 852 6 105 4 123 -21 215 -38 142 -121 359 -319
840 -252 612 -261 638 -251 724 20 174 101 598 160 848 38 158 71 233 171 384
85 129 150 208 178 215 33 8 76 -17 125 -72 l41 -47 41 47 c48 55 92 80 124
72 28 -7 84 -73 167 -197 108 -161 144 -241 182 -401 60 -251 141 -675 161
-849 10 -86 1 -112 -251 -724 -198 -481 -281 -698 -319 -840 -25 -91 -27 -110
-22 -215 11 -197 74 -418 254 -890 111 -288 126 -338 125 -416 -1 -81 -28
-148 -107 -273 -143 -225 -198 -377 -197 -548 1 -106 20 -163 70 -205 50 -42
95 -21 137 62 29 57 79 215 96 299 15 80 48 130 179 269 125 134 187 215 202
266 10 32 9 58 -6 145 -23 134 -108 479 -230 927 -52 192 -104 385 -115 429
l-20 80 31 90 c16 49 63 166 103 260 68 159 127 289 465 1030 73 160 148 328
166 374 l34 85 -16 55 c-8 31 -45 145 -80 254 -110 336 -152 532 -135 623 10
53 15 60 64 91 89 55 228 196 309 312 l16 22 336 -223 c184 -123 336 -229 336
-235 0 -18 -626 -1739 -706 -1940 -15 -37 -60 -123 -101 -191 -41 -68 -83
-142 -93 -165 -10 -24 -44 -197 -76 -394 l-58 -352 42 -58 c107 -148 265 -389
297 -452 19 -39 35 -83 35 -99 0 -45 -26 -122 -115 -342 -103 -256 -137 -359
-139 -432 -1 -50 2 -60 29 -88 38 -40 65 -46 106 -24 74 38 254 234 433 471
l77 103 -35 112 c-134 433 -236 865 -236 996 0 142 104 446 344 1006 131 305
246 558 548 1205 132 284 254 549 270 589 l29 73 -20 42 c-61 125 -413 462
-1101 1052 -271 232 -389 331 -620 515 -350 280 -446 375 -510 505 -22 44 -42
97 -46 117 -6 36 -4 38 42 68 95 60 378 157 584 200 108 22 236 30 281 18 35
-10 96 -99 168 -245 93 -187 133 -298 139 -379 6 -88 -6 -124 -69 -219 -27
-40 -49 -77 -49 -82 0 -15 89 -95 305 -274 115 -95 270 -227 344 -294 74 -66
155 -139 182 -163 26 -23 50 -39 52 -35 12 19 36 135 47 223 14 104 8 270 -15
505 -22 211 -21 225 23 319 21 44 113 191 203 326 200 296 219 328 219 367 0
43 -52 98 -191 204 -65 50 -130 105 -145 122 -24 29 -26 37 -21 92 3 33 26
143 51 245 58 237 69 312 64 430 -4 83 -10 107 -45 190 -22 52 -70 187 -108
300 -172 523 -321 785 -610 1076 -342 344 -793 559 -1335 638 -185 27 -538 37
-855 25z m371 -4205 c148 -84 364 -444 364 -607 0 -134 -177 -221 -450 -221
-273 0 -450 87 -450 221 0 158 210 513 356 604 70 43 109 44 180 3z"/>
</g>
</svg>
