<?xml version="1.0" standalone="no"?>
<!DOCTYPE svg PUBLIC "-//W3C//DTD SVG 20010904//EN"
 "http://www.w3.org/TR/2001/REC-SVG-20010904/DTD/svg10.dtd">
<svg version="1.0" xmlns="http://www.w3.org/2000/svg"
 width="1250.000000pt" height="1250.000000pt" viewBox="0 0 1250.000000 1250.000000"
 preserveAspectRatio="xMidYMid meet">
<metadata>
Created by potrace 1.16, written by Peter Selinger 2001-2019
</metadata>
<g transform="translate(0.000000,1250.000000) scale(0.100000,-0.100000)"
fill="#000000" stroke="none">
<path d="M6225 12058 c-11 -31 -805 -5234 -801 -5245 4 -10 62 -13 256 -13
l250 0 9 23 c4 12 72 441 150 952 79 512 147 934 152 940 6 6 12 6 18 0 5 -6
73 -428 152 -940 78 -511 146 -940 150 -952 l9 -23 250 0 c195 0 252 3 256 13
2 7 -177 1192 -398 2632 -396 2572 -403 2620 -426 2623 -12 2 -24 -3 -27 -10z"/>
<path d="M4124 11292 c-13 -8 -818 -5227 -810 -5248 4 -11 54 -14 255 -14 165
0 252 4 256 11 4 5 72 434 151 952 80 518 149 946 154 951 6 6 13 6 19 1 5 -6
73 -428 151 -940 78 -511 144 -940 147 -952 l5 -23 253 0 c146 0 256 4 260 9
6 11 -791 5220 -803 5240 -10 18 -24 23 -38 13z"/>
<path d="M8342 11288 c-12 -16 -814 -5236 -807 -5249 4 -5 116 -9 260 -9 l253
0 5 23 c3 12 69 441 147 952 78 512 146 934 151 940 6 5 13 5 19 -1 5 -5 74
-433 154 -951 79 -518 147 -947 151 -952 4 -7 91 -11 256 -11 202 0 251 3 255
14 8 22 -797 5240 -810 5248 -16 11 -22 10 -34 -4z"/>
<path d="M6082 6599 c-26 -13 -55 -39 -70 -62 l-27 -41 -3 -3033 -2 -3033 270
0 270 0 -2 3033 -3 3033 -27 41 c-44 67 -91 83 -239 83 -107 0 -130 -3 -167
-21z"/>
<path d="M3972 5829 c-25 -13 -55 -39 -70 -62 l-27 -41 -3 -2523 -2 -2523 270
0 270 0 -2 2523 -3 2522 -24 36 c-14 20 -41 47 -60 60 -31 22 -46 24 -170 27
-123 3 -140 1 -179 -19z"/>
<path d="M8205 5836 c-40 -20 -56 -34 -85 -76 l-25 -35 -3 -2522 -2 -2523 270
0 270 0 0 2512 0 2512 -21 44 c-13 26 -38 54 -62 70 -38 26 -48 27 -176 29
-102 2 -143 -1 -166 -11z"/>
</g>
</svg>
