<?xml version="1.0" standalone="no"?>
<!DOCTYPE svg PUBLIC "-//W3C//DTD SVG 20010904//EN"
 "http://www.w3.org/TR/2001/REC-SVG-20010904/DTD/svg10.dtd">
<svg version="1.0" xmlns="http://www.w3.org/2000/svg"
 width="1250.000000pt" height="1250.000000pt" viewBox="0 0 1250.000000 1250.000000"
 preserveAspectRatio="xMidYMid meet">
<metadata>
Created by potrace 1.16, written by Peter Selinger 2001-2019
</metadata>
<g transform="translate(0.000000,1250.000000) scale(0.100000,-0.100000)"
fill="#000000" stroke="none">
<path d="M10005 9113 c-79 -12 -1232 -337 -1246 -352 -5 -5 286 -1059 295
-1068 2 -2 252 69 557 157 305 88 565 160 580 160 14 0 35 -10 45 -22 22 -24
374 -1231 374 -1280 0 -14 -8 -32 -18 -41 -10 -9 -272 -90 -583 -179 -310 -89
-565 -163 -567 -164 -3 -1 296 -1065 301 -1071 8 -7 1191 341 1265 373 220 94
440 288 563 495 49 84 98 217 124 337 30 135 34 346 11 477 -23 126 -392 1390
-432 1480 -104 233 -293 444 -506 564 -81 46 -222 96 -333 120 -121 25 -310
31 -430 14z"/>
<path d="M4658 7596 c-2516 -718 -3670 -1051 -3701 -1069 -63 -37 -132 -118
-158 -185 -16 -41 -22 -79 -23 -137 0 -75 16 -139 268 -1040 148 -528 274
-965 280 -972 15 -16 1607 -825 1613 -819 3 3 -316 1105 -335 1155 -3 7 359
-169 804 -392 445 -223 810 -405 811 -404 1 1 -72 265 -163 586 -90 322 -163
587 -162 591 2 4 360 -177 796 -402 436 -226 795 -408 798 -405 4 4 -292 1085
-326 1189 l-9 28 32 -16 c18 -9 380 -203 805 -431 426 -228 775 -413 777 -411
2 2 -70 269 -160 593 -90 324 -163 590 -162 591 1 1 360 -184 797 -411 437
-226 796 -407 798 -401 1 6 -69 270 -157 586 -87 316 -158 576 -157 577 1 1
357 -180 792 -402 434 -223 793 -405 798 -405 4 0 6 6 4 13 -3 6 -224 783
-493 1725 -284 997 -492 1712 -499 1711 -6 0 -1656 -470 -3668 -1043z"/>
</g>
</svg>
