<?xml version="1.0" standalone="no"?>
<!DOCTYPE svg PUBLIC "-//W3C//DTD SVG 20010904//EN"
 "http://www.w3.org/TR/2001/REC-SVG-20010904/DTD/svg10.dtd">
<svg version="1.0" xmlns="http://www.w3.org/2000/svg"
 width="1250.000000pt" height="1250.000000pt" viewBox="0 0 1250.000000 1250.000000"
 preserveAspectRatio="xMidYMid meet">
<metadata>
Created by potrace 1.16, written by Peter Selinger 2001-2019
</metadata>
<g transform="translate(0.000000,1250.000000) scale(0.100000,-0.100000)"
fill="#000000" stroke="none">
<path d="M6735 10364 c-611 -44 -1039 -118 -1450 -252 -460 -151 -885 -383
-1138 -621 -76 -72 -97 -105 -97 -152 0 -25 723 -4379 746 -4491 l5 -26 -73
19 c-153 40 -267 53 -468 53 -205 1 -297 -9 -484 -50 -701 -155 -1331 -630
-1576 -1190 -105 -239 -136 -481 -91 -699 44 -213 161 -405 330 -539 188 -149
414 -238 698 -276 121 -17 465 -8 588 15 298 54 587 157 820 292 487 282 827
675 949 1097 36 122 47 198 48 340 1 118 -8 172 -318 1905 l-318 1783 34 29
c19 16 78 58 130 93 448 301 1158 501 2028 571 646 53 1261 40 1712 -36 137
-23 325 -68 380 -91 l35 -15 204 -1597 c112 -878 202 -1599 199 -1601 -3 -3
-34 1 -69 9 -210 49 -495 61 -716 31 -920 -127 -1729 -786 -1869 -1523 -26
-137 -22 -314 10 -442 109 -438 505 -724 1081 -781 858 -84 1847 446 2209
1184 92 188 136 370 136 567 1 165 -682 5704 -710 5767 -23 51 -87 101 -241
188 -378 216 -899 355 -1574 421 -150 15 -1009 28 -1150 18z"/>
</g>
</svg>
