<?xml version="1.0" standalone="no"?>
<!DOCTYPE svg PUBLIC "-//W3C//DTD SVG 20010904//EN"
 "http://www.w3.org/TR/2001/REC-SVG-20010904/DTD/svg10.dtd">
<svg version="1.0" xmlns="http://www.w3.org/2000/svg"
 width="1250.000000pt" height="1250.000000pt" viewBox="0 0 1250.000000 1250.000000"
 preserveAspectRatio="xMidYMid meet">
<metadata>
Created by potrace 1.16, written by Peter Selinger 2001-2019
</metadata>
<g transform="translate(0.000000,1250.000000) scale(0.100000,-0.100000)"
fill="#000000" stroke="none">
<path d="M5990 10799 c-593 -33 -1179 -185 -1720 -445 -1014 -488 -1835 -1367
-2250 -2409 -434 -1089 -434 -2301 0 -3390 415 -1042 1240 -1924 2250 -2408
462 -221 901 -351 1411 -417 755 -98 1561 6 2268 292 1049 423 1917 1234 2405
2248 555 1154 601 2484 126 3675 -415 1042 -1236 1921 -2250 2409 -554 266
-1122 411 -1750 446 -204 11 -276 11 -490 -1z m430 -479 c434 -23 788 -91
1174 -227 1169 -410 2089 -1330 2499 -2499 439 -1247 242 -2628 -526 -3704
-1058 -1480 -2954 -2084 -4661 -1483 -1249 439 -2213 1463 -2575 2733 -337
1186 -115 2465 602 3470 727 1017 1871 1645 3117 1709 85 4 160 9 165 9 6 1
98 -3 205 -8z"/>
<path d="M5960 9890 c-169 -14 -441 -60 -620 -106 -1610 -417 -2739 -1874
-2740 -3534 0 -1147 542 -2228 1465 -2921 624 -469 1402 -729 2185 -729 783 0
1561 260 2185 729 923 693 1465 1774 1465 2921 0 1660 -1130 3117 -2740 3534
-187 48 -450 92 -639 107 -134 10 -423 9 -561 -1z m515 -480 c817 -64 1567
-430 2116 -1033 696 -764 976 -1823 748 -2822 -222 -973 -890 -1788 -1800
-2196 -183 -82 -540 -202 -555 -186 -2 2 15 12 38 23 71 30 237 123 338 187
672 429 1150 1122 1310 1903 45 215 55 329 54 609 0 243 -3 286 -27 432 -35
212 -84 406 -146 575 -422 1146 -1485 1915 -2701 1955 -640 20 -1284 -174
-1807 -544 -146 -104 -372 -300 -471 -409 l-63 -69 33 55 c192 322 502 663
813 896 327 244 725 435 1115 534 186 47 317 68 590 93 78 8 302 6 415 -3z
m-365 -1059 c1021 -155 1830 -899 2071 -1904 11 -43 19 -81 19 -85 0 -4 -19
27 -41 68 -96 178 -230 354 -389 511 -342 338 -785 550 -1270 609 -143 17
-419 12 -562 -10 -484 -75 -883 -275 -1224 -615 -500 -499 -727 -1207 -608
-1900 36 -211 95 -391 195 -594 192 -393 492 -712 874 -930 96 -55 96 -60 1
-35 -460 117 -849 337 -1176 664 -752 752 -944 1858 -490 2824 116 248 280
478 489 686 274 273 564 459 917 588 186 68 478 131 674 146 110 8 398 -5 520
-23z m372 -1286 c505 -76 923 -348 1201 -782 237 -369 319 -864 213 -1283 -53
-208 -150 -421 -265 -585 -80 -113 -300 -333 -408 -408 -153 -106 -328 -190
-505 -241 -96 -28 -239 -59 -244 -53 -2 2 33 30 79 62 266 191 459 484 539
819 30 124 33 436 5 566 -59 277 -176 491 -376 690 -202 201 -417 318 -691
377 -131 28 -432 26 -561 -4 -357 -83 -657 -288 -854 -586 -21 -31 -40 -56
-42 -53 -6 6 15 127 41 229 155 608 669 1100 1286 1231 186 39 407 47 582 21z
m-475 -1334 c293 -92 506 -308 599 -606 26 -82 29 -103 28 -240 0 -137 -3
-158 -28 -240 -57 -179 -163 -335 -304 -449 -176 -141 -430 -216 -639 -188
-422 57 -734 373 -785 793 -47 395 223 802 616 926 119 37 158 42 296 38 103
-4 141 -10 217 -34z"/>
</g>
</svg>
