<?xml version="1.0" standalone="no"?>
<!DOCTYPE svg PUBLIC "-//W3C//DTD SVG 20010904//EN"
 "http://www.w3.org/TR/2001/REC-SVG-20010904/DTD/svg10.dtd">
<svg version="1.0" xmlns="http://www.w3.org/2000/svg"
 width="1080.000000pt" height="1080.000000pt" viewBox="0 0 1080.000000 1080.000000"
 preserveAspectRatio="xMidYMid meet">

<g transform="translate(0.000000,1080.000000) scale(0.100000,-0.100000)"
fill="#000000" stroke="none">
<path d="M5302 8178 c-154 -488 -200 -748 -134 -748 45 0 96 195 156 600 57
379 55 392 -22 148z"/>
<path d="M8695 8261 c-22 -11 -77 -44 -123 -73 -45 -29 -353 -226 -684 -438
-331 -212 -737 -472 -903 -578 -165 -105 -306 -196 -314 -201 -17 -10 -28 9
262 -443 115 -181 214 -328 220 -328 8 0 130 77 502 315 28 18 187 120 355
227 168 107 350 224 405 260 227 146 334 188 505 195 58 2 115 6 127 9 30 6
113 126 152 217 40 98 55 190 48 306 -9 164 -74 329 -164 419 -107 108 -289
160 -388 113z"/>
<path d="M4146 8213 c9 -39 96 -310 134 -418 43 -120 120 -282 154 -322 15
-18 36 -33 47 -33 61 0 -18 210 -241 638 -81 155 -108 194 -94 135z"/>
<path d="M5970 7458 c-39 -21 -70 -75 -70 -123 0 -37 24 -80 229 -401 126
-197 298 -467 382 -599 573 -901 570 -897 617 -918 57 -24 102 -16 149 27 31
28 37 40 40 87 l4 54 -327 510 c-179 281 -373 582 -429 670 -358 560 -418 652
-440 674 -29 29 -115 40 -155 19z"/>
<path d="M5692 7263 c-119 -177 -233 -377 -252 -444 -4 -15 -4 -33 1 -40 7
-11 12 -10 28 6 27 28 114 188 184 340 102 222 106 237 39 138z"/>
<path d="M3226 7201 c-3 -5 43 -42 102 -82 373 -258 605 -370 651 -315 36 43
-86 129 -344 241 -110 49 -177 76 -382 156 -12 4 -25 5 -27 0z"/>
<path d="M5014 7038 c3 -18 53 -289 111 -603 59 -313 113 -608 121 -655 9 -47
18 -88 22 -92 6 -5 222 -93 737 -301 83 -33 153 -63 157 -66 4 -4 -10 -92 -33
-196 -22 -105 -46 -221 -54 -260 -8 -38 -34 -168 -59 -288 -26 -120 -46 -225
-46 -234 0 -35 18 5 54 122 40 129 206 644 261 813 l34 102 -41 21 c-22 11
-36 24 -32 28 5 4 104 68 219 141 116 73 214 136 218 140 4 4 -28 63 -72 131
-43 68 -190 298 -326 511 -135 213 -250 390 -255 393 -7 5 -251 -147 -680
-423 -52 -34 -97 -58 -101 -54 -5 6 -21 59 -110 382 -15 58 -47 170 -69 249
-22 79 -40 150 -40 157 0 8 -5 14 -11 14 -7 0 -9 -12 -5 -32z m1380 -1269 c25
-40 43 -75 41 -80 -3 -4 -78 -53 -166 -109 l-161 -102 -94 43 c-52 23 -94 45
-94 48 0 6 411 269 422 270 3 1 27 -31 52 -70z"/>
<path d="M4405 6440 c3 -184 8 -419 11 -522 l6 -187 -148 -96 c-82 -53 -293
-189 -469 -301 -176 -113 -360 -231 -410 -262 -49 -32 -340 -218 -645 -413
-305 -195 -698 -446 -875 -559 l-320 -205 1 -255 c4 -682 16 -1172 30 -1177 7
-2 131 71 276 163 145 93 490 313 768 490 545 348 744 475 1490 951 1035 660
1152 734 1163 739 11 4 1 -265 -28 -763 -7 -133 7 -152 23 -30 49 363 97 709
117 852 13 94 21 173 17 177 -4 3 -187 63 -407 133 -220 70 -403 130 -407 134
-7 6 -58 411 -149 1166 -17 143 -35 269 -40 280 -5 12 -7 -109 -4 -315z m736
-1477 c55 -15 99 -31 99 -34 0 -4 -26 -22 -57 -41 -32 -20 -227 -142 -433
-273 -206 -131 -469 -297 -585 -370 -115 -72 -536 -338 -935 -590 -399 -252
-828 -523 -955 -603 -126 -80 -262 -160 -301 -179 -122 -58 -182 -55 -164 8
25 86 92 150 285 272 83 52 267 168 410 259 250 158 1240 784 1985 1256 195
123 389 246 430 273 41 27 86 49 99 49 13 0 68 -12 122 -27z"/>
<path d="M3230 6103 c0 -6 51 -26 113 -46 442 -140 705 -179 731 -110 22 57
-149 104 -499 137 -266 25 -345 29 -345 19z"/>
<path d="M6501 4890 c-33 -8 -49 -34 -32 -54 24 -28 114 -73 220 -110 192 -67
547 -162 572 -154 14 5 -64 50 -236 136 -264 132 -457 199 -524 182z"/>
<path d="M4854 4210 c-37 -23 -132 -122 -221 -230 -104 -127 -285 -372 -279
-378 16 -15 426 387 499 489 72 102 73 165 1 119z"/>
<path d="M6310 3996 c-20 -25 15 -79 109 -168 125 -119 515 -417 528 -404 7 7
-41 67 -188 231 -139 156 -253 265 -333 317 -63 40 -96 47 -116 24z"/>
<path d="M5600 3654 c-14 -37 -12 -210 5 -375 21 -213 58 -469 66 -469 23 0
32 648 10 760 -20 102 -59 143 -81 84z"/>
</g>
</svg>
