<?xml version="1.0" standalone="no"?>
<!DOCTYPE svg PUBLIC "-//W3C//DTD SVG 20010904//EN"
 "http://www.w3.org/TR/2001/REC-SVG-20010904/DTD/svg10.dtd">
<svg version="1.0" xmlns="http://www.w3.org/2000/svg"
 width="1080.000000pt" height="1080.000000pt" viewBox="0 0 1080.000000 1080.000000"
 preserveAspectRatio="xMidYMid meet">

<g transform="translate(0.000000,1080.000000) scale(0.100000,-0.100000)"
fill="#000000" stroke="none">
<path d="M4187 9773 c-8 -13 -35 -199 -46 -318 -24 -243 -31 -478 -31 -1068
l0 -618 39 -57 c61 -90 126 -211 170 -313 48 -113 27 16 291 -1744 21 -143 66
-442 100 -665 33 -223 76 -506 95 -630 19 -124 48 -317 65 -430 17 -113 42
-277 55 -365 30 -202 100 -669 160 -1065 l47 -305 -12 -135 c-7 -74 -14 -138
-16 -142 -9 -14 84 -366 147 -553 22 -66 66 -172 97 -235 l55 -115 14 85 c20
128 28 595 14 790 l-12 165 -65 136 c-76 159 -54 39 -209 1144 -52 374 -109
772 -125 885 -16 113 -75 527 -130 920 -56 393 -125 886 -155 1095 -30 209
-75 527 -100 707 l-46 326 55 155 c89 250 96 286 81 392 -79 526 -356 1583
-500 1909 -25 56 -30 62 -38 49z m92 -678 c17 -116 67 -455 111 -755 119 -802
125 -856 110 -875 -8 -10 -25 -15 -44 -13 -31 3 -31 4 -39 73 -9 80 -20 173
-82 665 -57 457 -85 733 -93 943 -6 149 -5 184 4 174 1 -1 16 -97 33 -212z"/>
<path d="M4912 7300 c-86 -11 -152 -28 -152 -38 0 -4 20 -52 44 -107 62 -141
104 -279 128 -419 18 -105 20 -147 15 -321 -4 -136 -12 -235 -26 -310 -11 -60
-21 -116 -21 -122 0 -10 33 -13 133 -13 443 0 955 -135 1467 -388 96 -47 179
-88 184 -90 5 -3 6 87 3 209 -4 169 -11 244 -31 354 -49 268 -121 489 -237
721 l-71 142 -141 67 c-319 153 -642 260 -902 299 -134 20 -303 27 -393 16z"/>
<path d="M5852 5538 c-65 -234 -77 -326 -77 -613 0 -228 3 -275 23 -380 105
-553 309 -1011 567 -1270 77 -78 171 -152 181 -142 3 2 -6 26 -20 53 -54 109
-120 370 -146 574 -6 47 -13 150 -16 230 -10 248 22 422 166 900 39 129 82
280 96 335 l24 100 -23 17 c-31 24 -258 141 -337 173 -110 45 -378 135 -402
135 -3 0 -19 -51 -36 -112z"/>
</g>
</svg>
