<?xml version="1.0" standalone="no"?>
<!DOCTYPE svg PUBLIC "-//W3C//DTD SVG 20010904//EN"
 "http://www.w3.org/TR/2001/REC-SVG-20010904/DTD/svg10.dtd">
<svg version="1.0" xmlns="http://www.w3.org/2000/svg"
 width="1080.000000pt" height="1080.000000pt" viewBox="0 0 1080.000000 1080.000000"
 preserveAspectRatio="xMidYMid meet">

<g transform="translate(0.000000,1080.000000) scale(0.100000,-0.100000)"
fill="#000000" stroke="none">
<path d="M5190 9634 c-19 -2 -78 -9 -130 -15 -92 -10 -256 -40 -331 -60 l-37
-9 58 -138 c123 -296 330 -939 330 -1028 0 -43 -49 -136 -166 -313 -87 -131
-95 -147 -83 -166 90 -142 204 -388 264 -569 62 -186 47 -202 -72 -76 -154
164 -364 310 -661 458 -235 117 -233 114 -140 210 77 79 177 195 236 273 l42
56 -26 64 c-103 255 -323 597 -551 857 l-38 43 -92 -58 c-371 -233 -686 -526
-932 -867 -270 -374 -443 -806 -482 -1201 -15 -151 -6 -377 21 -560 98 -670
178 -1397 164 -1508 -8 -66 -10 -69 -146 -224 -197 -223 -278 -346 -278 -419
0 -18 14 -78 31 -131 80 -250 226 -503 416 -721 188 -215 303 -404 386 -637
74 -203 95 -322 132 -745 15 -162 33 -320 42 -350 35 -127 133 -245 255 -304
91 -45 600 -174 943 -240 127 -25 417 -64 575 -78 188 -17 770 -16 960 0 348
31 670 89 1145 207 341 85 413 114 499 200 104 103 139 194 156 400 18 221 50
527 61 590 59 343 213 659 456 938 86 100 168 208 227 301 104 163 236 480
236 568 0 76 -78 195 -278 421 -157 179 -147 159 -145 307 3 187 63 718 154
1360 52 362 50 602 -7 860 -164 738 -713 1445 -1467 1889 -337 198 -713 330
-1112 392 -124 19 -520 34 -615 23z m-1207 -3357 c18 -8 96 -57 174 -110 227
-153 459 -256 692 -308 65 -14 105 -28 109 -37 12 -32 -47 -112 -193 -258
-294 -295 -578 -491 -724 -502 -165 -12 -417 122 -626 332 -169 171 -211 269
-157 373 70 135 322 351 563 483 79 43 111 48 162 27z m2970 -13 c141 -71 347
-222 467 -344 174 -176 185 -261 54 -431 -180 -235 -529 -443 -714 -426 -149
13 -424 202 -711 487 -147 147 -212 229 -207 263 2 15 26 25 118 48 257 64
476 163 695 314 184 127 208 134 298 89z m-1517 -938 c49 -35 196 -283 308
-521 115 -243 216 -511 216 -571 0 -79 -116 -169 -294 -229 -57 -19 -81 -23
-95 -15 -24 12 -59 86 -100 210 -31 96 -63 160 -80 160 -18 0 -30 -28 -46
-110 -36 -183 -41 -190 -142 -190 -193 0 -363 81 -363 173 0 121 154 572 271
797 88 168 172 266 256 296 48 17 45 17 69 0z m324 -2081 c34 -18 29 -2 76
-255 27 -151 33 -200 25 -218 -19 -40 -113 -76 -201 -77 -64 0 -84 4 -135 30
-55 27 -60 33 -63 66 -2 19 13 121 33 226 19 106 35 194 35 197 0 4 15 15 33
26 40 25 153 28 197 5z m-541 -19 c22 -12 30 -26 38 -63 6 -26 27 -124 48
-216 l38 -169 -20 -26 c-29 -39 -125 -75 -198 -75 -69 -1 -155 25 -180 53 -21
23 -19 66 19 313 26 174 28 178 101 196 49 12 116 6 154 -13z m-529 -45 c28
-20 26 -15 71 -254 l33 -178 -25 -24 c-30 -30 -125 -65 -177 -65 -51 0 -133
25 -166 51 -33 26 -33 46 -1 214 42 227 45 239 58 253 33 32 162 34 207 3z
m-484 -37 c19 -9 34 -17 34 -18 0 0 9 -73 20 -161 31 -254 32 -252 -80 -281
-55 -14 -74 -15 -125 -5 -33 7 -75 22 -93 33 -56 35 -58 47 -22 177 64 231 71
251 88 260 27 16 140 13 178 -5z m2509 -18 c29 -12 36 -23 49 -68 91 -326 91
-326 49 -356 -49 -33 -112 -52 -176 -52 -68 0 -139 26 -155 57 -11 21 31 380
46 395 15 15 85 37 120 38 18 0 48 -6 67 -14z m-2510 -575 c68 -30 68 -29 30
-200 -19 -85 -40 -160 -46 -167 -32 -39 -174 -44 -211 -7 -24 24 -89 311 -77
335 32 60 205 82 304 39z m541 3 c23 -8 52 -26 64 -39 l24 -25 -28 -158 c-46
-256 -48 -265 -82 -281 -71 -35 -188 -19 -210 29 -22 46 -78 401 -67 419 15
24 85 61 135 70 51 10 108 5 164 -15z m1551 1 c95 -28 96 -30 63 -310 -22
-192 -24 -196 -108 -213 -53 -12 -127 -2 -147 19 -7 8 -36 103 -64 212 -62
237 -62 234 56 283 67 27 129 30 200 9z m527 -32 c55 -19 76 -40 76 -77 0 -27
-35 -186 -70 -317 -13 -48 -48 -63 -135 -57 -97 6 -100 11 -134 219 -33 201
-32 207 46 233 88 28 137 28 217 -1z m-1555 2 c70 -24 101 -52 101 -88 0 -54
-87 -429 -101 -438 -53 -34 -156 -34 -213 -1 l-31 18 -33 218 c-31 199 -32
219 -18 241 36 55 202 83 295 50z m512 -51 c49 -26 54 -33 57 -66 2 -20 -13
-123 -33 -230 -43 -233 -42 -231 -154 -236 -88 -4 -137 13 -145 51 -3 12 -22
109 -41 216 -40 216 -40 228 17 257 101 53 210 56 299 8z"/>
</g>
</svg>
