<?xml version="1.0" standalone="no"?>
<!DOCTYPE svg PUBLIC "-//W3C//DTD SVG 20010904//EN"
 "http://www.w3.org/TR/2001/REC-SVG-20010904/DTD/svg10.dtd">
<svg version="1.0" xmlns="http://www.w3.org/2000/svg"
 width="80.000000pt" height="80.000000pt" viewBox="0 0 80.000000 80.000000"
 preserveAspectRatio="xMidYMid meet">
<metadata>
Created by potrace 1.16, written by Peter Selinger 2001-2019
</metadata>
<g transform="translate(0.000000,80.000000) scale(0.100000,-0.100000)"
fill="#000000" stroke="none">
<path d="M432 738 c-7 -7 -12 -30 -12 -53 0 -33 -7 -49 -40 -85 -21 -25 -50
-69 -62 -97 -13 -29 -26 -53 -29 -53 -3 0 -20 31 -38 69 -21 45 -50 86 -81
115 -52 49 -70 55 -89 32 -15 -18 -5 -40 38 -79 21 -20 33 -43 41 -85 7 -31
16 -69 21 -84 11 -39 -8 -36 -59 8 -45 38 -72 39 -72 3 0 -33 34 -72 82 -97
l45 -22 -5 -57 c-2 -32 -13 -76 -23 -97 -24 -51 -24 -52 9 -65 102 -40 418
-41 494 0 16 9 16 12 -2 55 -12 26 -20 68 -20 99 l0 54 45 20 c31 14 46 27 51
46 3 14 4 28 1 31 -6 7 -137 -43 -152 -57 -5 -5 -15 -9 -23 -9 -25 0 0 21 56
48 72 34 102 77 102 143 0 26 -4 50 -8 53 -15 9 -52 -25 -52 -48 0 -19 -32
-66 -45 -66 -3 0 -5 15 -5 33 0 20 13 53 35 87 39 60 43 78 19 87 -24 9 -68
-41 -111 -127 -32 -63 -47 -81 -90 -109 -44 -28 -53 -39 -53 -63 0 -17 -4 -27
-10 -23 -5 3 -10 28 -10 56 0 51 26 121 59 156 31 33 41 60 41 111 0 55 -26
92 -48 70z"/>
</g>
</svg>
