<?xml version="1.0" standalone="no"?>
<!DOCTYPE svg PUBLIC "-//W3C//DTD SVG 20010904//EN"
 "http://www.w3.org/TR/2001/REC-SVG-20010904/DTD/svg10.dtd">
<svg version="1.0" xmlns="http://www.w3.org/2000/svg"
 width="1080.000000pt" height="1080.000000pt" viewBox="0 0 1080.000000 1080.000000"
 preserveAspectRatio="xMidYMid meet">

<g transform="translate(0.000000,1080.000000) scale(0.100000,-0.100000)"
fill="#000000" stroke="none">
<path d="M3049 10137 c-61 -97 -95 -187 -109 -289 -16 -108 26 -269 100 -390
20 -31 30 -59 27 -72 -39 -166 -42 -206 -12 -206 8 0 41 22 73 49 l60 50 25
-27 c25 -27 26 -29 20 -138 -4 -82 -3 -113 6 -119 15 -8 58 30 97 87 15 21 30
38 34 38 3 0 62 -33 131 -74 68 -40 219 -128 334 -196 595 -348 1093 -683
1503 -1008 51 -41 92 -77 90 -81 -2 -4 -21 -46 -43 -94 l-39 -87 -66 0 c-234
-1 -286 -105 -133 -271 l54 -58 -69 -163 c-88 -209 -127 -302 -237 -578 l-90
-225 -75 -6 c-114 -8 -170 -44 -170 -110 0 -32 38 -98 86 -149 l44 -48 -26
-73 c-15 -41 -30 -78 -34 -82 -15 -17 -100 164 -185 393 -47 129 -108 294
-135 365 -27 72 -89 240 -138 375 -50 135 -120 326 -157 425 -80 216 -158 429
-231 625 -29 80 -102 278 -162 440 -60 162 -129 348 -153 414 -33 90 -49 121
-67 129 -18 8 -26 7 -39 -6 -21 -21 -19 -27 70 -267 35 -96 97 -262 136 -369
40 -106 70 -195 69 -197 -2 -1 -37 30 -78 69 -41 40 -171 164 -289 275 -179
169 -219 202 -240 200 -19 -2 -27 -9 -29 -28 -4 -42 147 -933 161 -942 29 -19
46 -7 82 57 16 28 44 76 63 108 l35 59 46 -89 c104 -196 416 -783 451 -848 21
-38 97 -182 170 -320 73 -137 165 -311 205 -385 156 -291 187 -353 178 -347
-5 3 -36 41 -69 84 -61 80 -90 118 -665 868 -309 403 -1026 1337 -1216 1585
l-73 95 33 7 c17 3 73 10 124 13 101 8 129 20 119 51 -4 12 -166 128 -396 283
-399 268 -431 285 -438 233 -4 -27 285 -876 308 -905 30 -36 51 -9 99 123 24
66 47 118 51 113 8 -8 142 -183 460 -598 502 -655 942 -1229 1001 -1305 330
-429 470 -613 467 -615 -2 -2 -129 110 -283 249 -154 139 -534 480 -845 760
-311 279 -566 511 -568 516 -2 5 16 14 40 20 186 49 226 68 212 104 -3 7 -92
51 -197 96 -106 46 -300 130 -432 187 -132 57 -248 102 -259 101 -49 -7 -42
-30 59 -209 384 -680 377 -669 395 -669 28 0 41 33 60 144 11 65 22 121 25
124 3 3 18 -6 33 -20 15 -13 207 -186 427 -384 220 -197 576 -516 790 -709
215 -193 497 -447 628 -564 130 -117 237 -216 237 -220 0 -3 -19 -58 -41 -121
-23 -63 -63 -180 -91 -260 -85 -250 -75 -230 -122 -230 -57 0 -111 -17 -142
-44 -50 -42 -26 -145 50 -215 14 -14 26 -33 26 -42 0 -22 -269 -795 -337 -970
l-27 -69 -48 0 c-116 0 -188 -40 -188 -105 0 -44 20 -85 71 -147 22 -26 39
-51 39 -57 0 -18 -120 -272 -177 -376 -114 -206 -161 -264 -469 -575 -325
-329 -354 -367 -354 -463 0 -45 7 -71 31 -119 37 -73 150 -188 231 -236 139
-82 309 -110 394 -65 87 46 122 116 319 628 111 288 222 461 483 752 l92 101
72 -25 c134 -47 218 -16 218 80 0 23 -12 74 -25 112 l-25 70 83 78 c232 221
651 597 657 590 7 -7 35 -81 155 -408 65 -175 207 -561 241 -652 19 -51 50
-135 68 -185 19 -51 73 -196 119 -323 47 -126 104 -282 127 -345 46 -127 66
-156 99 -145 30 9 27 49 -8 143 -16 42 -46 122 -66 177 -20 55 -52 143 -72
195 -19 52 -136 370 -260 705 -123 336 -249 675 -279 754 -30 79 -52 146 -50
149 3 2 29 -4 58 -14 29 -9 75 -18 103 -19 l50 -2 225 -424 c444 -835 518
-975 567 -1069 l50 -95 -110 -320 c-61 -176 -111 -321 -112 -323 -1 -1 -15 3
-32 8 -43 16 -145 18 -150 3 -2 -6 31 -48 75 -93 75 -78 78 -83 73 -118 l-6
-37 -52 3 c-150 10 -150 -29 0 -137 46 -33 57 -47 57 -69 0 -89 81 -281 150
-356 71 -78 223 -164 333 -190 l28 -7 -15 30 c-31 60 -144 199 -252 311 -61
63 -114 123 -118 134 -11 30 -9 177 4 247 14 79 85 275 144 400 l44 94 -2
-130 -1 -130 69 -130 c38 -71 117 -220 176 -330 59 -110 124 -234 145 -275 21
-41 47 -87 58 -102 21 -32 57 -37 83 -11 15 16 16 36 11 208 -7 221 -13 219
90 25 36 -69 84 -159 105 -200 45 -85 60 -100 99 -100 29 0 59 31 59 60 0 9
-52 114 -115 234 -64 120 -114 221 -111 223 2 3 69 -41 148 -97 79 -56 149
-105 156 -107 7 -3 24 -1 38 5 18 9 24 20 24 41 0 33 -423 837 -463 879 -12
13 -105 73 -207 134 -102 61 -191 116 -198 123 -11 10 -6 28 30 100 l44 87
143 -186 c123 -161 146 -186 170 -186 34 0 51 17 51 50 0 15 -13 96 -30 181
-35 181 -36 192 -12 162 21 -26 147 -189 232 -301 35 -47 72 -85 85 -88 31 -8
64 11 76 43 12 32 1 48 -185 288 -68 88 -123 161 -121 163 1 2 76 -34 166 -78
176 -87 203 -93 228 -48 17 29 46 -14 -364 524 l-116 151 48 103 48 103 117
-104 117 -104 40 -125 c22 -69 56 -178 76 -242 20 -65 46 -129 57 -144 41 -51
719 -654 736 -654 29 0 55 24 54 51 0 13 -24 83 -52 154 -58 145 -81 205 -76
205 1 0 88 -76 192 -170 201 -180 222 -192 264 -150 24 24 25 48 6 75 -8 11
-95 92 -194 180 -99 88 -179 161 -177 163 3 4 88 -19 247 -64 109 -31 149 -29
162 8 8 22 6 32 -10 49 -44 49 -679 616 -712 636 -25 15 -115 37 -280 70
l-242 48 -135 120 c-74 66 -135 123 -135 126 0 4 10 29 21 56 41 92 158 441
193 574 96 363 136 652 136 999 0 273 -21 467 -75 717 -14 62 -25 116 -25 121
0 5 30 -2 68 -14 37 -13 80 -24 95 -24 39 0 93 25 106 48 22 42 6 140 -39 234
l-22 48 50 52 c176 187 438 516 564 709 49 75 54 79 80 73 44 -9 160 -7 189 4
35 14 69 58 69 91 0 32 -38 113 -78 165 l-29 39 68 141 c146 298 246 612 281
882 11 84 11 85 47 104 49 25 112 76 133 108 24 37 23 93 -2 120 -23 24 -76
53 -131 71 l-35 11 -12 99 c-20 156 -56 281 -92 314 -30 27 -33 27 -159 27
-183 0 -283 24 -385 91 -96 64 -175 216 -202 391 -30 194 -43 204 -244 195
-136 -6 -292 -31 -406 -66 l-61 -18 -37 39 c-48 50 -94 78 -129 78 -61 0 -127
-109 -127 -207 0 -29 -6 -37 -46 -61 -261 -154 -496 -351 -705 -588 -52 -59
-105 -120 -119 -136 l-25 -28 -72 15 c-185 39 -246 -44 -161 -215 l36 -74 -90
-146 c-50 -80 -94 -148 -98 -153 -3 -4 -65 27 -136 68 -71 42 -203 113 -294
159 -197 100 -240 119 -1030 466 -534 235 -751 340 -888 432 -86 58 -171 140
-206 201 -26 43 -26 44 -15 158 16 159 2 469 -20 469 -3 0 -18 -19 -32 -43z
m652 -2156 c3 -3 22 -51 41 -106 41 -115 140 -384 365 -990 98 -264 114 -310
105 -300 -5 6 -91 163 -190 350 -162 306 -300 567 -496 934 -36 69 -66 127
-66 129 0 6 234 -9 241 -17z m3234 -2708 c11 -165 -1 -512 -25 -743 -29 -281
-119 -820 -141 -844 -4 -5 -72 49 -151 119 -79 71 -268 241 -421 379 l-278
250 23 21 c13 12 91 84 173 160 83 76 175 162 205 192 l55 53 60 -25 c81 -33
173 -34 210 -2 40 34 42 85 7 182 l-30 80 147 146 c80 81 149 147 153 148 3 1
9 -52 13 -116z m-662 -1329 c243 -218 447 -402 454 -408 9 -8 7 -30 -8 -91
-39 -160 -52 -205 -61 -205 -4 0 -66 23 -137 51 l-129 51 -223 291 c-294 382
-459 599 -459 604 0 7 105 102 113 103 4 0 207 -178 450 -396z m-314 -248
c277 -361 330 -435 335 -470 3 -23 15 -122 26 -221 27 -243 32 -261 96 -346
30 -40 54 -77 54 -83 0 -6 -10 -45 -23 -86 l-23 -75 -98 185 c-54 102 -115
217 -136 255 -20 39 -97 183 -170 320 -73 138 -169 318 -213 400 -139 261
-225 429 -243 473 l-17 43 29 30 c23 24 30 27 41 17 7 -7 161 -206 342 -442z"/>
</g>
</svg>
