<?xml version="1.0" standalone="no"?>
<!DOCTYPE svg PUBLIC "-//W3C//DTD SVG 20010904//EN"
 "http://www.w3.org/TR/2001/REC-SVG-20010904/DTD/svg10.dtd">
<svg version="1.0" xmlns="http://www.w3.org/2000/svg"
 width="110.000000pt" height="110.000000pt" viewBox="0 0 110.000000 110.000000"
 preserveAspectRatio="xMidYMid meet">
<metadata>
Created by potrace 1.16, written by Peter Selinger 2001-2019
</metadata>
<g transform="translate(0.000000,110.000000) scale(0.100000,-0.100000)"
fill="#000000" stroke="none">
<path d="M312 999 c-40 -81 -65 -205 -58 -276 9 -75 39 -149 92 -224 91 -128
137 -241 150 -369 8 -88 26 -88 36 1 16 147 -13 261 -88 350 -71 82 -124 156
-141 196 -16 41 -20 121 -7 173 8 32 9 29 14 -36 8 -99 42 -160 150 -272 50
-51 90 -89 90 -84 0 5 -31 61 -68 123 -112 186 -121 211 -131 379 l-7 105 -32
-66z"/>
<path d="M569 998 c31 -63 35 -160 12 -298 -13 -80 -9 -181 7 -179 4 0 28 29
55 64 44 61 47 68 47 128 0 133 -42 261 -101 312 -45 37 -49 31 -20 -27z"/>
<path d="M832 868 c-5 -85 -30 -141 -121 -271 -95 -136 -125 -204 -141 -320
-6 -36 -6 -75 -1 -92 l9 -30 1 36 c2 94 64 225 163 342 75 90 88 114 103 201
12 70 12 71 20 33 18 -93 -34 -221 -145 -359 -87 -107 -101 -154 -81 -266 7
-39 18 -76 26 -82 18 -15 48 -1 40 19 -14 35 -17 131 -5 180 8 36 32 79 76
139 104 140 119 178 118 297 0 74 -5 114 -20 154 -25 68 -39 74 -42 19z"/>
<path d="M939 555 c-1 -84 -15 -115 -86 -190 -82 -85 -105 -132 -111 -222 l-5
-73 30 0 c41 0 60 19 67 69 8 55 27 91 82 163 73 93 90 167 57 250 -25 67 -33
67 -34 3z"/>
<path d="M190 526 c0 -3 12 -18 26 -33 39 -42 53 -75 70 -165 9 -46 23 -101
33 -123 17 -38 81 -105 101 -105 4 0 15 -3 24 -6 13 -5 16 2 16 40 0 39 -5 52
-35 83 -24 26 -43 60 -56 105 -12 37 -34 86 -50 108 -37 51 -129 119 -129 96z"/>
</g>
</svg>
