<?xml version="1.0" standalone="no"?>
<!DOCTYPE svg PUBLIC "-//W3C//DTD SVG 20010904//EN"
 "http://www.w3.org/TR/2001/REC-SVG-20010904/DTD/svg10.dtd">
<svg version="1.0" xmlns="http://www.w3.org/2000/svg"
 width="1080.000000pt" height="1080.000000pt" viewBox="0 0 1080.000000 1080.000000"
 preserveAspectRatio="xMidYMid meet">

<g transform="translate(0.000000,1080.000000) scale(0.100000,-0.100000)"
fill="#000000" stroke="none">
<path d="M4695 9868 c-2 -7 -9 -67 -15 -133 -20 -208 -114 -851 -170 -1155
-11 -58 -40 -222 -66 -365 -98 -554 -136 -674 -469 -1515 -176 -443 -267 -699
-324 -910 -15 -55 -13 -5 4 141 33 285 86 506 250 1039 90 294 120 399 153
540 49 203 49 203 13 273 -34 70 -69 224 -101 452 -25 176 -27 185 -46 185 -9
0 -14 -11 -14 -34 0 -57 -29 -271 -60 -441 -107 -582 -360 -1342 -633 -1900
-43 -88 -96 -188 -119 -222 -36 -56 -41 -73 -54 -170 -63 -489 -70 -1132 -18
-1588 45 -405 158 -864 275 -1124 16 -35 27 -66 25 -68 -6 -7 -90 97 -151 187
-73 108 -182 332 -234 480 -218 619 -257 1390 -110 2159 l20 103 -26 55 c-38
81 -64 185 -77 311 -15 139 -29 144 -70 22 -129 -382 -232 -967 -269 -1523
-15 -232 -6 -822 15 -1012 79 -696 249 -1218 536 -1648 383 -571 928 -911
1665 -1037 242 -41 442 -54 728 -47 339 8 589 49 872 142 564 185 1036 553
1392 1085 414 619 676 1441 768 2414 15 161 20 308 10 318 -3 3 -32 -20 -63
-51 -31 -32 -83 -75 -114 -96 l-58 -38 0 -93 c0 -233 -95 -707 -212 -1059
-142 -427 -307 -732 -503 -931 -60 -61 -182 -150 -192 -141 -3 3 21 50 52 104
31 54 104 193 161 308 279 561 405 1040 440 1671 6 117 6 123 -30 255 -164
592 -367 1074 -637 1510 -104 167 -263 386 -473 649 -325 406 -440 566 -564
781 -206 358 -351 826 -380 1228 -4 61 -12 106 -18 108 -6 2 -19 -18 -29 -44
-62 -168 -178 -334 -284 -405 -25 -17 -48 -32 -50 -34 -1 -2 11 -47 29 -101
211 -638 820 -1604 1364 -2161 71 -73 121 -130 110 -126 -41 15 -206 125 -300
200 -411 326 -957 1036 -1367 1775 -263 475 -399 862 -512 1454 -20 105 -38
200 -41 213 -5 24 -22 30 -29 10z m-85 -4943 c246 -52 485 -259 590 -512 60
-144 73 -213 73 -383 1 -130 -3 -168 -21 -235 -32 -114 -101 -249 -169 -330
-338 -401 -951 -239 -1133 300 -142 421 62 872 440 970 50 13 91 16 175 12 61
-3 120 -8 133 -12 43 -14 22 13 -27 34 -171 73 -411 67 -573 -15 -75 -38 -156
-103 -227 -181 -34 -38 -61 -61 -61 -52 0 31 83 145 160 220 167 163 408 233
640 184z m1900 -9 c129 -31 236 -92 330 -186 62 -61 143 -177 134 -191 -3 -5
-25 15 -49 45 -151 184 -405 271 -647 221 -81 -17 -222 -79 -158 -70 98 14
224 17 281 6 110 -22 233 -93 310 -179 213 -239 242 -620 69 -914 -64 -108
-184 -223 -290 -276 -122 -62 -235 -80 -362 -59 -378 64 -619 492 -528 938 68
331 313 598 615 668 61 14 233 12 295 -3z"/>
</g>
</svg>
