<?xml version="1.0" standalone="no"?>
<!DOCTYPE svg PUBLIC "-//W3C//DTD SVG 20010904//EN"
 "http://www.w3.org/TR/2001/REC-SVG-20010904/DTD/svg10.dtd">
<svg version="1.0" xmlns="http://www.w3.org/2000/svg"
 width="80.000000pt" height="80.000000pt" viewBox="0 0 80.000000 80.000000"
 preserveAspectRatio="xMidYMid meet">
<metadata>
Created by potrace 1.16, written by Peter Selinger 2001-2019
</metadata>
<g transform="translate(0.000000,80.000000) scale(0.100000,-0.100000)"
fill="#000000" stroke="none">
<path d="M346 678 c-39 -20 -100 -21 -148 -3 -14 6 -18 2 -18 -18 0 -14 -7
-32 -15 -41 -8 -8 -20 -39 -27 -68 -7 -29 -25 -77 -41 -106 -27 -51 -28 -56
-17 -98 7 -24 15 -44 19 -44 17 0 50 88 49 130 -2 62 54 180 86 180 11 0 56
11 98 24 86 28 113 25 179 -19 21 -13 57 -28 81 -31 81 -12 130 -101 110 -196
-6 -29 -14 -68 -17 -86 -8 -38 -74 -107 -122 -128 -41 -18 -83 -18 -83 0 0 14
-113 32 -131 20 -5 -3 -9 -20 -9 -38 0 -30 4 -35 43 -50 54 -20 50 -21 97 10
30 20 48 25 73 21 19 -3 40 0 51 8 10 7 39 19 66 25 58 14 66 33 55 134 -5 47
-3 72 8 97 8 19 17 51 20 72 5 34 3 38 -26 53 -41 21 -86 73 -87 100 0 26 -14
38 -61 53 -22 7 -45 8 -59 3 -15 -6 -40 -4 -69 5 -56 17 -58 16 -105 -9z"/>
<path d="M366 585 c-16 -9 -44 -14 -61 -13 -36 2 -85 -25 -85 -46 0 -8 -7 -17
-16 -20 -10 -4 -13 -13 -9 -25 3 -11 1 -22 -5 -26 -13 -8 -13 -45 0 -45 6 0
10 -28 10 -64 0 -75 11 -89 67 -84 l38 3 0 92 c0 51 5 97 10 102 8 8 10 -9 7
-54 -7 -113 13 -165 63 -165 41 0 55 34 56 135 0 71 2 85 10 65 6 -14 9 -63 7
-110 l-3 -85 35 0 c45 0 60 28 60 118 0 43 4 67 11 67 8 0 10 -28 7 -95 -5
-94 -5 -95 18 -95 13 0 30 10 38 23 18 28 35 142 25 159 -5 7 -6 21 -3 31 3
10 0 24 -6 32 -6 8 -9 19 -5 25 4 6 -5 10 -23 10 -16 0 -39 9 -52 20 -13 11
-31 20 -41 20 -10 0 -21 5 -24 10 -3 6 -17 10 -30 10 -13 0 -27 5 -30 10 -9
14 -35 12 -69 -5z"/>
</g>
</svg>
