<?xml version="1.0" standalone="no"?>
<!DOCTYPE svg PUBLIC "-//W3C//DTD SVG 20010904//EN"
 "http://www.w3.org/TR/2001/REC-SVG-20010904/DTD/svg10.dtd">
<svg version="1.0" xmlns="http://www.w3.org/2000/svg"
 width="1080.000000pt" height="1080.000000pt" viewBox="0 0 1080.000000 1080.000000"
 preserveAspectRatio="xMidYMid meet">

<g transform="translate(0.000000,1080.000000) scale(0.100000,-0.100000)"
fill="#000000" stroke="none">
<path d="M3848 9308 c-479 -515 -861 -994 -1199 -1505 -547 -828 -916 -1646
-1167 -2588 -69 -257 -78 -314 -64 -397 19 -112 237 -549 435 -873 431 -706
996 -1329 1617 -1786 419 -308 867 -547 1302 -695 l98 -33 24 32 c49 65 195
296 258 407 207 364 343 696 423 1032 100 417 100 1001 -1 1538 -86 464 -227
847 -559 1525 -280 571 -366 778 -434 1050 -36 143 -47 209 -61 372 -36 408
111 989 412 1632 26 57 47 105 46 106 -2 1 -68 17 -148 34 -249 56 -661 179
-808 242 -24 10 -49 19 -56 19 -7 0 -60 -51 -118 -112z m562 -1198 c-21 -80
-41 -157 -44 -172 -4 -18 -27 -41 -73 -74 -245 -175 -501 -457 -663 -732 l-42
-72 22 -54 c38 -94 169 -326 261 -461 260 -385 553 -658 899 -839 l103 -54 40
-94 c296 -707 432 -1147 504 -1633 22 -153 26 -700 5 -835 -45 -289 -139 -587
-274 -872 -44 -92 -55 -108 -75 -108 -50 0 -233 32 -338 59 -499 130 -800 390
-1066 921 -64 127 -95 196 -241 535 -33 77 -90 203 -127 280 -63 132 -71 143
-118 173 -57 37 -133 114 -182 185 -43 63 -116 219 -131 279 -11 42 -10 53 8
91 85 180 109 394 85 732 -28 397 2 773 93 1135 166 667 552 1230 1086 1583
98 65 299 180 304 174 1 -1 -15 -67 -36 -147z"/>
<path d="M3377 6543 c-10 -16 -48 -186 -68 -300 -37 -216 -48 -494 -29 -721 8
-104 12 -117 46 -175 83 -138 240 -267 511 -422 312 -178 385 -227 478 -321
150 -151 249 -477 201 -663 -22 -87 -52 -139 -104 -178 -37 -28 -52 -33 -98
-33 -104 0 -170 56 -226 192 -42 104 -66 133 -101 124 -61 -15 -87 -152 -50
-262 36 -107 141 -227 245 -280 101 -51 229 -50 335 4 139 71 282 285 335 498
25 104 30 300 9 399 -34 164 -125 369 -228 512 -82 115 -260 336 -536 667
-413 494 -553 680 -668 884 -26 46 -49 80 -52 75z"/>
<path d="M7285 9114 c-329 -44 -864 -84 -1114 -84 l-100 0 -27 -87 c-40 -132
-91 -378 -116 -563 -19 -142 -23 -208 -23 -475 0 -279 3 -323 24 -445 49 -283
113 -467 351 -995 121 -269 193 -445 245 -595 121 -349 200 -699 252 -1110 25
-198 25 -666 0 -855 -101 -766 -430 -1551 -976 -2330 -46 -66 -97 -137 -113
-157 -20 -25 -25 -38 -16 -38 18 0 287 76 336 95 21 8 91 34 157 58 1314 486
2686 1727 3155 2855 60 146 69 202 70 427 1 727 -138 1436 -415 2126 -86 216
-289 622 -413 830 -215 358 -435 661 -706 969 -105 119 -360 376 -386 389 -8
4 -91 -3 -185 -15z m-988 -795 c335 -85 655 -273 931 -547 610 -606 907 -1494
830 -2478 -19 -243 14 -491 88 -654 l27 -60 -28 -77 c-66 -188 -164 -329 -292
-420 -35 -25 -63 -49 -63 -55 0 -24 -111 -309 -189 -488 -208 -470 -497 -818
-893 -1073 -111 -72 -269 -160 -275 -153 -3 2 20 51 50 108 169 315 334 737
426 1088 149 571 168 1169 56 1774 l-26 139 39 41 c76 79 130 192 158 329 23
111 15 331 -16 442 -88 325 -306 575 -566 651 -36 10 -92 17 -145 17 l-86 -1
-17 47 c-30 77 -106 304 -106 316 0 15 83 3 207 -31 366 -98 648 -328 821
-670 54 -105 88 -213 115 -359 19 -106 22 -154 22 -415 -1 -378 -23 -573 -131
-1160 -22 -120 -15 -230 19 -297 44 -86 112 -119 231 -111 66 4 136 28 136 47
0 4 -27 16 -61 26 -77 24 -133 60 -155 100 -23 43 -17 101 39 355 133 600 170
873 171 1260 1 333 -29 550 -106 769 -112 318 -390 679 -689 894 -174 125
-455 247 -663 288 l-69 13 6 171 c3 93 9 180 12 192 8 26 25 24 192 -18z"/>
<path d="M5707 8263 c-18 -57 -42 -160 -59 -258 -8 -43 -13 -156 -13 -295 1
-200 4 -242 28 -383 80 -454 244 -840 453 -1066 98 -106 105 -92 30 57 -190
380 -307 687 -360 945 -41 200 -50 326 -51 699 0 192 -3 348 -7 348 -3 0 -13
-21 -21 -47z"/>
<path d="M5476 7436 c-24 -125 -18 -311 13 -431 25 -93 83 -220 139 -302 52
-75 138 -170 147 -161 4 3 -12 38 -35 77 -93 160 -178 374 -210 531 -12 58
-25 168 -29 245 l-7 140 -18 -99z"/>
<path d="M5331 6980 c-1 -74 3 -93 28 -145 27 -58 81 -121 81 -96 0 6 -16 43
-36 82 -19 39 -43 110 -54 157 l-18 87 -1 -85z"/>
<path d="M5730 4507 c0 -2 16 -96 35 -208 19 -112 42 -274 51 -359 21 -191 23
-511 5 -640 -29 -214 -116 -564 -206 -829 -50 -149 -47 -165 19 -80 93 121
198 371 245 586 117 524 72 1113 -110 1476 -25 48 -39 68 -39 54z"/>
<path d="M6085 3725 c23 -207 26 -260 20 -335 -10 -140 -43 -296 -96 -450 -27
-80 -52 -156 -56 -169 -17 -66 67 55 128 184 64 135 84 228 84 390 0 154 -18
261 -61 368 l-24 62 5 -50z"/>
<path d="M6307 3245 c-3 -49 -14 -115 -25 -145 -10 -30 -22 -68 -26 -84 -7
-27 -6 -28 10 -15 9 8 28 37 40 64 20 41 24 66 23 135 -1 127 -14 154 -22 45z"/>
</g>
</svg>
