<?xml version="1.0" standalone="no"?>
<!DOCTYPE svg PUBLIC "-//W3C//DTD SVG 20010904//EN"
 "http://www.w3.org/TR/2001/REC-SVG-20010904/DTD/svg10.dtd">
<svg version="1.0" xmlns="http://www.w3.org/2000/svg"
 width="115.000000pt" height="115.000000pt" viewBox="0 0 115.000000 115.000000"
 preserveAspectRatio="xMidYMid meet">

<g transform="translate(0.000000,115.000000) scale(0.100000,-0.100000)"
fill="#000000" stroke="none">
<path d="M406 867 c-87 -144 -159 -266 -159 -271 0 -4 24 -48 54 -97 49 -81
58 -90 106 -110 29 -12 54 -28 57 -38 2 -9 14 -63 26 -121 28 -134 41 -160 79
-160 38 0 53 32 82 179 l22 114 55 24 c45 21 61 36 98 93 76 118 76 104 2 227
-109 181 -249 408 -256 415 -4 4 -78 -111 -166 -255z m302 -53 c67 -111 124
-208 128 -218 5 -12 0 -16 -19 -16 -21 0 -39 24 -131 180 -59 99 -111 182
-115 184 -4 3 -56 -78 -116 -180 -91 -153 -113 -184 -132 -184 -13 0 -23 5
-23 11 0 6 60 109 132 230 101 165 136 215 144 206 6 -7 66 -102 132 -213z
m-52 -105 c44 -72 78 -134 77 -138 -2 -3 -13 -6 -25 -6 -17 0 -33 20 -73 88
-28 48 -56 92 -61 97 -6 6 -32 -29 -68 -90 -48 -82 -63 -100 -82 -100 -13 0
-24 4 -24 8 0 4 30 57 66 117 37 61 74 122 83 137 8 14 18 25 22 22 4 -2 42
-63 85 -135z m-43 -119 l25 -46 -35 -57 -35 -58 -34 57 c-19 32 -33 60 -32 63
2 4 16 30 32 59 33 59 35 59 79 -18z"/>
<path d="M382 352 c17 -39 63 -112 66 -104 7 21 -19 92 -38 102 -22 12 -33 13
-28 2z"/>
<path d="M723 345 c-11 -8 -24 -31 -27 -50 -4 -20 -10 -44 -13 -53 -8 -23 16
9 51 71 29 49 26 58 -11 32z"/>
</g>
</svg>
