<?xml version="1.0" standalone="no"?>
<!DOCTYPE svg PUBLIC "-//W3C//DTD SVG 20010904//EN"
 "http://www.w3.org/TR/2001/REC-SVG-20010904/DTD/svg10.dtd">
<svg version="1.0" xmlns="http://www.w3.org/2000/svg"
 width="90.000000pt" height="90.000000pt" viewBox="0 0 90.000000 90.000000"
 preserveAspectRatio="xMidYMid meet">

<g transform="translate(0.000000,90.000000) scale(0.100000,-0.100000)"
fill="#000000" stroke="none">
<path d="M442 829 c-11 -24 -29 -68 -42 -96 -12 -29 -26 -53 -30 -53 -4 0 -19
9 -34 21 -28 22 -29 21 -26 -30 l2 -34 -64 7 c-34 4 -83 9 -107 13 -54 7 -54
3 24 -101 l55 -75 -37 -19 -37 -19 36 -19 36 -19 -58 -80 c-33 -44 -59 -84
-60 -89 0 -8 63 -4 168 11 l44 6 -2 -34 c-3 -51 -2 -52 31 -29 16 12 32 21 34
19 2 -2 21 -44 43 -94 22 -50 42 -90 46 -90 4 0 25 40 47 90 22 49 42 91 44
93 2 2 18 -6 34 -18 l31 -21 0 41 0 42 43 -6 c97 -13 167 -18 167 -12 0 4 -24
39 -53 79 -75 102 -74 95 -30 114 l38 16 -37 16 c-21 9 -38 18 -38 21 0 3 27
41 60 85 33 44 60 84 60 89 0 4 -19 6 -42 2 -24 -3 -71 -8 -105 -12 l-63 -7 0
42 0 42 -26 -20 c-15 -12 -30 -21 -34 -21 -4 0 -25 39 -46 88 -21 48 -41 91
-46 96 -4 5 -16 -11 -26 -35z m174 -232 c4 -3 -8 -18 -25 -33 -17 -14 -38 -39
-46 -55 -31 -59 -9 -154 44 -187 14 -9 28 -18 31 -20 12 -9 -30 -22 -73 -22
-64 0 -113 24 -144 72 -50 75 -27 181 50 232 36 24 50 27 99 24 32 -3 60 -7
64 -11z m-278 -146 c3 -15 -3 -30 -14 -38 -25 -18 -31 -17 -50 12 -13 21 -14
28 -4 41 20 24 64 14 68 -15z"/>
</g>
</svg>
