<?xml version="1.0" standalone="no"?>
<!DOCTYPE svg PUBLIC "-//W3C//DTD SVG 20010904//EN"
 "http://www.w3.org/TR/2001/REC-SVG-20010904/DTD/svg10.dtd">
<svg version="1.0" xmlns="http://www.w3.org/2000/svg"
 width="90.000000pt" height="90.000000pt" viewBox="0 0 90.000000 90.000000"
 preserveAspectRatio="xMidYMid meet">
<metadata>
Created by potrace 1.16, written by Peter Selinger 2001-2019
</metadata>
<g transform="translate(0.000000,90.000000) scale(0.100000,-0.100000)"
fill="#000000" stroke="none">
<path d="M683 799 c-53 -40 -58 -49 -54 -104 3 -33 15 -51 43 -66 14 -8 20 -5
28 13 14 34 49 198 41 198 -3 0 -30 -18 -58 -41z"/>
<path d="M540 693 c-47 -59 -5 -182 75 -220 30 -15 35 -15 49 0 9 8 16 30 16
48 0 30 -1 31 -14 14 -13 -18 -14 -18 -43 3 -41 29 -67 85 -59 130 3 19 11 39
18 44 10 6 9 8 -4 8 -9 0 -26 -12 -38 -27z"/>
<path d="M423 609 c-32 -12 -53 -60 -53 -124 0 -135 131 -273 228 -239 27 9
46 55 36 86 -5 16 -7 15 -24 -2 -16 -16 -24 -18 -50 -9 -40 14 -103 88 -118
137 -15 50 -15 115 -1 129 18 18 7 32 -18 22z"/>
<path d="M257 479 c-25 -15 -57 -86 -57 -129 0 -54 44 -164 85 -214 63 -78
191 -120 256 -86 35 20 69 120 39 120 -5 0 -10 -8 -10 -18 0 -20 -38 -42 -71
-42 -27 0 -75 25 -126 67 -83 67 -136 232 -91 288 21 27 9 34 -25 14z"/>
</g>
</svg>
