<?xml version="1.0" standalone="no"?>
<!DOCTYPE svg PUBLIC "-//W3C//DTD SVG 20010904//EN"
 "http://www.w3.org/TR/2001/REC-SVG-20010904/DTD/svg10.dtd">
<svg version="1.0" xmlns="http://www.w3.org/2000/svg"
 width="90.000000pt" height="90.000000pt" viewBox="0 0 90.000000 90.000000"
 preserveAspectRatio="xMidYMid meet">
<metadata>
Created by potrace 1.16, written by Peter Selinger 2001-2019
</metadata>
<g transform="translate(0.000000,90.000000) scale(0.100000,-0.100000)"
fill="#000000" stroke="none">
<path d="M254 817 c-79 -42 -166 -135 -203 -218 -30 -66 -27 -86 24 -136 35
-36 50 -44 68 -39 20 5 27 -1 45 -38 30 -59 45 -70 91 -63 21 2 43 2 48 -2 10
-6 20 -39 30 -99 8 -50 28 -33 26 22 -1 40 1 45 13 35 22 -18 42 4 24 26 -11
13 -10 15 1 10 23 -9 51 -78 44 -108 -10 -37 21 -37 37 -1 11 23 8 33 -17 80
-31 58 -44 66 -97 62 -42 -2 -58 7 -58 35 0 12 -11 44 -25 71 l-25 48 41 46
c40 45 99 156 99 185 0 21 -88 107 -108 107 -9 -1 -36 -11 -58 -23z m90 -12
c3 -10 -11 -26 -47 -48 -81 -53 -153 -130 -187 -202 -32 -66 -43 -77 -54 -50
-25 66 133 266 239 303 41 14 42 14 49 -3z"/>
<path d="M468 688 c-46 -64 -52 -82 -34 -115 15 -30 68 -82 102 -101 16 -9 17
-15 4 -66 -15 -64 -4 -104 30 -113 26 -7 26 -47 0 -80 -14 -18 -20 -41 -20
-75 0 -59 13 -88 40 -88 21 0 27 15 10 25 -5 3 -10 30 -10 60 0 30 5 57 10 60
6 3 10 -1 10 -11 0 -11 6 -15 20 -11 16 4 20 0 20 -22 0 -31 24 -70 36 -58 11
11 5 96 -9 118 -6 10 -19 20 -29 22 -24 7 -23 39 2 79 11 18 20 45 20 59 0 35
4 38 54 26 61 -14 95 2 124 56 34 64 29 87 -27 140 -75 70 -203 127 -287 127
-37 0 -46 -5 -66 -32z m211 -35 c86 -40 171 -114 171 -149 0 -34 -15 -30 -58
14 -58 60 -198 132 -254 132 -9 0 -29 5 -45 11 -27 10 -27 11 -8 25 28 21 106
8 194 -33z"/>
</g>
</svg>
