<?xml version="1.0" standalone="no"?>
<!DOCTYPE svg PUBLIC "-//W3C//DTD SVG 20010904//EN"
 "http://www.w3.org/TR/2001/REC-SVG-20010904/DTD/svg10.dtd">
<svg version="1.0" xmlns="http://www.w3.org/2000/svg"
 width="92.000000pt" height="92.000000pt" viewBox="0 0 92.000000 92.000000"
 preserveAspectRatio="xMidYMid meet">
<metadata>
Created by potrace 1.16, written by Peter Selinger 2001-2019
</metadata>
<g transform="translate(0.000000,92.000000) scale(0.100000,-0.100000)"
fill="#000000" stroke="none">
<path d="M713 825 c-55 -60 -70 -67 -75 -32 -3 19 -8 16 -40 -28 -20 -27 -43
-61 -50 -75 -20 -41 -79 -120 -89 -120 -5 0 -9 9 -9 20 0 42 -27 14 -65 -67
-26 -56 -43 -66 -52 -33 -7 27 -19 17 -48 -41 -23 -45 -45 -64 -45 -38 0 19
-20 -2 -36 -39 -10 -23 -17 -68 -18 -119 -1 -77 1 -83 30 -120 46 -57 98 -83
168 -83 73 0 134 27 176 78 35 43 37 52 10 45 -28 -8 -25 6 15 63 40 56 46 85
15 77 -29 -8 -25 11 18 75 20 31 45 74 55 95 l17 37 -25 -6 c-14 -3 -25 -2
-25 2 0 9 29 63 98 184 37 65 38 70 12 70 -25 0 -25 11 1 61 11 23 19 43 17
45 -3 2 -27 -21 -55 -51z m-245 -457 c21 -18 52 -94 52 -127 0 -27 -40 -92
-74 -120 -21 -18 -114 -9 -154 14 -45 27 -54 49 -46 112 11 91 78 149 163 138
24 -3 51 -11 59 -17z"/>
</g>
</svg>
