<?xml version="1.0" standalone="no"?>
<!DOCTYPE svg PUBLIC "-//W3C//DTD SVG 20010904//EN"
 "http://www.w3.org/TR/2001/REC-SVG-20010904/DTD/svg10.dtd">
<svg version="1.0" xmlns="http://www.w3.org/2000/svg"
 width="100.000000pt" height="100.000000pt" viewBox="0 0 100.000000 100.000000"
 preserveAspectRatio="xMidYMid meet">

<g transform="translate(0.000000,100.000000) scale(0.100000,-0.100000)"
fill="#000000" stroke="none">
<path d="M489 923 c-1 -60 -12 -102 -22 -86 -4 7 -21 22 -37 33 -45 32 -39 3
11 -54 l41 -47 -7 -85 -7 -85 -63 58 c-62 58 -63 59 -70 125 -8 74 -19 81 -29
18 -3 -22 -9 -40 -12 -40 -3 0 -26 18 -51 40 -76 67 -80 52 -10 -32 l39 -48
-29 0 c-15 0 -39 -3 -51 -7 -37 -9 -6 -23 55 -23 50 0 53 -2 110 -61 32 -33
60 -65 61 -70 2 -5 -34 -9 -83 -9 -83 0 -88 1 -128 33 -23 19 -48 37 -54 41
-21 12 -15 -11 12 -42 14 -17 25 -32 25 -35 0 -2 -28 -7 -61 -10 -73 -6 -105
-27 -42 -27 22 0 55 -3 72 -6 l31 -7 -26 -34 c-41 -55 -23 -58 39 -8 l57 48
83 -9 82 -9 -58 -61 c-57 -60 -60 -62 -123 -69 -73 -8 -83 -20 -24 -30 22 -4
40 -9 40 -12 0 -3 -18 -28 -40 -56 -22 -27 -38 -52 -35 -55 3 -3 28 14 56 37
27 24 53 41 55 38 3 -3 8 -24 11 -46 8 -62 20 -49 30 30 l8 72 61 54 62 53 7
-85 7 -85 -46 -52 c-51 -58 -46 -75 8 -33 l34 26 7 -58 c4 -32 9 -65 12 -73 8
-22 21 25 22 83 1 26 4 47 7 47 3 0 19 -11 36 -25 28 -24 48 -32 48 -19 0 3
-18 28 -40 54 -40 48 -40 48 -40 134 0 47 4 86 8 86 4 0 36 -28 70 -63 59 -60
62 -65 62 -112 0 -56 13 -88 24 -60 3 9 6 30 6 46 0 16 3 29 7 29 4 0 29 -18
55 -41 74 -62 75 -42 3 47 l-26 32 46 6 c25 4 45 11 45 16 0 5 -30 12 -68 15
-67 7 -67 7 -124 70 l-57 62 85 7 85 6 49 -41 c59 -50 82 -48 40 3 l-30 37 70
7 c38 3 70 10 70 14 0 9 -51 20 -96 20 -40 0 -41 3 -13 41 34 48 17 53 -33 10
l-46 -41 -92 0 -92 0 62 70 62 70 58 0 c33 0 61 4 64 9 6 10 -26 21 -61 21
-13 0 -23 3 -23 6 0 3 18 26 40 51 64 73 53 85 -21 23 -26 -22 -50 -40 -53
-40 -3 0 -6 13 -6 29 0 16 -3 36 -6 45 -12 31 -24 4 -24 -53 l0 -58 -66 -62
c-36 -33 -68 -61 -70 -61 -2 0 -4 39 -4 88 0 86 1 87 40 137 45 56 38 70 -15
30 l-35 -27 0 40 c0 93 -29 144 -31 55z"/>
</g>
</svg>
