<?xml version="1.0" standalone="no"?>
<!DOCTYPE svg PUBLIC "-//W3C//DTD SVG 20010904//EN"
 "http://www.w3.org/TR/2001/REC-SVG-20010904/DTD/svg10.dtd">
<svg version="1.0" xmlns="http://www.w3.org/2000/svg"
 width="78.000000pt" height="78.000000pt" viewBox="0 0 78.000000 78.000000"
 preserveAspectRatio="xMidYMid meet">
<metadata>
Created by potrace 1.16, written by Peter Selinger 2001-2019
</metadata>
<g transform="translate(0.000000,78.000000) scale(0.100000,-0.100000)"
fill="#000000" stroke="none">
<path d="M328 705 c-19 -19 -38 -49 -42 -66 -10 -54 -7 -114 9 -135 8 -10 15
-38 15 -60 0 -39 3 -44 51 -75 59 -38 52 -42 115 64 36 62 40 90 26 205 l-7
54 -59 24 c-33 13 -62 24 -65 24 -4 0 -23 -16 -43 -35z m163 -170 c1 -31 -7
-55 -35 -103 l-38 -64 -14 27 c-7 15 -27 39 -44 55 -38 36 -40 57 -2 33 15
-10 30 -22 34 -28 4 -5 8 17 8 50 0 55 3 62 38 98 l37 38 7 -33 c4 -18 8 -51
9 -73z"/>
<path d="M141 430 c-22 -50 -41 -96 -41 -101 0 -11 67 -98 85 -111 5 -4 21 -4
36 -1 15 3 30 0 33 -6 14 -21 33 -11 50 28 14 30 15 43 7 59 -6 11 -11 28 -11
37 0 10 -11 30 -25 47 -14 16 -25 42 -25 57 0 24 -44 81 -62 81 -3 0 -24 -41
-47 -90z m75 23 c7 -10 14 -27 14 -39 0 -11 11 -31 25 -44 17 -16 23 -30 19
-45 -3 -13 -1 -26 5 -29 17 -11 13 -26 -7 -26 -10 0 -24 -6 -31 -12 -17 -18
-50 26 -51 66 0 25 -2 27 -16 15 -15 -13 -16 -9 -12 43 4 50 20 88 36 88 2 0
11 -8 18 -17z"/>
<path d="M515 379 l-80 -80 40 8 c50 10 91 10 132 0 31 -8 32 -7 43 32 12 45
6 63 -32 98 l-24 23 -79 -81z"/>
<path d="M334 198 c-31 -63 -31 -63 -15 -116 9 -30 22 -54 32 -57 9 -3 50 10
91 28 67 31 77 40 117 101 24 37 41 70 37 73 -11 11 -79 33 -103 33 -12 0 -34
-5 -48 -12 -19 -9 -28 -9 -37 0 -25 25 -44 11 -74 -50z m225 7 c2 -3 -12 -28
-31 -57 -29 -43 -45 -57 -92 -77 -31 -13 -59 -21 -62 -18 -5 5 22 95 34 112 4
6 21 21 37 33 24 18 38 21 70 17 21 -3 41 -8 44 -10z"/>
</g>
</svg>
