<?xml version="1.0" standalone="no"?>
<!DOCTYPE svg PUBLIC "-//W3C//DTD SVG 20010904//EN"
 "http://www.w3.org/TR/2001/REC-SVG-20010904/DTD/svg10.dtd">
<svg version="1.0" xmlns="http://www.w3.org/2000/svg"
 width="96.000000pt" height="96.000000pt" viewBox="0 0 96.000000 96.000000"
 preserveAspectRatio="xMidYMid meet">

<g transform="translate(0.000000,96.000000) scale(0.100000,-0.100000)"
fill="#000000" stroke="none">
<path d="M530 905 c-11 -29 -28 -31 -145 -14 -42 6 -79 8 -82 6 -2 -3 -10 -27
-17 -53 -12 -47 -12 -47 -86 -74 l-75 -28 3 -65 3 -64 -51 -46 -51 -46 36 -70
c19 -39 35 -76 35 -82 0 -6 -9 -24 -21 -40 -25 -35 -23 -38 57 -100 46 -35 54
-46 50 -65 -7 -27 21 -44 140 -87 136 -49 278 -43 409 17 147 67 244 269 218
451 -12 87 -56 187 -108 243 -30 34 -40 39 -54 31 -13 -9 -39 1 -128 50 -62
34 -115 61 -118 61 -3 0 -10 -11 -15 -25z m2 -106 c-2 -19 -10 -41 -17 -49 -9
-9 -11 -21 -6 -29 9 -14 4 -48 -9 -66 -4 -5 -5 -25 -3 -42 4 -28 9 -32 27 -27
12 3 35 0 50 -6 23 -9 32 -7 47 6 14 13 16 20 8 30 -13 15 -4 64 11 64 6 0 8
15 4 38 -4 28 -2 41 10 51 13 11 14 17 5 28 -24 28 2 24 71 -12 39 -21 89 -55
113 -75 l42 -37 -28 -52 -28 -51 22 -40 c12 -22 21 -42 18 -44 -3 -3 -66 3
-166 18 l-33 5 0 -52 c0 -31 -6 -62 -15 -74 -19 -27 -15 -29 69 -38 46 -5 75
-14 87 -26 33 -33 24 -53 -40 -84 -52 -24 -62 -34 -79 -75 -18 -43 -24 -48
-65 -59 -69 -17 -97 -15 -97 8 0 10 6 24 14 30 10 8 13 23 9 47 -3 19 -1 40 6
47 6 8 8 27 5 46 -5 24 -12 31 -30 31 -12 0 -34 4 -49 10 -20 8 -29 6 -45 -10
-17 -17 -18 -23 -8 -39 9 -15 8 -24 -4 -43 -9 -14 -13 -37 -11 -59 3 -25 0
-39 -12 -49 -15 -12 -23 -11 -61 9 -83 44 -160 153 -178 250 l-6 34 52 -6 c29
-4 85 -9 124 -13 l72 -7 -5 45 c-4 30 0 55 10 75 l16 30 -97 12 c-129 17 -142
20 -142 40 0 47 102 161 180 201 43 22 139 50 155 46 6 -1 8 -18 7 -37z"/>
</g>
</svg>
